<svg id="Component_14_1" data-name="Component 14 – 1" xmlns="http://www.w3.org/2000/svg" width="140" height="85.941" viewBox="0 0 140 85.941">
  <text id="Business" transform="translate(55.103 81.941)" fill="#2a2d32" font-size="10" font-family="Poppins-Regular, Poppins" letter-spacing="0.66em"><tspan x="-45.655" y="0">BUSINESS</tspan></text>
  <g id="Group_28" data-name="Group 28">
    <path id="Union_4" data-name="Union 4" d="M35.71.334,29.432,23.625H21.575L17.917,8.515l-3.783,15.11H6.319L0,.334H7.109l3.284,16.654L14.3.334h7.524L25.774,16.9,29.017.334Zm-1.829,11.6a13.968,13.968,0,0,1,1.351-6.3,10.105,10.105,0,0,1,3.679-4.174A9.576,9.576,0,0,1,44.107,0a8.9,8.9,0,0,1,4.3,1,7.361,7.361,0,0,1,2.848,2.63V.334h7.109V23.625H51.257v-3.3a7.688,7.688,0,0,1-2.889,2.63,8.9,8.9,0,0,1-4.3,1,9.4,9.4,0,0,1-5.155-1.482,10.226,10.226,0,0,1-3.679-4.216A14.1,14.1,0,0,1,33.881,11.938Zm17.377.042a5.85,5.85,0,0,0-1.476-4.216,4.982,4.982,0,0,0-7.192-.021,5.775,5.775,0,0,0-1.476,4.195,5.925,5.925,0,0,0,1.476,4.237,4.936,4.936,0,0,0,7.192.021A5.85,5.85,0,0,0,51.257,11.979ZM84.1.334,69.549,34.686H61.9l5.321-11.854L57.784.334h7.94L71.087,14.9,76.408.334Z" transform="translate(55.901 33.641)" fill="#ff5a27"/>
    <g id="Group_26" data-name="Group 26" transform="translate(0 0)">
      <g id="Group_18" data-name="Group 18" transform="translate(0 0)">
        <path id="Subtraction_9" data-name="Subtraction 9" d="M15.291,15.357A14.99,14.99,0,0,1,4.6,10.872,15.868,15.868,0,0,1,0,0H30.581a15.869,15.869,0,0,1-4.6,10.872A14.989,14.989,0,0,1,15.291,15.357Z" transform="translate(8.584 27.63)" fill="#ff5a27"/>
        <path id="Subtraction_10" data-name="Subtraction 10" d="M12.234,12.286A11.993,11.993,0,0,1,3.679,8.7,12.7,12.7,0,0,1,0,0H24.467a12.7,12.7,0,0,1-3.679,8.7A11.992,11.992,0,0,1,12.234,12.286Z" transform="translate(36.108 24.56) rotate(180)" fill="#ff5a27"/>
        <path id="Path_1" data-name="Path 1" d="M23.859.567A23.924,23.924,0,0,0-.016,24.541c0,15.587,14.889,34.922,21.15,42.365a3.551,3.551,0,0,0,5.448,0c6.262-7.443,21.15-26.779,21.15-42.365A23.924,23.924,0,0,0,23.859.567m0,3.984A19.97,19.97,0,0,1,43.765,24.541c0,14.328-14.837,33.353-19.906,39.427-5.069-6.074-19.906-25.1-19.906-39.427A19.97,19.97,0,0,1,23.859,4.551" transform="translate(0.016 -0.567)" fill="#ff5a27" fill-rule="evenodd"/>
        <path id="Subtraction_8" data-name="Subtraction 8" d="M3.059,6.143A3.072,3.072,0,1,1,6.118,3.072,3.068,3.068,0,0,1,3.059,6.143Zm0-4.607a1.536,1.536,0,1,0,1.53,1.535A1.534,1.534,0,0,0,3.059,1.536Z" transform="translate(20.816 6.898)" fill="#ff5a27"/>
        <g id="Group_17" data-name="Group 17" transform="translate(1.807 28.734)">
          <rect id="Rectangle_90" data-name="Rectangle 90" width="30.873" height="4.555" transform="translate(0 21.875) rotate(-45)" fill="#ff5a27"/>
          <rect id="Rectangle_91" data-name="Rectangle 91" width="30.873" height="4.555" transform="translate(40.922 25.102) rotate(-135)" fill="#ff5a27"/>
        </g>
      </g>
    </g>
    <path id="Path_27" data-name="Path 27" d="M22.781-42.405v22.1H17.42v-9.1H9.081v9.1H3.72v-22.1H9.081v8.657H17.42v-8.657Zm12.54,22.318a11.45,11.45,0,0,1-5.69-1.448,10.8,10.8,0,0,1-4.107-4.045A11.34,11.34,0,0,1,24-31.419a11.256,11.256,0,0,1,1.521-5.823,10.835,10.835,0,0,1,4.107-4.029,11.45,11.45,0,0,1,5.69-1.448,11.45,11.45,0,0,1,5.69,1.448,10.609,10.609,0,0,1,4.076,4.029,11.44,11.44,0,0,1,1.489,5.823,11.432,11.432,0,0,1-1.5,5.839A10.721,10.721,0,0,1,41-21.535,11.363,11.363,0,0,1,35.322-20.087Zm0-4.911a5.39,5.39,0,0,0,4.217-1.763,6.709,6.709,0,0,0,1.583-4.659,6.7,6.7,0,0,0-1.583-4.675,5.414,5.414,0,0,0-4.217-1.747,5.475,5.475,0,0,0-4.248,1.731,6.684,6.684,0,0,0-1.583,4.69,6.7,6.7,0,0,0,1.583,4.675A5.451,5.451,0,0,0,35.322-25ZM72.754-42.405v22.1H67.393V-33.56L62.471-20.307H58.145L53.191-33.591v13.284H47.831v-22.1h6.333l6.176,15.3,6.113-15.3Zm7.493,4.313v4.47h7.179v4.155H80.247v4.848h8.12v4.313H74.886v-22.1H88.367v4.313Z" transform="translate(51.633 50.692)" fill="#ff5a27"/>
    <path id="Path_34" data-name="Path 34" d="M-76.833,0l108.5,0L29.046,4.994-76.833,4.916Z" transform="translate(85.497 63.333)" fill="#ff5a27"/>
  </g>
</svg>
