<svg xmlns="http://www.w3.org/2000/svg" width="140.236" height="84.864" viewBox="0 0 140.236 84.864">
  <g id="Component_36_1" data-name="Component 36 – 1" transform="translate(0)">
    <path id="Path_41" data-name="Path 41" d="M-53.813-4.667a1.914,1.914,0,0,1,.9.4,2.365,2.365,0,0,1,.65.806,2.265,2.265,0,0,1,.241,1.027A2.266,2.266,0,0,1-52.37-1.19a2.385,2.385,0,0,1-1.021.871A3.643,3.643,0,0,1-54.97,0h-3.38V-9.061h3.25a3.677,3.677,0,0,1,1.573.306,2.227,2.227,0,0,1,.975.826,2.162,2.162,0,0,1,.325,1.17,2.021,2.021,0,0,1-.436,1.333A2.437,2.437,0,0,1-53.813-4.667Zm-3.354-.481h1.989a1.919,1.919,0,0,0,1.287-.39,1.345,1.345,0,0,0,.455-1.079A1.345,1.345,0,0,0-53.891-7.7a1.963,1.963,0,0,0-1.313-.39h-1.963Zm2.093,4.173A2.077,2.077,0,0,0-53.7-1.391,1.43,1.43,0,0,0-53.2-2.548a1.469,1.469,0,0,0-.52-1.19,2.1,2.1,0,0,0-1.391-.436h-2.054v3.2Zm14.43-8.086v5.733a2.426,2.426,0,0,0,.591,1.794,2.237,2.237,0,0,0,1.645.585,2.219,2.219,0,0,0,1.632-.585,2.426,2.426,0,0,0,.591-1.794V-9.061H-35v5.72a3.7,3.7,0,0,1-.455,1.9A2.856,2.856,0,0,1-36.686-.286a3.909,3.909,0,0,1-1.736.377,3.909,3.909,0,0,1-1.736-.377,2.817,2.817,0,0,1-1.222-1.151,3.742,3.742,0,0,1-.449-1.9v-5.72ZM-21.573.091a3.876,3.876,0,0,1-1.606-.319,2.675,2.675,0,0,1-1.111-.884,2.265,2.265,0,0,1-.416-1.306h1.261a1.66,1.66,0,0,0,.526,1.072,1.89,1.89,0,0,0,1.346.436,1.966,1.966,0,0,0,1.333-.423,1.371,1.371,0,0,0,.487-1.085,1.232,1.232,0,0,0-.286-.845,1.827,1.827,0,0,0-.715-.494,11.172,11.172,0,0,0-1.157-.364,10.189,10.189,0,0,1-1.436-.468,2.313,2.313,0,0,1-.923-.735,2.158,2.158,0,0,1-.384-1.345,2.331,2.331,0,0,1,.377-1.313,2.456,2.456,0,0,1,1.059-.884,3.73,3.73,0,0,1,1.566-.312,3.281,3.281,0,0,1,2.087.637,2.353,2.353,0,0,1,.917,1.69h-1.3a1.4,1.4,0,0,0-.546-.917,1.94,1.94,0,0,0-1.274-.4,1.846,1.846,0,0,0-1.209.384,1.309,1.309,0,0,0-.468,1.073,1.162,1.162,0,0,0,.279.806,1.8,1.8,0,0,0,.689.475q.409.162,1.15.371a10.806,10.806,0,0,1,1.443.488,2.407,2.407,0,0,1,.936.741,2.155,2.155,0,0,1,.39,1.359,2.386,2.386,0,0,1-.351,1.248,2.58,2.58,0,0,1-1.04.949A3.432,3.432,0,0,1-21.573.091ZM-7.052-9.061V0H-8.235V-9.061ZM10.667,0H9.484L4.726-7.215V0H3.543V-9.074H4.726l4.758,7.2v-7.2h1.183ZM22.445-8.1V-5.07h3.3V-4.1h-3.3v3.12h3.692V0H21.262V-9.074h4.875V-8.1ZM39.384.091a3.876,3.876,0,0,1-1.605-.319,2.675,2.675,0,0,1-1.111-.884,2.265,2.265,0,0,1-.416-1.306h1.261a1.66,1.66,0,0,0,.527,1.072,1.89,1.89,0,0,0,1.346.436,1.966,1.966,0,0,0,1.333-.423A1.371,1.371,0,0,0,41.2-2.418a1.232,1.232,0,0,0-.286-.845,1.827,1.827,0,0,0-.715-.494,11.172,11.172,0,0,0-1.157-.364,10.19,10.19,0,0,1-1.437-.468,2.313,2.313,0,0,1-.923-.735A2.158,2.158,0,0,1,36.3-6.669a2.331,2.331,0,0,1,.377-1.313,2.456,2.456,0,0,1,1.059-.884,3.73,3.73,0,0,1,1.567-.312,3.281,3.281,0,0,1,2.086.637,2.353,2.353,0,0,1,.917,1.69h-1.3a1.4,1.4,0,0,0-.546-.917,1.94,1.94,0,0,0-1.274-.4,1.846,1.846,0,0,0-1.209.384,1.309,1.309,0,0,0-.468,1.073,1.162,1.162,0,0,0,.28.806,1.8,1.8,0,0,0,.689.475q.409.162,1.15.371a10.805,10.805,0,0,1,1.443.488,2.407,2.407,0,0,1,.936.741A2.155,2.155,0,0,1,42.4-2.47a2.386,2.386,0,0,1-.351,1.248,2.58,2.58,0,0,1-1.04.949A3.432,3.432,0,0,1,39.384.091Zm16.211,0a3.876,3.876,0,0,1-1.605-.319,2.675,2.675,0,0,1-1.111-.884,2.265,2.265,0,0,1-.416-1.306h1.261a1.66,1.66,0,0,0,.527,1.072,1.89,1.89,0,0,0,1.346.436,1.966,1.966,0,0,0,1.333-.423,1.371,1.371,0,0,0,.487-1.085,1.232,1.232,0,0,0-.286-.845,1.827,1.827,0,0,0-.715-.494,11.172,11.172,0,0,0-1.157-.364,10.19,10.19,0,0,1-1.437-.468,2.313,2.313,0,0,1-.923-.735,2.158,2.158,0,0,1-.383-1.345,2.331,2.331,0,0,1,.377-1.313,2.456,2.456,0,0,1,1.059-.884,3.73,3.73,0,0,1,1.567-.312,3.281,3.281,0,0,1,2.086.637,2.353,2.353,0,0,1,.917,1.69h-1.3a1.4,1.4,0,0,0-.546-.917,1.94,1.94,0,0,0-1.274-.4,1.846,1.846,0,0,0-1.209.384,1.309,1.309,0,0,0-.468,1.073A1.162,1.162,0,0,0,54-5.9a1.8,1.8,0,0,0,.689.475q.409.162,1.15.371a10.805,10.805,0,0,1,1.443.488,2.407,2.407,0,0,1,.936.741,2.155,2.155,0,0,1,.39,1.359,2.386,2.386,0,0,1-.351,1.248,2.58,2.58,0,0,1-1.04.949A3.432,3.432,0,0,1,55.595.091Z" transform="translate(68.118 84.773)" fill="#fff"/>
    <g id="Group_28" data-name="Group 28" transform="translate(-187.608 -310.227)">
      <path id="Union_4" data-name="Union 4" d="M35.77.333,29.482,23.569h-7.87L17.947,8.495,14.158,23.569H6.329L0,.333H7.121l3.29,16.615L14.325.333h7.537l3.956,16.532L29.066.333ZM33.938,11.909a13.887,13.887,0,0,1,1.353-6.288,10.1,10.1,0,0,1,3.685-4.164A9.621,9.621,0,0,1,44.181,0a8.942,8.942,0,0,1,4.31,1,7.362,7.362,0,0,1,2.852,2.623V.333h7.121V23.569H51.344v-3.29A7.69,7.69,0,0,1,48.45,22.9a8.942,8.942,0,0,1-4.31,1,9.448,9.448,0,0,1-5.164-1.478,10.215,10.215,0,0,1-3.685-4.206A14.019,14.019,0,0,1,33.938,11.909Zm17.406.042a5.822,5.822,0,0,0-1.478-4.206,5,5,0,0,0-7.2-.021,5.748,5.748,0,0,0-1.478,4.185,5.9,5.9,0,0,0,1.478,4.227,4.958,4.958,0,0,0,7.2.021A5.822,5.822,0,0,0,51.344,11.951ZM84.24.333,69.666,34.6H62l5.33-11.826L57.881.333h7.953l5.372,14.533L76.537.333Z" transform="translate(243.604 343.788)" fill="#ff5a27"/>
      <g id="Group_26" data-name="Group 26" transform="translate(187.608 310.227)">
        <g id="Group_18" data-name="Group 18" transform="translate(0 0)">
          <path id="Subtraction_9" data-name="Subtraction 9" d="M15.317,15.321a15.046,15.046,0,0,1-10.71-4.474A15.8,15.8,0,0,1,0,0H30.633a15.8,15.8,0,0,1-4.606,10.846A15.045,15.045,0,0,1,15.317,15.321Z" transform="translate(8.598 27.565)" fill="#ff5a27"/>
          <path id="Subtraction_10" data-name="Subtraction 10" d="M12.254,12.257a12.038,12.038,0,0,1-8.569-3.58A12.64,12.64,0,0,1,0,0H24.508a12.641,12.641,0,0,1-3.685,8.678A12.037,12.037,0,0,1,12.254,12.257Z" transform="translate(36.169 24.501) rotate(180)" fill="#ff5a27"/>
          <path id="Path_1" data-name="Path 1" d="M23.9.567A23.915,23.915,0,0,0-.016,24.484c0,15.55,14.914,34.84,21.186,42.265a3.567,3.567,0,0,0,5.457,0C32.9,59.323,47.814,40.033,47.814,24.484A23.915,23.915,0,0,0,23.9.567m0,3.975a19.963,19.963,0,0,1,19.94,19.942c0,14.294-14.862,33.274-19.94,39.333-5.078-6.06-19.94-25.04-19.94-39.333A19.963,19.963,0,0,1,23.9,4.542" transform="translate(0.016 -0.567)" fill="#ff5a27" fill-rule="evenodd"/>
          <path id="Subtraction_8" data-name="Subtraction 8" d="M3.064,6.129A3.064,3.064,0,1,1,6.128,3.064,3.067,3.067,0,0,1,3.064,6.129Zm0-4.6A1.532,1.532,0,1,0,4.6,3.064,1.534,1.534,0,0,0,3.064,1.532Z" transform="translate(20.851 6.882)" fill="#ff5a27"/>
          <g id="Group_17" data-name="Group 17" transform="translate(1.81 28.666)">
            <rect id="Rectangle_90" data-name="Rectangle 90" width="30.862" height="4.553" transform="translate(0 21.823) rotate(-45)" fill="#ff5a27"/>
            <rect id="Rectangle_91" data-name="Rectangle 91" width="30.862" height="4.553" transform="translate(40.991 25.042) rotate(-135)" fill="#ff5a27"/>
          </g>
        </g>
      </g>
      <path id="Path_27" data-name="Path 27" d="M22.813-42.406v22.045h-5.37v-9.076H9.09v9.076H3.72V-42.406H9.09v8.636h8.353v-8.636ZM35.375-20.141a11.506,11.506,0,0,1-5.7-1.445,10.8,10.8,0,0,1-4.114-4.035,11.278,11.278,0,0,1-1.523-5.825,11.194,11.194,0,0,1,1.523-5.81,10.833,10.833,0,0,1,4.114-4.02,11.506,11.506,0,0,1,5.7-1.445,11.506,11.506,0,0,1,5.7,1.445,10.606,10.606,0,0,1,4.082,4.02,11.377,11.377,0,0,1,1.492,5.81,11.369,11.369,0,0,1-1.507,5.825,10.718,10.718,0,0,1-4.082,4.035A11.418,11.418,0,0,1,35.375-20.141Zm0-4.9A5.41,5.41,0,0,0,39.6-26.8a6.676,6.676,0,0,0,1.586-4.648A6.663,6.663,0,0,0,39.6-36.11a5.434,5.434,0,0,0-4.224-1.743,5.5,5.5,0,0,0-4.255,1.727,6.651,6.651,0,0,0-1.586,4.679,6.663,6.663,0,0,0,1.586,4.663A5.471,5.471,0,0,0,35.375-25.04Zm37.5-17.366v22.045H67.5V-33.582L62.57-20.361H58.237L53.275-33.613v13.252H47.9V-42.406h6.344l6.187,15.262,6.124-15.262Zm7.505,4.3v4.459h7.191V-29.5H80.376v4.836H88.51v4.3h-13.5V-42.406h13.5v4.3Z" transform="translate(239.335 360.9)" fill="#ff5a27"/>
      <path id="Path_34" data-name="Path 34" d="M-76.833,0,31.845,0,29.225,4.982-76.833,4.9Z" transform="translate(273.12 373.41)" fill="#ff5a27"/>
    </g>
  </g>
</svg>
