<?xml version="1.0" encoding="UTF-8"?>
<!DOCTYPE svg PUBLIC "-//W3C//DTD SVG 1.1//EN" "http://www.w3.org/Graphics/SVG/1.1/DTD/svg11.dtd">
<svg xmlns="http://www.w3.org/2000/svg" version="1.1" width="512px" height="512px" style="shape-rendering:geometricPrecision; text-rendering:geometricPrecision; image-rendering:optimizeQuality; fill-rule:evenodd; clip-rule:evenodd" xmlns:xlink="http://www.w3.org/1999/xlink">
<g><path style="opacity:0.996" fill="#ffa91b" d="M 402.5,92.5 C 418.384,112.916 431.217,135.25 441,159.5C 467.906,242.034 453.572,316.367 398,382.5C 346.371,436.383 283.205,459.883 208.5,453C 165.968,447.474 128.468,430.974 96,403.5C 95.5357,404.094 95.369,404.761 95.5,405.5C 47.6138,352.687 28.7804,290.687 39,219.5C 57.6668,128.499 111.5,69.6661 200.5,43C 276.442,25.6534 343.776,42.1534 402.5,92.5 Z"/></g>
<g><path style="opacity:1" fill="#ffc71c" d="M 239.5,44.5 C 297.714,41.6259 348.881,58.9592 393,96.5C 393.5,100.667 391.667,102.5 387.5,102C 327.876,53.4386 261.21,40.772 187.5,64C 108.358,96.1493 63.5245,154.649 53,239.5C 50.0174,294.882 66.0174,343.882 101,386.5C 102.5,391.667 100.667,393.5 95.5,392C 61.9872,352.271 44.9872,306.271 44.5,254C 48.1789,171.593 85.5122,109.926 156.5,69C 182.687,55.3752 210.354,47.2086 239.5,44.5 Z"/></g>
<g><path style="opacity:1" fill="#fffefe" d="M 237.5,86.5 C 309.889,82.938 365.056,111.605 403,172.5C 426.332,214.837 430.999,259.171 417,305.5C 396.535,364.834 356.035,403.001 295.5,420C 227.801,433.322 170.968,414.489 125,363.5C 88.3196,315.771 77.9863,262.771 94,204.5C 118.826,137.172 166.66,97.8389 237.5,86.5 Z"/></g>
<g><path style="opacity:1" fill="#ffa91d" d="M 252.5,105.5 C 258.477,105.071 262.977,107.404 266,112.5C 266.667,123.167 266.667,133.833 266,144.5C 262.816,152.337 257.316,154.504 249.5,151C 247.19,149.363 245.69,147.196 245,144.5C 244.333,133.833 244.333,123.167 245,112.5C 246.742,109.254 249.242,106.921 252.5,105.5 Z"/></g>
<g><path style="opacity:1" fill="#f69118" d="M 402.5,92.5 C 406.5,95.8333 410.167,99.5 413.5,103.5C 413.062,103.435 412.728,103.601 412.5,104C 464.927,170.157 477.427,243.324 450,323.5C 416.557,403.16 357.057,449.66 271.5,463C 212.605,469.02 159.605,454.353 112.5,419C 111.563,418.308 110.897,418.475 110.5,419.5C 104.871,415.539 99.8714,410.873 95.5,405.5C 95.369,404.761 95.5357,404.094 96,403.5C 128.468,430.974 165.968,447.474 208.5,453C 283.205,459.883 346.371,436.383 398,382.5C 453.572,316.367 467.906,242.034 441,159.5C 431.217,135.25 418.384,112.916 402.5,92.5 Z"/></g>
<g><path style="opacity:1" fill="#ef7916" d="M 413.5,103.5 C 458.416,151.41 478.582,208.41 474,274.5C 464.199,356.586 422.699,416.42 349.5,454C 296.445,477.529 242.111,480.862 186.5,464C 157.813,454.504 132.48,439.671 110.5,419.5C 110.897,418.475 111.563,418.308 112.5,419C 159.605,454.353 212.605,469.02 271.5,463C 357.057,449.66 416.557,403.16 450,323.5C 477.427,243.324 464.927,170.157 412.5,104C 412.728,103.601 413.062,103.435 413.5,103.5 Z"/></g>
<g><path style="opacity:1" fill="#ffaa1e" d="M 182.5,124.5 C 188.872,123.77 193.706,126.104 197,131.5C 200.747,138.663 204.747,145.663 209,152.5C 210.627,164.453 205.46,169.286 193.5,167C 190.96,164.795 188.793,162.295 187,159.5C 183.333,152.833 179.667,146.167 176,139.5C 173.915,132.48 176.081,127.48 182.5,124.5 Z"/></g>
<g><path style="opacity:1" fill="#ffaa1f" d="M 320.5,124.5 C 332.044,123.208 336.877,128.208 335,139.5C 330.92,147.329 326.587,154.996 322,162.5C 316.553,168.29 310.553,168.957 304,164.5C 301.702,160.782 301.035,156.782 302,152.5C 306.253,145.663 310.253,138.663 314,131.5C 315.694,128.642 317.861,126.309 320.5,124.5 Z"/></g>
<g><path style="opacity:1" fill="#e6e7e8" d="M 130.5,175.5 C 133.518,175.335 136.518,175.502 139.5,176C 147.329,180.08 154.996,184.413 162.5,189C 168.16,194.08 168.993,199.913 165,206.5C 161.239,209.243 157.072,210.076 152.5,209C 144.5,204.333 136.5,199.667 128.5,195C 122.752,187.753 123.418,181.253 130.5,175.5 Z"/></g>
<g><path style="opacity:1" fill="#fea81b" d="M 241.5,175.5 C 290.636,172.299 321.802,194.299 335,241.5C 339.306,281.397 323.806,310.564 288.5,329C 249.29,343.431 216.456,334.597 190,302.5C 174.282,278.033 171.282,252.033 181,224.5C 193.287,198.293 213.453,181.959 241.5,175.5 Z"/></g>
<g><path style="opacity:1" fill="#e6e7e8" d="M 371.5,175.5 C 384.83,175.164 388.997,181.164 384,193.5C 375.577,199.297 366.744,204.464 357.5,209C 346.193,209.921 341.693,204.754 344,193.5C 346.205,190.96 348.705,188.793 351.5,187C 358.393,183.392 365.059,179.559 371.5,175.5 Z"/></g>
<g><path style="opacity:1" fill="#484340" d="M 234.5,249.5 C 230.167,249.5 225.833,249.5 221.5,249.5C 217.039,249.21 214.205,246.877 213,242.5C 212.333,228.5 212.333,214.5 213,200.5C 215,199.167 217,199.167 219,200.5C 219.333,211.833 219.667,223.167 220,234.5C 221.938,235.86 223.604,235.527 225,233.5C 225.5,222.172 225.667,210.838 225.5,199.5C 227.467,199.261 229.301,199.594 231,200.5C 231.333,211.833 231.667,223.167 232,234.5C 234.022,235.991 235.688,235.658 237,233.5C 237.5,222.172 237.667,210.838 237.5,199.5C 239.467,199.261 241.301,199.594 243,200.5C 243.667,214.833 243.667,229.167 243,243.5C 241.395,247.276 238.562,249.276 234.5,249.5 Z"/></g>
<g><path style="opacity:1" fill="#424041" d="M 286.5,248.5 C 285.833,248.5 285.167,248.5 284.5,248.5C 279.879,249.709 275.213,249.709 270.5,248.5C 264.927,247.428 261.427,244.095 260,238.5C 258.707,226.044 261.707,214.71 269,204.5C 276.614,197.408 283.614,198.074 290,206.5C 297.438,217.572 299.438,229.572 296,242.5C 293.904,246.135 290.737,248.135 286.5,248.5 Z"/></g>
<g><path style="opacity:1" fill="#e6e7e8" d="M 112.5,244.5 C 123.505,244.333 134.505,244.5 145.5,245C 151.603,248.04 153.769,252.874 152,259.5C 150.5,262.333 148.333,264.5 145.5,266C 134.5,266.667 123.5,266.667 112.5,266C 103.221,258.836 103.221,251.67 112.5,244.5 Z"/></g>
<g><path style="opacity:1" fill="#e6e7e8" d="M 365.5,244.5 C 376.91,244.067 388.244,244.567 399.5,246C 405.864,250.34 407.031,255.84 403,262.5C 401.421,264.041 399.587,265.208 397.5,266C 386.833,266.667 376.167,266.667 365.5,266C 358.878,262.134 357.045,256.634 360,249.5C 361.73,247.598 363.563,245.931 365.5,244.5 Z"/></g>
<g><path style="opacity:1" fill="#5a5a5a" d="M 270.5,248.5 C 275.213,249.709 279.879,249.709 284.5,248.5C 284.19,251.713 284.523,254.713 285.5,257.5C 286.092,273.515 286.592,289.515 287,305.5C 284.646,311.095 280.479,312.928 274.5,311C 271.09,307.954 269.756,304.121 270.5,299.5C 271.22,285.836 271.887,272.17 272.5,258.5C 272.409,254.902 271.743,251.569 270.5,248.5 Z"/></g>
<g><path style="opacity:1" fill="#5b5a59" d="M 221.5,249.5 C 225.833,249.5 230.167,249.5 234.5,249.5C 235.424,268.497 235.924,287.497 236,306.5C 232.726,311.738 228.226,312.904 222.5,310C 221.874,309.25 221.374,308.416 221,307.5C 220.747,288.166 220.914,268.833 221.5,249.5 Z"/></g>
<g><path style="opacity:1" fill="#9a7840" d="M 284.5,248.5 C 285.167,248.5 285.833,248.5 286.5,248.5C 285.597,251.391 285.264,254.391 285.5,257.5C 284.523,254.713 284.19,251.713 284.5,248.5 Z"/></g>
<g><path style="opacity:1" fill="#e6e7e8" d="M 152.5,301.5 C 165.151,300.826 169.651,306.492 166,318.5C 157.698,324.792 148.864,330.292 139.5,335C 128.409,336.524 123.575,331.691 125,320.5C 126.046,318.91 127.213,317.41 128.5,316C 136.73,311.392 144.73,306.559 152.5,301.5 Z"/></g>
<g><path style="opacity:1" fill="#e6e7e8" d="M 350.5,301.5 C 352.857,301.337 355.19,301.503 357.5,302C 365.995,306.413 374.328,311.08 382.5,316C 387.232,321.035 387.732,326.535 384,332.5C 380.239,335.243 376.072,336.076 371.5,335C 362.136,330.292 353.302,324.792 345,318.5C 341.644,310.937 343.477,305.27 350.5,301.5 Z"/></g>
<g><path style="opacity:1" fill="#e6e7e8" d="M 193.5,343.5 C 204.749,341.68 209.916,346.347 209,357.5C 204.587,365.995 199.92,374.328 195,382.5C 189.889,387.134 184.389,387.634 178.5,384C 175.757,380.239 174.924,376.072 176,371.5C 181.093,361.634 186.927,352.301 193.5,343.5 Z"/></g>
<g><path style="opacity:1" fill="#e6e7e8" d="M 307.5,343.5 C 315.051,342.026 320.551,344.693 324,351.5C 327.667,358.167 331.333,364.833 335,371.5C 336.833,383 332,387.833 320.5,386C 318.91,384.954 317.41,383.787 316,382.5C 311.08,374.328 306.413,365.995 302,357.5C 300.814,351.553 302.647,346.887 307.5,343.5 Z"/></g>
<g><path style="opacity:1" fill="#e6e7e8" d="M 251.5,358.5 C 258.034,357.502 262.868,359.836 266,365.5C 266.667,376.167 266.667,386.833 266,397.5C 262.128,405.518 256.294,407.351 248.5,403C 246.683,401.2 245.516,399.034 245,396.5C 244.333,386.167 244.333,375.833 245,365.5C 246.694,362.642 248.861,360.309 251.5,358.5 Z"/></g>
<g><path style="opacity:1" fill="#ffc61c" d="M 106.5,396.5 C 112.488,396.664 113.821,399.164 110.5,404C 104.403,404.147 103.07,401.647 106.5,396.5 Z"/></g>
</svg>
