<?xml version="1.0" encoding="UTF-8"?>
<!DOCTYPE svg PUBLIC "-//W3C//DTD SVG 1.1//EN" "http://www.w3.org/Graphics/SVG/1.1/DTD/svg11.dtd">
<svg xmlns="http://www.w3.org/2000/svg" version="1.1" width="512px" height="512px" style="shape-rendering:geometricPrecision; text-rendering:geometricPrecision; image-rendering:optimizeQuality; fill-rule:evenodd; clip-rule:evenodd" xmlns:xlink="http://www.w3.org/1999/xlink">
<g><path style="opacity:1" fill="#5aaae6" d="M 511.5,112.5 C 511.5,136.167 511.5,159.833 511.5,183.5C 340.833,183.5 170.167,183.5 -0.5,183.5C -0.5,159.833 -0.5,136.167 -0.5,112.5C 2.64896,104.519 8.31563,99.0191 16.5,96C 175.833,95.3333 335.167,95.3333 494.5,96C 502.684,99.0191 508.351,104.519 511.5,112.5 Z"/></g>
<g><path style="opacity:1" fill="#57565c" d="M 124.5,135.5 C 211.501,135.333 298.501,135.5 385.5,136C 391.462,138.405 392.962,142.571 390,148.5C 388.829,149.893 387.329,150.727 385.5,151C 298.5,151.667 211.5,151.667 124.5,151C 117.889,145.798 117.889,140.631 124.5,135.5 Z"/></g>
<g><path style="opacity:1" fill="#fed9aa" d="M -0.5,183.5 C 170.167,183.5 340.833,183.5 511.5,183.5C 511.5,255.167 511.5,326.833 511.5,398.5C 508.351,406.481 502.684,411.981 494.5,415C 335.167,415.667 175.833,415.667 16.5,415C 8.31563,411.981 2.64896,406.481 -0.5,398.5C -0.5,326.833 -0.5,255.167 -0.5,183.5 Z"/></g>
<g><path style="opacity:1" fill="#5baae6" d="M 431.5,324.5 C 428.185,325.329 424.852,326.162 421.5,327C 406.145,338.648 391.145,338.314 376.5,326C 373.413,325.741 370.413,325.241 367.5,324.5C 353.309,319.157 345.642,308.824 344.5,293.5C 334.751,282.429 332.918,270.096 339,256.5C 340.673,253.999 342.507,251.666 344.5,249.5C 346.472,229.528 357.472,218.528 377.5,216.5C 389.887,205.923 403.22,204.756 417.5,213C 422.015,216.81 427.348,218.81 433.5,219C 446.608,224.944 453.608,235.111 454.5,249.5C 465.077,261.887 466.244,275.22 458,289.5C 454.19,294.015 452.19,299.348 452,305.5C 448.19,315.145 441.357,321.478 431.5,324.5 Z"/></g>
<g><path style="opacity:1" fill="#57565c" d="M 156.5,223.5 C 184.835,223.333 213.169,223.5 241.5,224C 247.462,226.405 248.962,230.571 246,236.5C 244.829,237.893 243.329,238.727 241.5,239C 213.167,239.667 184.833,239.667 156.5,239C 149.889,233.798 149.889,228.631 156.5,223.5 Z"/></g>
<g><path style="opacity:1" fill="#95c7ee" d="M 391.5,239.5 C 409.503,237.248 422.337,244.248 430,260.5C 434.733,281.202 427.233,295.369 407.5,303C 387.384,305.865 374.217,297.699 368,278.5C 365.625,259.237 373.458,246.237 391.5,239.5 Z"/></g>
<g><path style="opacity:1" fill="#57565c" d="M 116.5,255.5 C 174.168,255.333 231.834,255.5 289.5,256C 295.462,258.405 296.962,262.571 294,268.5C 292.829,269.893 291.329,270.727 289.5,271C 231.833,271.667 174.167,271.667 116.5,271C 109.889,265.798 109.889,260.631 116.5,255.5 Z"/></g>
<g><path style="opacity:1" fill="#57565c" d="M 92.5,287.5 C 158.168,287.333 223.834,287.5 289.5,288C 295.462,290.405 296.962,294.571 294,300.5C 292.829,301.893 291.329,302.727 289.5,303C 223.833,303.667 158.167,303.667 92.5,303C 85.889,297.798 85.889,292.631 92.5,287.5 Z"/></g>
<g><path style="opacity:1" fill="#57565c" d="M 92.5,319.5 C 158.168,319.333 223.834,319.5 289.5,320C 295.462,322.405 296.962,326.571 294,332.5C 292.829,333.893 291.329,334.727 289.5,335C 223.833,335.667 158.167,335.667 92.5,335C 85.889,329.798 85.889,324.631 92.5,319.5 Z"/></g>
<g><path style="opacity:1" fill="#57565c" d="M 367.5,324.5 C 370.413,325.241 373.413,325.741 376.5,326C 391.145,338.314 406.145,338.648 421.5,327C 424.852,326.162 428.185,325.329 431.5,324.5C 431.667,342.503 431.5,360.503 431,378.5C 427.987,383.535 423.82,384.702 418.5,382C 412.302,377.637 405.969,373.47 399.5,369.5C 392.5,374 385.5,378.5 378.5,383C 374.82,384.027 371.653,383.194 369,380.5C 367.526,361.927 367.026,343.26 367.5,324.5 Z"/></g>
<g><path style="opacity:1" fill="#57565c" d="M 92.5,351.5 C 150.168,351.333 207.834,351.5 265.5,352C 271.462,354.405 272.962,358.571 270,364.5C 268.829,365.893 267.329,366.727 265.5,367C 207.833,367.667 150.167,367.667 92.5,367C 85.889,361.798 85.889,356.631 92.5,351.5 Z"/></g>
</svg>
