<?xml version="1.0" encoding="UTF-8"?>
<!DOCTYPE svg PUBLIC "-//W3C//DTD SVG 1.1//EN" "http://www.w3.org/Graphics/SVG/1.1/DTD/svg11.dtd">
<svg xmlns="http://www.w3.org/2000/svg" version="1.1" width="512px" height="512px" style="shape-rendering:geometricPrecision; text-rendering:geometricPrecision; image-rendering:optimizeQuality; fill-rule:evenodd; clip-rule:evenodd" xmlns:xlink="http://www.w3.org/1999/xlink">
<g><path style="opacity:0.999" fill="#454b54" d="M 353.5,447.5 C 353.984,442.177 356.651,438.344 361.5,436C 368.833,435.667 376.167,435.333 383.5,435C 394.667,431.833 401.833,424.667 405,413.5C 405.667,302.5 405.667,191.5 405,80.5C 401.404,69.904 394.238,63.0707 383.5,60C 297.833,59.3333 212.167,59.3333 126.5,60C 117.484,63.0152 110.984,68.8486 107,77.5C 105.34,188.777 105.006,300.111 106,411.5C 108.173,423.344 115.007,431.177 126.5,435C 173.167,435.333 219.833,435.667 266.5,436C 272.015,437.862 275.015,441.695 275.5,447.5C 275.856,452.952 273.523,456.785 268.5,459C 220.167,459.667 171.833,459.667 123.5,459C 101.448,453.949 87.6151,440.449 82,418.5C 81.3333,304.5 81.3333,190.5 82,76.5C 87.6151,54.5513 101.448,41.0513 123.5,36C 167.5,35.8333 211.5,35.6667 255.5,35.5C 301.203,35.3459 346.87,35.8459 392.5,37C 410.333,42.8333 422.167,54.6667 428,72.5C 429.657,187.465 429.99,302.465 429,417.5C 423.833,440 410,453.833 387.5,459C 378.5,459.667 369.5,459.667 360.5,459C 355.477,456.785 353.144,452.952 353.5,447.5 Z"/></g>
<g><path style="opacity:1" fill="#fefefe" d="M 353.5,447.5 C 349.833,447.5 346.167,447.5 342.5,447.5C 342.334,443.486 342.501,439.486 343,435.5C 362.377,421.395 370.044,402.395 366,378.5C 355.085,346.255 332.918,333.421 299.5,340C 269.724,353.722 258.891,376.555 267,408.5C 271.002,419.498 277.669,428.498 287,435.5C 287.499,439.486 287.666,443.486 287.5,447.5C 283.5,447.5 279.5,447.5 275.5,447.5C 275.015,441.695 272.015,437.862 266.5,436C 219.833,435.667 173.167,435.333 126.5,435C 115.007,431.177 108.173,423.344 106,411.5C 105.006,300.111 105.34,188.777 107,77.5C 110.984,68.8486 117.484,63.0152 126.5,60C 212.167,59.3333 297.833,59.3333 383.5,60C 394.238,63.0707 401.404,69.904 405,80.5C 405.667,191.5 405.667,302.5 405,413.5C 401.833,424.667 394.667,431.833 383.5,435C 376.167,435.333 368.833,435.667 361.5,436C 356.651,438.344 353.984,442.177 353.5,447.5 Z"/></g>
<g><path style="opacity:1" fill="#c7d7e2" d="M 145.5,123.5 C 215.834,123.333 286.167,123.5 356.5,124C 364.864,127.234 367.364,133.068 364,141.5C 362.125,144.187 359.625,146.021 356.5,147C 286.167,147.667 215.833,147.667 145.5,147C 138.201,143.105 136.034,137.272 139,129.5C 140.914,127.144 143.081,125.144 145.5,123.5 Z"/></g>
<g><path style="opacity:1" fill="#c7d7e2" d="M 145.5,183.5 C 215.834,183.333 286.167,183.5 356.5,184C 364.864,187.234 367.364,193.068 364,201.5C 362.125,204.187 359.625,206.021 356.5,207C 286.167,207.667 215.833,207.667 145.5,207C 138.201,203.105 136.034,197.272 139,189.5C 140.914,187.144 143.081,185.144 145.5,183.5 Z"/></g>
<g><path style="opacity:1" fill="#c7d7e2" d="M 145.5,243.5 C 179.168,243.333 212.835,243.5 246.5,244C 254.864,247.234 257.364,253.068 254,261.5C 252.125,264.187 249.625,266.021 246.5,267C 212.833,267.667 179.167,267.667 145.5,267C 138.201,263.105 136.034,257.272 139,249.5C 140.914,247.144 143.081,245.144 145.5,243.5 Z"/></g>
<g><path style="opacity:0.995" fill="#f1c0c3" d="M 342.5,447.5 C 342.5,457.5 342.5,467.5 342.5,477.5C 333.295,474.429 324.295,470.763 315.5,466.5C 306.358,470.741 297.025,474.407 287.5,477.5C 287.5,467.5 287.5,457.5 287.5,447.5C 287.666,443.486 287.499,439.486 287,435.5C 277.669,428.498 271.002,419.498 267,408.5C 258.891,376.555 269.724,353.722 299.5,340C 332.918,333.421 355.085,346.255 366,378.5C 370.044,402.395 362.377,421.395 343,435.5C 342.501,439.486 342.334,443.486 342.5,447.5 Z"/></g>
<g><path style="opacity:1" fill="#fefefe" d="M 309.5,361.5 C 325.298,360.147 336.131,366.814 342,381.5C 345.204,394.279 342.037,405.113 332.5,414C 312.788,424.617 298.288,419.783 289,399.5C 285.659,381.174 292.492,368.507 309.5,361.5 Z"/></g>
</svg>
