<?xml version="1.0" encoding="UTF-8"?>
<!DOCTYPE svg PUBLIC "-//W3C//DTD SVG 1.1//EN" "http://www.w3.org/Graphics/SVG/1.1/DTD/svg11.dtd">
<svg xmlns="http://www.w3.org/2000/svg" version="1.1" width="512px" height="512px" style="shape-rendering:geometricPrecision; text-rendering:geometricPrecision; image-rendering:optimizeQuality; fill-rule:evenodd; clip-rule:evenodd" xmlns:xlink="http://www.w3.org/1999/xlink">
<g><path style="opacity:0.995" fill="#ffae55" d="M 373.5,153.5 C 294.826,132.227 216.159,132.227 137.5,153.5C 137.333,138.163 137.5,122.83 138,107.5C 143.331,75.3373 160.831,52.5039 190.5,39C 211.802,31.7159 233.635,26.8826 256,24.5C 277.314,26.7031 298.148,31.2031 318.5,38C 346.253,49.7604 364.086,70.2604 372,99.5C 373.416,117.458 373.916,135.458 373.5,153.5 Z"/></g>
<g><path style="opacity:1" fill="#ffe0c4" d="M 235.5,73.5 C 248.504,73.3334 261.504,73.5001 274.5,74C 286.186,78.8705 289.352,87.0371 284,98.5C 281.736,101.433 278.902,103.6 275.5,105C 261.833,105.667 248.167,105.667 234.5,105C 224.749,99.0802 222.249,90.9136 227,80.5C 229.441,77.5464 232.275,75.2131 235.5,73.5 Z"/></g>
<g><path style="opacity:0.996" fill="#fec892" d="M 373.5,153.5 C 378.554,159.247 383.387,165.247 388,171.5C 389.122,175.923 387.622,178.923 383.5,180.5C 377.741,179.581 372.074,178.247 366.5,176.5C 358.469,173.448 350.135,170.948 341.5,169C 284.162,157.758 226.828,157.758 169.5,169C 161.378,170.863 153.378,173.03 145.5,175.5C 139.892,177.369 134.225,179.036 128.5,180.5C 124.891,180.225 122.891,178.225 122.5,174.5C 126.364,166.644 131.364,159.644 137.5,153.5C 216.159,132.227 294.826,132.227 373.5,153.5 Z"/></g>
<g><path style="opacity:0.999" fill="#f6e5d4" d="M 366.5,176.5 C 366.532,196.322 364.866,215.989 361.5,235.5C 358.411,254.465 351.078,271.465 339.5,286.5C 327.578,297.471 314.244,306.471 299.5,313.5C 270.15,325.406 240.817,325.406 211.5,313.5C 205.23,309.692 198.897,305.859 192.5,302C 185.983,296.976 179.65,291.809 173.5,286.5C 161.802,271.429 154.135,254.429 150.5,235.5C 148.928,221.831 147.262,208.164 145.5,194.5C 144.433,188.099 144.433,181.765 145.5,175.5C 153.378,173.03 161.378,170.863 169.5,169C 226.828,157.758 284.162,157.758 341.5,169C 350.135,170.948 358.469,173.448 366.5,176.5 Z"/></g>
<g><path style="opacity:0.987" fill="#e8d3c1" d="M 145.5,175.5 C 144.433,181.765 144.433,188.099 145.5,194.5C 147.262,208.164 148.928,221.831 150.5,235.5C 139.289,236.115 131.122,231.448 126,221.5C 124.403,210.573 124.069,199.573 125,188.5C 125.906,185.69 127.073,183.024 128.5,180.5C 134.225,179.036 139.892,177.369 145.5,175.5 Z"/></g>
<g><path style="opacity:0.988" fill="#e8d3c1" d="M 366.5,176.5 C 372.074,178.247 377.741,179.581 383.5,180.5C 386.851,187.763 388.184,195.43 387.5,203.5C 389.2,215.258 385.533,224.758 376.5,232C 371.836,234.582 366.836,235.749 361.5,235.5C 364.866,215.989 366.532,196.322 366.5,176.5 Z"/></g>
<g><path style="opacity:1" fill="#2f2d2b" d="M 203.5,177.5 C 213.572,176.31 223.072,177.977 232,182.5C 232.986,184.925 232.319,186.591 230,187.5C 218.333,182.167 206.667,182.167 195,187.5C 192.681,186.591 192.014,184.925 193,182.5C 196.462,180.606 199.962,178.939 203.5,177.5 Z"/></g>
<g><path style="opacity:1" fill="#32302e" d="M 289.5,177.5 C 299.592,176.564 309.259,178.064 318.5,182C 320.006,184.825 319.173,186.658 316,187.5C 304.469,182.186 292.969,182.186 281.5,187.5C 278.754,186.904 277.92,185.237 279,182.5C 282.457,180.526 285.957,178.86 289.5,177.5 Z"/></g>
<g><path style="opacity:1" fill="#312e2d" d="M 210.5,198.5 C 219.234,199.611 223.567,204.611 223.5,213.5C 224.057,222.084 220.39,227.751 212.5,230.5C 204.61,227.751 200.943,222.084 201.5,213.5C 201.643,206.709 204.643,201.709 210.5,198.5 Z"/></g>
<g><path style="opacity:1" fill="#2f2c2b" d="M 294.5,199.5 C 301.617,198.14 306.451,200.807 309,207.5C 310.061,213.724 309.394,219.724 307,225.5C 299.755,231.596 293.755,230.596 289,222.5C 285.623,213.428 287.457,205.761 294.5,199.5 Z"/></g>
<g><path style="opacity:1" fill="#f5f5f5" d="M 206.5,205.5 C 213.004,205.138 214.671,207.638 211.5,213C 204.745,213.756 203.078,211.256 206.5,205.5 Z"/></g>
<g><path style="opacity:1" fill="#f2f2f2" d="M 292.5,205.5 C 299.158,204.344 301.158,206.844 298.5,213C 291.75,214.469 289.75,211.969 292.5,205.5 Z"/></g>
<g><path style="opacity:1" fill="#34312f" d="M 233.5,270.5 C 234.552,270.351 235.552,270.517 236.5,271C 248.822,281.962 261.489,282.295 274.5,272C 276.167,271.333 277.833,271.333 279.5,272C 280.022,272.561 280.355,273.228 280.5,274C 266.336,287.59 251.003,288.924 234.5,278C 231.034,275.806 230.7,273.306 233.5,270.5 Z"/></g>
<g><path style="opacity:0.999" fill="#6b6b6b" d="M 173.5,286.5 C 179.65,291.809 185.983,296.976 192.5,302C 198.897,305.859 205.23,309.692 211.5,313.5C 213.643,322.412 213.976,331.412 212.5,340.5C 195.167,340.5 177.833,340.5 160.5,340.5C 146.5,340.5 132.5,340.5 118.5,340.5C 100.5,340.5 82.5,340.5 64.5,340.5C 64.3334,326.496 64.5001,312.496 65,298.5C 66.8333,292.667 70.6667,288.833 76.5,287C 108.832,286.5 141.165,286.333 173.5,286.5 Z"/></g>
<g><path style="opacity:0.998" fill="#6b6b6b" d="M 339.5,286.5 C 372.229,286.021 404.896,286.521 437.5,288C 442.59,290.751 445.757,294.917 447,300.5C 447.5,313.829 447.667,327.163 447.5,340.5C 429.167,340.5 410.833,340.5 392.5,340.5C 378.5,340.5 364.5,340.5 350.5,340.5C 333.167,340.5 315.833,340.5 298.5,340.5C 298.196,331.416 298.529,322.416 299.5,313.5C 314.244,306.471 327.578,297.471 339.5,286.5 Z"/></g>
<g><path style="opacity:1" fill="#e7d2c0" d="M 211.5,313.5 C 240.817,325.406 270.15,325.406 299.5,313.5C 298.529,322.416 298.196,331.416 298.5,340.5C 298.5,340.833 298.5,341.167 298.5,341.5C 299.372,346.527 300.372,351.527 301.5,356.5C 286.474,370.528 271.474,384.528 256.5,398.5C 255.833,398.5 255.167,398.5 254.5,398.5C 239.526,384.528 224.526,370.528 209.5,356.5C 210.715,351.209 211.715,345.876 212.5,340.5C 213.976,331.412 213.643,322.412 211.5,313.5 Z"/></g>
<g><path style="opacity:1" fill="#ce8d51" d="M 64.5,341.5 C 82.1667,341.5 99.8333,341.5 117.5,341.5C 117.5,355.5 117.5,369.5 117.5,383.5C 96.3313,387.915 78.6646,398.249 64.5,414.5C 64.5,390.167 64.5,365.833 64.5,341.5 Z"/></g>
<g><path style="opacity:1" fill="#b98c5f" d="M 64.5,341.5 C 64.5,341.167 64.5,340.833 64.5,340.5C 82.5,340.5 100.5,340.5 118.5,340.5C 118.5,388.833 118.5,437.167 118.5,485.5C 118.167,485.5 117.833,485.5 117.5,485.5C 117.5,451.5 117.5,417.5 117.5,383.5C 117.5,369.5 117.5,355.5 117.5,341.5C 99.8333,341.5 82.1667,341.5 64.5,341.5 Z"/></g>
<g><path style="opacity:1" fill="#7a7a79" d="M 118.5,340.5 C 132.5,340.5 146.5,340.5 160.5,340.5C 160.5,350.5 160.5,360.5 160.5,370.5C 160.5,408.833 160.5,447.167 160.5,485.5C 146.5,485.5 132.5,485.5 118.5,485.5C 118.5,437.167 118.5,388.833 118.5,340.5 Z"/></g>
<g><path style="opacity:1" fill="#cd8c51" d="M 160.5,340.5 C 177.833,340.5 195.167,340.5 212.5,340.5C 211.715,345.876 210.715,351.209 209.5,356.5C 200.174,358.39 191.174,361.056 182.5,364.5C 175.08,366.188 167.746,368.188 160.5,370.5C 160.5,360.5 160.5,350.5 160.5,340.5 Z"/></g>
<g><path style="opacity:1" fill="#ce8d51" d="M 298.5,341.5 C 315.5,341.5 332.5,341.5 349.5,341.5C 349.5,351.167 349.5,360.833 349.5,370.5C 342.586,368.249 335.586,366.249 328.5,364.5C 319.826,361.056 310.826,358.39 301.5,356.5C 300.372,351.527 299.372,346.527 298.5,341.5 Z"/></g>
<g><path style="opacity:1" fill="#bd8d5d" d="M 298.5,341.5 C 298.5,341.167 298.5,340.833 298.5,340.5C 315.833,340.5 333.167,340.5 350.5,340.5C 350.832,389.003 350.499,437.336 349.5,485.5C 349.5,447.167 349.5,408.833 349.5,370.5C 349.5,360.833 349.5,351.167 349.5,341.5C 332.5,341.5 315.5,341.5 298.5,341.5 Z"/></g>
<g><path style="opacity:1" fill="#7a7979" d="M 350.5,340.5 C 364.5,340.5 378.5,340.5 392.5,340.5C 392.5,354.833 392.5,369.167 392.5,383.5C 392.5,417.5 392.5,451.5 392.5,485.5C 378.167,486.833 363.833,486.833 349.5,485.5C 350.499,437.336 350.832,389.003 350.5,340.5 Z"/></g>
<g><path style="opacity:0.979" fill="#cd8c51" d="M 392.5,340.5 C 410.833,340.5 429.167,340.5 447.5,340.5C 447.5,365.5 447.5,390.5 447.5,415.5C 434.863,400.837 419.196,390.67 400.5,385C 397.832,384.433 395.166,383.933 392.5,383.5C 392.5,369.167 392.5,354.833 392.5,340.5 Z"/></g>
<g><path style="opacity:1" fill="#e89442" d="M 209.5,356.5 C 224.526,370.528 239.526,384.528 254.5,398.5C 254.489,400.017 253.823,401.184 252.5,402C 243.675,408.579 234.675,414.913 225.5,421C 215.729,423.855 208.229,421.021 203,412.5C 196.391,396.295 189.557,380.295 182.5,364.5C 191.174,361.056 200.174,358.39 209.5,356.5 Z"/></g>
<g><path style="opacity:1" fill="#e89442" d="M 301.5,356.5 C 310.826,358.39 319.826,361.056 328.5,364.5C 321.443,380.295 314.609,396.295 308,412.5C 301.023,421.829 292.189,423.996 281.5,419C 273.833,413.333 266.167,407.667 258.5,402C 257.177,401.184 256.511,400.017 256.5,398.5C 271.474,384.528 286.474,370.528 301.5,356.5 Z"/></g>
<g><path style="opacity:1" fill="#fead54" d="M 182.5,364.5 C 189.557,380.295 196.391,396.295 203,412.5C 208.229,421.021 215.729,423.855 225.5,421C 234.675,414.913 243.675,408.579 252.5,402C 253.823,401.184 254.489,400.017 254.5,398.5C 255.167,398.5 255.833,398.5 256.5,398.5C 256.511,400.017 257.177,401.184 258.5,402C 266.167,407.667 273.833,413.333 281.5,419C 292.189,423.996 301.023,421.829 308,412.5C 314.609,396.295 321.443,380.295 328.5,364.5C 335.586,366.249 342.586,368.249 349.5,370.5C 349.5,408.833 349.5,447.167 349.5,485.5C 286.5,485.5 223.5,485.5 160.5,485.5C 160.5,447.167 160.5,408.833 160.5,370.5C 167.746,368.188 175.08,366.188 182.5,364.5 Z"/></g>
<g><path style="opacity:0.995" fill="#fead54" d="M 117.5,383.5 C 117.5,417.5 117.5,451.5 117.5,485.5C 97.8305,485.667 78.1638,485.5 58.5,485C 49.6548,481.319 45.6548,474.652 46.5,465C 47.0652,446.132 53.0652,429.299 64.5,414.5C 78.6646,398.249 96.3313,387.915 117.5,383.5 Z"/></g>
<g><path style="opacity:0.995" fill="#fead55" d="M 392.5,383.5 C 395.166,383.933 397.832,384.433 400.5,385C 419.196,390.67 434.863,400.837 447.5,415.5C 461.485,434.104 466.319,454.77 462,477.5C 459.509,480.832 456.342,483.332 452.5,485C 432.503,485.5 412.503,485.667 392.5,485.5C 392.5,451.5 392.5,417.5 392.5,383.5 Z"/></g>
</svg>
