<?xml version="1.0" encoding="UTF-8"?>
<!DOCTYPE svg PUBLIC "-//W3C//DTD SVG 1.1//EN" "http://www.w3.org/Graphics/SVG/1.1/DTD/svg11.dtd">
<svg xmlns="http://www.w3.org/2000/svg" version="1.1" width="512px" height="512px" style="shape-rendering:geometricPrecision; text-rendering:geometricPrecision; image-rendering:optimizeQuality; fill-rule:evenodd; clip-rule:evenodd" xmlns:xlink="http://www.w3.org/1999/xlink">
<g><path style="opacity:1" fill="#fec81d" d="M 354.5,160.5 C 354.667,232.167 354.5,303.834 354,375.5C 353.31,377.35 352.144,378.684 350.5,379.5C 328.5,379.5 306.5,379.5 284.5,379.5C 284.977,351.813 271.477,336.479 244,333.5C 217.096,336.949 203.929,352.283 204.5,379.5C 186.167,379.5 167.833,379.5 149.5,379.5C 149.977,351.813 136.477,336.479 109,333.5C 82.0958,336.949 68.9291,352.283 69.5,379.5C 47.1642,379.667 24.8308,379.5 2.5,379C 1.30943,378.302 0.309426,377.469 -0.5,376.5C -0.5,284.5 -0.5,192.5 -0.5,100.5C 0.309426,99.5313 1.30943,98.6979 2.5,98C 118.833,97.3333 235.167,97.3333 351.5,98C 352.333,98.8333 353.167,99.6667 354,100.5C 354.5,120.497 354.667,140.497 354.5,160.5 Z"/></g>
<g><path style="opacity:1" fill="#faa228" d="M 268.5,220.5 C 246.497,220.333 224.497,220.5 202.5,221C 195.527,232.45 188.694,243.95 182,255.5C 181.097,256.701 179.931,257.535 178.5,258C 202.5,258.667 226.5,258.667 250.5,258C 255.364,257.218 259.698,255.385 263.5,252.5C 275.707,268.391 273.707,282.225 257.5,294C 255.5,294.667 253.5,295.333 251.5,296C 201.5,296.667 151.5,296.667 101.5,296C 87.5681,290.649 81.4014,280.482 83,265.5C 84.4969,260.523 86.9969,256.19 90.5,252.5C 93.8344,254.834 97.501,256.667 101.5,258C 125.5,258.667 149.5,258.667 173.5,258C 165.8,245.948 158.467,233.615 151.5,221C 129.503,220.5 107.503,220.333 85.5,220.5C 81.8183,220.665 78.1516,220.499 74.5,220C 71.1113,218.028 69.778,215.028 70.5,211C 74.6632,177.167 93.3299,156.167 126.5,148C 142.5,147.833 158.5,147.667 174.5,147.5C 192.865,147.382 211.199,147.882 229.5,149C 261.426,157.758 279.092,178.591 282.5,211.5C 283.15,215.363 281.817,218.196 278.5,220C 275.183,220.498 271.85,220.665 268.5,220.5 Z"/></g>
<g><path style="opacity:0.996" fill="#d00028" d="M 354.5,160.5 C 391.842,161.605 424.509,174.272 452.5,198.5C 429.837,197.697 407.17,197.53 384.5,198C 379.243,200.256 375.743,204.09 374,209.5C 373.333,226.167 373.333,242.833 374,259.5C 376.167,264.333 379.667,267.833 384.5,270C 422.167,270.667 459.833,270.667 497.5,270C 499.607,268.736 500.607,266.903 500.5,264.5C 504.879,274.333 507.879,284.666 509.5,295.5C 508.317,294.496 506.984,293.662 505.5,293C 488.837,288.261 476.67,293.428 469,308.5C 466.899,320.13 471.065,328.63 481.5,334C 490.424,335.58 499.424,335.913 508.5,335C 509.373,333.955 510.373,333.122 511.5,332.5C 511.5,347.167 511.5,361.833 511.5,376.5C 510.691,377.469 509.691,378.302 508.5,379C 494.504,379.5 480.504,379.667 466.5,379.5C 466.865,351.365 453.032,336.032 425,333.5C 398.795,337.549 385.962,352.883 386.5,379.5C 374.5,379.5 362.5,379.5 350.5,379.5C 352.144,378.684 353.31,377.35 354,375.5C 354.5,303.834 354.667,232.167 354.5,160.5 Z"/></g>
<g><path style="opacity:1" fill="#4eb5e3" d="M 452.5,198.5 C 453.922,198.709 455.255,199.209 456.5,200C 476.134,218.13 490.801,239.63 500.5,264.5C 500.607,266.903 499.607,268.736 497.5,270C 459.833,270.667 422.167,270.667 384.5,270C 379.667,267.833 376.167,264.333 374,259.5C 373.333,242.833 373.333,226.167 374,209.5C 375.743,204.09 379.243,200.256 384.5,198C 407.17,197.53 429.837,197.697 452.5,198.5 Z"/></g>
<g><path style="opacity:1" fill="#fffefe" d="M 85.5,220.5 C 107.503,220.333 129.503,220.5 151.5,221C 158.467,233.615 165.8,245.948 173.5,258C 149.5,258.667 125.5,258.667 101.5,258C 97.501,256.667 93.8344,254.834 90.5,252.5C 82.0209,242.895 80.3543,232.229 85.5,220.5 Z"/></g>
<g><path style="opacity:1" fill="#fffcfa" d="M 165.5,220.5 C 173.196,220.169 180.862,220.503 188.5,221.5C 184.75,228.002 180.75,234.335 176.5,240.5C 172.301,234.1 168.634,227.433 165.5,220.5 Z"/></g>
<g><path style="opacity:1" fill="#fffefe" d="M 268.5,220.5 C 273.646,232.229 271.979,242.895 263.5,252.5C 259.698,255.385 255.364,257.218 250.5,258C 226.5,258.667 202.5,258.667 178.5,258C 179.931,257.535 181.097,256.701 182,255.5C 188.694,243.95 195.527,232.45 202.5,221C 224.497,220.5 246.497,220.333 268.5,220.5 Z"/></g>
<g><path style="opacity:1" fill="#50b3e1" d="M 386.5,289.5 C 396.839,289.334 407.172,289.5 417.5,290C 421.487,293.62 421.487,297.287 417.5,301C 407.5,301.667 397.5,301.667 387.5,301C 382.649,297.573 382.316,293.74 386.5,289.5 Z"/></g>
<g><path style="opacity:1" fill="#51b3e1" d="M 509.5,295.5 C 510.01,298.983 510.677,302.316 511.5,305.5C 511.5,314.5 511.5,323.5 511.5,332.5C 510.373,333.122 509.373,333.955 508.5,335C 499.424,335.913 490.424,335.58 481.5,334C 471.065,328.63 466.899,320.13 469,308.5C 476.67,293.428 488.837,288.261 505.5,293C 506.984,293.662 508.317,294.496 509.5,295.5 Z"/></g>
<g><path style="opacity:0.995" fill="#58595a" d="M 149.5,379.5 C 145.043,401.292 131.709,412.625 109.5,413.5C 87.2907,412.625 73.9574,401.292 69.5,379.5C 68.9291,352.283 82.0958,336.949 109,333.5C 136.477,336.479 149.977,351.813 149.5,379.5 Z"/></g>
<g><path style="opacity:0.995" fill="#58595a" d="M 284.5,379.5 C 280.043,401.292 266.709,412.625 244.5,413.5C 222.291,412.625 208.957,401.292 204.5,379.5C 203.929,352.283 217.096,336.949 244,333.5C 271.477,336.479 284.977,351.813 284.5,379.5 Z"/></g>
<g><path style="opacity:0.995" fill="#58585a" d="M 466.5,379.5 C 462.043,401.292 448.709,412.625 426.5,413.5C 404.291,412.625 390.957,401.292 386.5,379.5C 385.962,352.883 398.795,337.549 425,333.5C 453.032,336.032 466.865,351.365 466.5,379.5 Z"/></g>
</svg>
