<?xml version="1.0" encoding="UTF-8"?>
<!DOCTYPE svg PUBLIC "-//W3C//DTD SVG 1.1//EN" "http://www.w3.org/Graphics/SVG/1.1/DTD/svg11.dtd">
<svg xmlns="http://www.w3.org/2000/svg" version="1.1" width="512px" height="512px" style="shape-rendering:geometricPrecision; text-rendering:geometricPrecision; image-rendering:optimizeQuality; fill-rule:evenodd; clip-rule:evenodd" xmlns:xlink="http://www.w3.org/1999/xlink">
<g><path style="opacity:0.961" fill="#8ac2ff" d="M 419.5,97.5 C 423.426,97.0466 426.592,98.3799 429,101.5C 442.841,117.864 456.675,134.198 470.5,150.5C 461.232,151.133 453.732,147.8 448,140.5C 438.278,126.285 428.778,111.951 419.5,97.5 Z"/></g>
<g><path style="opacity:1" fill="#58a1fd" d="M 419.5,97.5 C 428.778,111.951 438.278,126.285 448,140.5C 453.732,147.8 461.232,151.133 470.5,150.5C 473.65,154.119 476.316,158.119 478.5,162.5C 468.445,161.783 458.445,160.616 448.5,159C 444.458,156.984 440.791,154.484 437.5,151.5C 427.167,135.5 416.833,119.5 406.5,103.5C 409.472,101.678 412.472,99.8445 415.5,98C 416.793,97.51 418.127,97.3433 419.5,97.5 Z"/></g>
<g><path style="opacity:1" fill="#f3b538" d="M 406.5,103.5 C 416.833,119.5 427.167,135.5 437.5,151.5C 434.111,168.438 424.444,180.271 408.5,187C 381.318,198.591 354.651,211.258 328.5,225C 329.056,225.383 329.389,225.883 329.5,226.5C 328.391,226.443 327.391,226.11 326.5,225.5C 318.364,223.037 310.031,222.037 301.5,222.5C 325.01,209.744 349.01,198.078 373.5,187.5C 378.949,185.61 383.949,182.943 388.5,179.5C 391.573,177.431 393.906,174.764 395.5,171.5C 404.368,160.329 407.201,147.662 404,133.5C 402.535,128.106 400.869,122.772 399,117.5C 397.559,110.716 400.059,106.049 406.5,103.5 Z"/></g>
<g><path style="opacity:1" fill="#3e4b5a" d="M 358.5,127.5 C 354.695,133.321 354.529,139.321 358,145.5C 366.492,151.747 375.159,157.747 384,163.5C 386.421,168.594 387.921,173.928 388.5,179.5C 383.949,182.943 378.949,185.61 373.5,187.5C 373.167,186.5 372.5,185.833 371.5,185.5C 370.5,184.167 369.5,182.833 368.5,181.5C 368.5,180.833 368.167,180.5 367.5,180.5C 366.173,174.686 364.34,169.019 362,163.5C 352.811,158.24 344.144,152.24 336,145.5C 331.704,136.388 333.871,129.221 342.5,124C 346.167,123.333 349.833,123.333 353.5,124C 355.584,124.697 357.251,125.864 358.5,127.5 Z"/></g>
<g><path style="opacity:0.98" fill="#566473" d="M 358.5,127.5 C 368.545,132.945 378.045,139.278 387,146.5C 390.137,154.745 392.971,163.078 395.5,171.5C 393.906,174.764 391.573,177.431 388.5,179.5C 387.921,173.928 386.421,168.594 384,163.5C 375.159,157.747 366.492,151.747 358,145.5C 354.529,139.321 354.695,133.321 358.5,127.5 Z"/></g>
<g><path style="opacity:1" fill="#ee5253" d="M 43.5,133.5 C 40.7534,137.891 40.92,142.225 44,146.5C 57.072,162.724 70.572,178.39 84.5,193.5C 81.2542,194.054 78.2542,195.054 75.5,196.5C 65.8422,198.111 56.8422,196.278 48.5,191C 34.9582,175.794 21.7915,160.294 9,144.5C 6.89068,139.486 8.05734,135.32 12.5,132C 22.9797,130.966 33.313,131.466 43.5,133.5 Z"/></g>
<g><path style="opacity:0.987" fill="#fe6a6a" d="M 43.5,133.5 C 45.5932,134.045 47.5932,134.878 49.5,136C 57.3709,143.374 65.3709,150.541 73.5,157.5C 73.8588,159.371 74.8588,160.871 76.5,162C 86.4582,169.623 96.1249,177.623 105.5,186C 98.3577,188.213 91.3577,190.713 84.5,193.5C 70.572,178.39 57.072,162.724 44,146.5C 40.92,142.225 40.7534,137.891 43.5,133.5 Z"/></g>
<g><path style="opacity:1" fill="#f3b537" d="M 270.5,140.5 C 255.109,148.128 242.609,159.128 233,173.5C 231.89,179.426 232.556,185.092 235,190.5C 242.336,199.334 249.836,208.001 257.5,216.5C 249.028,224.757 242.528,234.424 238,245.5C 228.932,235.937 220.099,226.27 211.5,216.5C 209.5,213.833 207.167,211.5 204.5,209.5C 195.851,199.572 187.184,189.572 178.5,179.5C 189.444,164.058 203.11,151.558 219.5,142C 236.282,135.208 253.282,134.708 270.5,140.5 Z"/></g>
<g><path style="opacity:0.996" fill="#fdca57" d="M 270.5,140.5 C 298.698,145.443 324.364,156.11 347.5,172.5C 317.027,186.069 287.027,200.736 257.5,216.5C 249.836,208.001 242.336,199.334 235,190.5C 232.556,185.092 231.89,179.426 233,173.5C 242.609,159.128 255.109,148.128 270.5,140.5 Z"/></g>
<g><path style="opacity:1" fill="#3a4754" d="M 178.5,179.5 C 187.184,189.572 195.851,199.572 204.5,209.5C 190.912,212.417 177.245,215.084 163.5,217.5C 154.08,219.48 145.413,217.647 137.5,212C 129.645,205.311 121.645,198.811 113.5,192.5C 111.554,194.044 111.054,196.044 112,198.5C 126.593,210.548 141.093,222.714 155.5,235C 160.434,238.962 165.767,242.129 171.5,244.5C 161.179,245.393 150.845,245.56 140.5,245C 131.805,242.486 124.138,238.152 117.5,232C 103.602,219.927 89.6023,208.093 75.5,196.5C 78.2542,195.054 81.2542,194.054 84.5,193.5C 91.3577,190.713 98.3577,188.213 105.5,186C 96.1249,177.623 86.4582,169.623 76.5,162C 74.8588,160.871 73.8588,159.371 73.5,157.5C 79.9111,151.2 87.5778,149.033 96.5,151C 121.649,166.551 148.983,176.051 178.5,179.5 Z"/></g>
<g><path style="opacity:0.997" fill="#fdc956" d="M 437.5,151.5 C 440.791,154.484 444.458,156.984 448.5,159C 458.445,160.616 468.445,161.783 478.5,162.5C 484.339,174.344 489.005,186.677 492.5,199.5C 482.571,198.452 473.238,200.286 464.5,205C 459.063,209.121 458.23,213.954 462,219.5C 466.386,222.777 471.22,225.11 476.5,226.5C 462.426,229.573 448.426,233.406 434.5,238C 435.416,238.278 436.082,238.778 436.5,239.5C 429.734,238.76 423.734,240.426 418.5,244.5C 406.493,249.5 395.826,256.5 386.5,265.5C 371.86,246.33 352.86,233.33 329.5,226.5C 329.389,225.883 329.056,225.383 328.5,225C 354.651,211.258 381.318,198.591 408.5,187C 424.444,180.271 434.111,168.438 437.5,151.5 Z"/></g>
<g><path style="opacity:1" fill="#c7d2e4" d="M 347.5,172.5 C 355.078,173.023 361.744,175.69 367.5,180.5C 368.167,180.5 368.5,180.833 368.5,181.5C 369.5,182.833 370.5,184.167 371.5,185.5C 366.628,183.792 361.628,183.292 356.5,184C 326.292,197.437 296.958,212.437 268.5,229C 259.334,239.491 252.334,251.325 247.5,264.5C 240.301,264.769 233.634,266.769 227.5,270.5C 220.672,258.039 212.838,245.706 204,233.5C 203.333,230.5 203.333,227.5 204,224.5C 206.028,221.308 208.528,218.641 211.5,216.5C 220.099,226.27 228.932,235.937 238,245.5C 242.528,234.424 249.028,224.757 257.5,216.5C 287.027,200.736 317.027,186.069 347.5,172.5 Z"/></g>
<g><path style="opacity:1" fill="#e3e8f6" d="M 371.5,185.5 C 372.5,185.833 373.167,186.5 373.5,187.5C 349.01,198.078 325.01,209.744 301.5,222.5C 281.379,230.949 268.379,245.615 262.5,266.5C 257.676,264.849 252.676,264.183 247.5,264.5C 252.334,251.325 259.334,239.491 268.5,229C 296.958,212.437 326.292,197.437 356.5,184C 361.628,183.292 366.628,183.792 371.5,185.5 Z"/></g>
<g><path style="opacity:0.996" fill="#566473" d="M 163.5,217.5 C 168.833,226.167 174.167,234.833 179.5,243.5C 176.946,244.388 174.279,244.721 171.5,244.5C 165.767,242.129 160.434,238.962 155.5,235C 141.093,222.714 126.593,210.548 112,198.5C 111.054,196.044 111.554,194.044 113.5,192.5C 121.645,198.811 129.645,205.311 137.5,212C 145.413,217.647 154.08,219.48 163.5,217.5 Z"/></g>
<g><path style="opacity:1" fill="#404c5a" d="M 492.5,199.5 C 492.5,200.167 492.5,200.833 492.5,201.5C 477.398,207.994 476.731,215.661 490.5,224.5C 485.908,225.598 481.241,226.265 476.5,226.5C 471.22,225.11 466.386,222.777 462,219.5C 458.23,213.954 459.063,209.121 464.5,205C 473.238,200.286 482.571,198.452 492.5,199.5 Z"/></g>
<g><path style="opacity:0.969" fill="#566473" d="M 492.5,201.5 C 496.434,207.736 497.268,214.403 495,221.5C 493.729,222.883 492.229,223.883 490.5,224.5C 476.731,215.661 477.398,207.994 492.5,201.5 Z"/></g>
<g><path style="opacity:1" fill="#a9bbd5" d="M 204.5,209.5 C 207.167,211.5 209.5,213.833 211.5,216.5C 208.528,218.641 206.028,221.308 204,224.5C 203.333,227.5 203.333,230.5 204,233.5C 212.838,245.706 220.672,258.039 227.5,270.5C 220.833,275.167 215.167,280.833 210.5,287.5C 209.512,286.205 208.512,284.872 207.5,283.5C 203.19,276.534 198.523,269.867 193.5,263.5C 188.833,256.833 184.167,250.167 179.5,243.5C 174.167,234.833 168.833,226.167 163.5,217.5C 177.245,215.084 190.912,212.417 204.5,209.5 Z"/></g>
<g><path style="opacity:1" fill="#d83941" d="M 301.5,222.5 C 310.031,222.037 318.364,223.037 326.5,225.5C 309.753,235.104 299.253,249.438 295,268.5C 294.219,273.554 294.386,278.554 295.5,283.5C 310.579,290.991 316.579,302.991 313.5,319.5C 301.748,315.125 290.748,309.458 280.5,302.5C 279.287,299.363 277.787,296.363 276,293.5C 271.62,289.452 266.954,285.785 262,282.5C 261.294,278.113 261.46,273.78 262.5,269.5C 262.5,268.5 262.5,267.5 262.5,266.5C 268.379,245.615 281.379,230.949 301.5,222.5 Z"/></g>
<g><path style="opacity:1" fill="#ed5253" d="M 326.5,225.5 C 327.391,226.11 328.391,226.443 329.5,226.5C 352.86,233.33 371.86,246.33 386.5,265.5C 373.683,283.469 364.35,303.136 358.5,324.5C 343.09,325.714 328.09,324.047 313.5,319.5C 316.579,302.991 310.579,290.991 295.5,283.5C 294.386,278.554 294.219,273.554 295,268.5C 299.253,249.438 309.753,235.104 326.5,225.5 Z"/></g>
<g><path style="opacity:1" fill="#f3b537" d="M 436.5,239.5 C 440.869,239.467 445.202,239.8 449.5,240.5C 452.965,252.227 456.631,263.894 460.5,275.5C 454.02,277.658 447.686,279.991 441.5,282.5C 438.579,283.696 435.579,284.696 432.5,285.5C 427.783,273.686 423.45,261.686 419.5,249.5C 419.371,247.784 419.038,246.117 418.5,244.5C 423.734,240.426 429.734,238.76 436.5,239.5 Z"/></g>
<g><path style="opacity:0.981" fill="#fdca56" d="M 449.5,240.5 C 463.956,243.895 476.956,250.228 488.5,259.5C 490.162,263.843 488.828,266.843 484.5,268.5C 476.162,269.669 468.162,272.002 460.5,275.5C 456.631,263.894 452.965,252.227 449.5,240.5 Z"/></g>
<g><path style="opacity:1" fill="#3e4b5a" d="M 94.5,249.5 C 54.373,260.808 32.0396,287.308 27.5,329C 28.649,366.994 46.649,393.328 81.5,408C 86.0506,409.702 90.7173,410.868 95.5,411.5C 59.8018,416.572 31.6352,404.238 11,374.5C 5.65523,364.949 1.8219,354.949 -0.5,344.5C -0.5,335.5 -0.5,326.5 -0.5,317.5C 6.81327,283.016 27.4799,260.849 61.5,251C 72.4246,248.561 83.4246,248.061 94.5,249.5 Z"/></g>
<g><path style="opacity:0.984" fill="#566473" d="M 94.5,249.5 C 117.588,253.867 135.921,265.534 149.5,284.5C 139.144,290.01 128.477,295.01 117.5,299.5C 99.9064,280.95 79.5731,277.45 56.5,289C 37.6155,301.947 30.1155,319.78 34,342.5C 43.81,370.953 63.6433,382.786 93.5,378C 113.02,371.649 125.02,358.482 129.5,338.5C 140.664,337.56 151.997,336.893 163.5,336.5C 159.764,370.727 142.097,394.56 110.5,408C 105.671,409.958 100.671,411.124 95.5,411.5C 90.7173,410.868 86.0506,409.702 81.5,408C 46.649,393.328 28.649,366.994 27.5,329C 32.0396,287.308 54.373,260.808 94.5,249.5 Z"/></g>
<g><path style="opacity:0.977" fill="#576573" d="M 419.5,249.5 C 423.45,261.686 427.783,273.686 432.5,285.5C 436.559,298.845 440.726,312.179 445,325.5C 445.667,328.833 445.667,332.167 445,335.5C 444.303,337.584 443.136,339.251 441.5,340.5C 432.525,315.408 424.025,290.075 416,264.5C 415.333,261.833 415.333,259.167 416,256.5C 417.879,254.473 419.046,252.14 419.5,249.5 Z"/></g>
<g><path style="opacity:1" fill="#3f4b5a" d="M 418.5,244.5 C 419.038,246.117 419.371,247.784 419.5,249.5C 419.046,252.14 417.879,254.473 416,256.5C 415.333,259.167 415.333,261.833 416,264.5C 424.025,290.075 432.525,315.408 441.5,340.5C 434.523,347.054 427.356,347.054 420,340.5C 413.651,324.281 407.817,307.947 402.5,291.5C 402.059,286.673 400.893,282.007 399,277.5C 387.829,294.342 380.162,312.675 376,332.5C 373.717,368.118 388.884,392.952 421.5,407C 427.249,408.973 432.916,410.806 438.5,412.5C 398.835,414.173 369.835,397.507 351.5,362.5C 352.756,349.631 355.089,336.965 358.5,324.5C 364.35,303.136 373.683,283.469 386.5,265.5C 395.826,256.5 406.493,249.5 418.5,244.5 Z"/></g>
<g><path style="opacity:1" fill="#c7d2e5" d="M 193.5,263.5 C 198.523,269.867 203.19,276.534 207.5,283.5C 179.626,295.769 151.959,308.602 124.5,322C 119.506,327.153 119.172,332.653 123.5,338.5C 106.864,339.935 90.1974,340.435 73.5,340C 67.9752,337.081 66.1419,332.581 68,326.5C 68.7065,324.919 69.5399,323.419 70.5,322C 86.193,314.486 101.86,306.986 117.5,299.5C 128.477,295.01 139.144,290.01 149.5,284.5C 164.474,278.012 179.141,271.012 193.5,263.5 Z"/></g>
<g><path style="opacity:1" fill="#3f4b5a" d="M 247.5,264.5 C 252.676,264.183 257.676,264.849 262.5,266.5C 262.5,267.5 262.5,268.5 262.5,269.5C 244.213,280.748 236.713,297.081 240,318.5C 244.382,327.313 251.549,330.813 261.5,329C 263.703,331.372 266.037,333.539 268.5,335.5C 253.219,344.051 239.886,341.551 228.5,328C 222.509,327.501 216.509,327.334 210.5,327.5C 207.151,321.633 205.817,315.299 206.5,308.5C 206.667,305.167 206.833,301.833 207,298.5C 208.182,294.812 209.348,291.145 210.5,287.5C 215.167,280.833 220.833,275.167 227.5,270.5C 233.634,266.769 240.301,264.769 247.5,264.5 Z"/></g>
<g><path style="opacity:0.983" fill="#566473" d="M 484.5,268.5 C 498.711,282.371 507.711,299.038 511.5,318.5C 511.5,327.167 511.5,335.833 511.5,344.5C 502.631,383.701 478.297,406.368 438.5,412.5C 432.916,410.806 427.249,408.973 421.5,407C 388.884,392.952 373.717,368.118 376,332.5C 380.162,312.675 387.829,294.342 399,277.5C 400.893,282.007 402.059,286.673 402.5,291.5C 391.585,298.603 384.752,308.603 382,321.5C 378.672,346.886 388.505,365.052 411.5,376C 440.565,384.711 461.732,375.544 475,348.5C 482.673,316.844 471.506,294.844 441.5,282.5C 447.686,279.991 454.02,277.658 460.5,275.5C 468.162,272.002 476.162,269.669 484.5,268.5 Z M 441.5,282.5 C 471.506,294.844 482.673,316.844 475,348.5C 461.732,375.544 440.565,384.711 411.5,376C 388.505,365.052 378.672,346.886 382,321.5C 384.752,308.603 391.585,298.603 402.5,291.5C 407.817,307.947 413.651,324.281 420,340.5C 427.356,347.054 434.523,347.054 441.5,340.5C 443.136,339.251 444.303,337.584 445,335.5C 445.667,332.167 445.667,328.833 445,325.5C 440.726,312.179 436.559,298.845 432.5,285.5C 435.579,284.696 438.579,283.696 441.5,282.5 Z"/></g>
<g><path style="opacity:1" fill="#576473" d="M 262.5,269.5 C 261.46,273.78 261.294,278.113 262,282.5C 266.954,285.785 271.62,289.452 276,293.5C 277.787,296.363 279.287,299.363 280.5,302.5C 283.777,315.331 280.444,325.998 270.5,334.5C 269.833,334.833 269.167,335.167 268.5,335.5C 266.037,333.539 263.703,331.372 261.5,329C 251.549,330.813 244.382,327.313 240,318.5C 236.713,297.081 244.213,280.748 262.5,269.5 Z"/></g>
<g><path style="opacity:0.998" fill="#e3e8f6" d="M 207.5,283.5 C 208.512,284.872 209.512,286.205 210.5,287.5C 209.348,291.145 208.182,294.812 207,298.5C 206.833,301.833 206.667,305.167 206.5,308.5C 205.817,315.299 207.151,321.633 210.5,327.5C 209.833,327.5 209.167,327.5 208.5,327.5C 197.495,327.333 186.495,327.5 175.5,328C 173.301,330.624 172.968,333.458 174.5,336.5C 170.833,336.5 167.167,336.5 163.5,336.5C 151.997,336.893 140.664,337.56 129.5,338.5C 127.5,338.5 125.5,338.5 123.5,338.5C 119.172,332.653 119.506,327.153 124.5,322C 151.959,308.602 179.626,295.769 207.5,283.5 Z"/></g>
<g><path style="opacity:1" fill="#ed5253" d="M 280.5,302.5 C 290.748,309.458 301.748,315.125 313.5,319.5C 307.205,335.261 295.538,342.094 278.5,340C 276.051,339.275 273.717,338.275 271.5,337C 270.748,336.329 270.414,335.496 270.5,334.5C 280.444,325.998 283.777,315.331 280.5,302.5 Z"/></g>
<g><path style="opacity:0.999" fill="#fe6a6a" d="M 313.5,319.5 C 328.09,324.047 343.09,325.714 358.5,324.5C 355.089,336.965 352.756,349.631 351.5,362.5C 349.93,368.957 348.764,375.624 348,382.5C 347.167,383.333 346.333,384.167 345.5,385C 311.168,385.5 276.835,385.667 242.5,385.5C 230.431,369.038 218.597,352.372 207,335.5C 206.109,332.502 206.609,329.836 208.5,327.5C 209.167,327.5 209.833,327.5 210.5,327.5C 216.509,327.334 222.509,327.501 228.5,328C 239.886,341.551 253.219,344.051 268.5,335.5C 269.167,335.167 269.833,334.833 270.5,334.5C 270.414,335.496 270.748,336.329 271.5,337C 273.717,338.275 276.051,339.275 278.5,340C 295.538,342.094 307.205,335.261 313.5,319.5 Z"/></g>
<g><path style="opacity:1" fill="#ee5253" d="M 208.5,327.5 C 206.609,329.836 206.109,332.502 207,335.5C 218.597,352.372 230.431,369.038 242.5,385.5C 231.162,385.667 219.828,385.5 208.5,385C 196.947,368.954 185.614,352.787 174.5,336.5C 172.968,333.458 173.301,330.624 175.5,328C 186.495,327.5 197.495,327.333 208.5,327.5 Z"/></g>
</svg>
