<?xml version="1.0" encoding="UTF-8"?>
<!DOCTYPE svg PUBLIC "-//W3C//DTD SVG 1.1//EN" "http://www.w3.org/Graphics/SVG/1.1/DTD/svg11.dtd">
<svg xmlns="http://www.w3.org/2000/svg" version="1.1" width="512px" height="512px" style="shape-rendering:geometricPrecision; text-rendering:geometricPrecision; image-rendering:optimizeQuality; fill-rule:evenodd; clip-rule:evenodd" xmlns:xlink="http://www.w3.org/1999/xlink">
<g><path style="opacity:0.996" fill="#ee5261" d="M 511.5,270.5 C 511.5,276.5 511.5,282.5 511.5,288.5C 509.661,298.351 507.995,308.351 506.5,318.5C 488.155,318.627 469.822,318.293 451.5,317.5C 448.459,291.462 433.792,277.795 407.5,276.5C 384.221,278.779 370.554,291.446 366.5,314.5C 288.833,312.519 211.166,310.519 133.5,308.5C 124.917,284.807 107.917,274.307 82.5,277C 63.4819,282.514 52.4819,295.014 49.5,314.5C 48.5655,315.568 48.2322,316.901 48.5,318.5C 32.0909,315.885 15.7576,312.885 -0.5,309.5C -0.5,302.833 -0.5,296.167 -0.5,289.5C 1.83333,287.5 4.16667,285.5 6.5,283.5C 11.1785,283.666 15.8452,283.499 20.5,283C 23.516,281.471 24.8494,278.971 24.5,275.5C 23.1506,265.856 21.984,256.189 21,246.5C 18.0164,243.9 14.5164,242.9 10.5,243.5C 9.19521,234.098 11.0285,225.431 16,217.5C 28.5,203.667 41,189.833 53.5,176C 57.674,173.412 62.0074,171.079 66.5,169C 126.073,150.575 186.74,145.242 248.5,153C 258.295,154.826 267.962,157.159 277.5,160C 312.743,173.638 347.41,188.638 381.5,205C 385.336,207.084 389.003,209.417 392.5,212C 424.885,214.343 455.218,223.343 483.5,239C 496.208,246.639 505.541,257.139 511.5,270.5 Z"/></g>
<g><path style="opacity:1" fill="#69afed" d="M 260.5,165.5 C 260.611,166.117 260.944,166.617 261.5,167C 251.874,187.381 242.541,207.881 233.5,228.5C 223.833,228.5 214.167,228.5 204.5,228.5C 204.5,205.5 204.5,182.5 204.5,159.5C 223.35,159.856 242.017,161.856 260.5,165.5 Z"/></g>
<g><path style="opacity:1" fill="#69b0ed" d="M 173.5,160.5 C 175.167,160.5 176.833,160.5 178.5,160.5C 182.167,160.5 185.833,160.5 189.5,160.5C 189.5,183.167 189.5,205.833 189.5,228.5C 172.163,228.667 154.83,228.5 137.5,228C 148.05,206.354 158.216,184.521 168,162.5C 169.948,161.891 171.782,161.224 173.5,160.5 Z"/></g>
<g><path style="opacity:1" fill="#b97799" d="M 178.5,160.5 C 182.298,159.517 186.298,159.183 190.5,159.5C 190.831,182.673 190.498,205.673 189.5,228.5C 189.5,205.833 189.5,183.167 189.5,160.5C 185.833,160.5 182.167,160.5 178.5,160.5 Z"/></g>
<g><path style="opacity:1" fill="#abcae9" d="M 173.5,160.5 C 171.782,161.224 169.948,161.891 168,162.5C 158.216,184.521 148.05,206.354 137.5,228C 154.83,228.5 172.163,228.667 189.5,228.5C 156.833,229.833 124.167,229.833 91.5,228.5C 92.5,228.5 93.5,228.5 94.5,228.5C 97.5,228.5 100.5,228.5 103.5,228.5C 107.106,228.789 110.606,228.456 114,227.5C 123.226,206.714 132.726,186.047 142.5,165.5C 141.675,164.614 140.675,164.281 139.5,164.5C 150.603,162.387 161.936,161.054 173.5,160.5 Z"/></g>
<g><path style="opacity:1" fill="#6bb0ed" d="M 139.5,164.5 C 140.675,164.281 141.675,164.614 142.5,165.5C 132.726,186.047 123.226,206.714 114,227.5C 110.606,228.456 107.106,228.789 103.5,228.5C 112.831,207.512 122.164,186.512 131.5,165.5C 134.127,164.908 136.794,164.575 139.5,164.5 Z"/></g>
<g><path style="opacity:1" fill="#a9ceed" d="M 131.5,165.5 C 122.164,186.512 112.831,207.512 103.5,228.5C 100.5,228.5 97.5,228.5 94.5,228.5C 103.42,208.16 112.753,187.993 122.5,168C 122.272,167.601 121.938,167.435 121.5,167.5C 124.627,166.419 127.96,165.753 131.5,165.5 Z"/></g>
<g><path style="opacity:1" fill="#6bafec" d="M 121.5,167.5 C 121.938,167.435 122.272,167.601 122.5,168C 112.753,187.993 103.42,208.16 94.5,228.5C 93.5,228.5 92.5,228.5 91.5,228.5C 87.7324,227.863 84.899,225.863 83,222.5C 79.2746,213.382 75.2746,204.382 71,195.5C 67.4583,187.284 69.625,181.117 77.5,177C 91.9723,172.882 106.639,169.715 121.5,167.5 Z"/></g>
<g><path style="opacity:1" fill="#a9ceed" d="M 260.5,165.5 C 263.659,166.331 266.659,167.331 269.5,168.5C 259.948,188.269 250.948,208.269 242.5,228.5C 239.5,228.5 236.5,228.5 233.5,228.5C 242.541,207.881 251.874,187.381 261.5,167C 260.944,166.617 260.611,166.117 260.5,165.5 Z"/></g>
<g><path style="opacity:1" fill="#6bb0ed" d="M 269.5,168.5 C 272.785,168.928 275.785,169.928 278.5,171.5C 269.834,190.495 261.168,209.495 252.5,228.5C 249.167,228.5 245.833,228.5 242.5,228.5C 250.948,208.269 259.948,188.269 269.5,168.5 Z"/></g>
<g><path style="opacity:1" fill="#aacfed" d="M 278.5,171.5 C 285.876,173.4 292.876,176.066 299.5,179.5C 291.594,195.648 283.928,211.981 276.5,228.5C 268.5,228.5 260.5,228.5 252.5,228.5C 261.168,209.495 269.834,190.495 278.5,171.5 Z"/></g>
<g><path style="opacity:1" fill="#6aafed" d="M 299.5,179.5 C 330.791,190.635 359.125,206.635 384.5,227.5C 348.671,228.498 312.671,228.832 276.5,228.5C 283.928,211.981 291.594,195.648 299.5,179.5 Z"/></g>
<g><path style="opacity:1" fill="#b180a4" d="M 384.5,227.5 C 385.043,227.56 385.376,227.893 385.5,228.5C 325.001,229.832 264.668,229.832 204.5,228.5C 214.167,228.5 223.833,228.5 233.5,228.5C 236.5,228.5 239.5,228.5 242.5,228.5C 245.833,228.5 249.167,228.5 252.5,228.5C 260.5,228.5 268.5,228.5 276.5,228.5C 312.671,228.832 348.671,228.498 384.5,227.5 Z"/></g>
<g><path style="opacity:1" fill="#5c5a6c" d="M 102.5,241.5 C 109.508,241.334 116.508,241.5 123.5,242C 127.5,245 127.5,248 123.5,251C 116.5,251.667 109.5,251.667 102.5,251C 98.5993,247.792 98.5993,244.626 102.5,241.5 Z"/></g>
<g><path style="opacity:1" fill="#5c5a6c" d="M 230.5,241.5 C 237.508,241.334 244.508,241.5 251.5,242C 255.482,244.952 255.482,247.952 251.5,251C 244.5,251.667 237.5,251.667 230.5,251C 226.581,247.84 226.581,244.673 230.5,241.5 Z"/></g>
<g><path style="opacity:1" fill="#eeeae9" d="M 10.5,243.5 C 14.5164,242.9 18.0164,243.9 21,246.5C 21.984,256.189 23.1506,265.856 24.5,275.5C 24.8494,278.971 23.516,281.471 20.5,283C 15.8452,283.499 11.1785,283.666 6.5,283.5C 7.90656,270.174 9.23989,256.841 10.5,243.5 Z"/></g>
<g><path style="opacity:1" fill="#f5c662" d="M 473.5,251.5 C 489.764,253.458 499.431,262.458 502.5,278.5C 501.304,286.937 496.637,289.437 488.5,286C 475.251,279.974 468.751,269.808 469,255.5C 470.397,253.93 471.897,252.596 473.5,251.5 Z"/></g>
<g><path style="opacity:0.995" fill="#424451" d="M 133.5,308.5 C 134.926,317.96 134.26,327.293 131.5,336.5C 120.872,356.647 104.205,364.813 81.5,361C 68.257,357.403 58.5904,349.57 52.5,337.5C 51.9834,333.778 51.15,330.112 50,326.5C 49.5012,322.514 49.3345,318.514 49.5,314.5C 52.4819,295.014 63.4819,282.514 82.5,277C 107.917,274.307 124.917,284.807 133.5,308.5 Z"/></g>
<g><path style="opacity:0.995" fill="#424451" d="M 451.5,317.5 C 451.619,324.021 450.619,330.355 448.5,336.5C 440.68,353.011 427.514,361.677 409,362.5C 390.302,361.259 377.135,352.259 369.5,335.5C 367.337,328.681 366.337,321.681 366.5,314.5C 370.554,291.446 384.221,278.779 407.5,276.5C 433.792,277.795 448.459,291.462 451.5,317.5 Z"/></g>
<g><path style="opacity:1" fill="#d8d5da" d="M 84.5,295.5 C 98.8388,293.084 109.005,298.418 115,311.5C 117.91,324.84 113.41,334.674 101.5,341C 82.054,345.717 70.7207,338.217 67.5,318.5C 69.0237,307.659 74.6904,299.993 84.5,295.5 Z"/></g>
<g><path style="opacity:1" fill="#d8d5da" d="M 401.5,295.5 C 422.596,293.257 433.096,302.59 433,323.5C 425.952,341.772 413.452,346.939 395.5,339C 384.895,329.505 382.728,318.339 389,305.5C 392.489,301.162 396.656,297.829 401.5,295.5 Z"/></g>
<g><path style="opacity:0.988" fill="#d9364c" d="M 133.5,308.5 C 211.166,310.519 288.833,312.519 366.5,314.5C 366.337,321.681 367.337,328.681 369.5,335.5C 290.167,335.955 210.834,336.289 131.5,336.5C 134.26,327.293 134.926,317.96 133.5,308.5 Z"/></g>
<g><path style="opacity:0.979" fill="#d9364c" d="M -0.5,309.5 C 15.7576,312.885 32.0909,315.885 48.5,318.5C 48.2322,316.901 48.5655,315.568 49.5,314.5C 49.3345,318.514 49.5012,322.514 50,326.5C 51.15,330.112 51.9834,333.778 52.5,337.5C 37.4985,334.733 22.4985,331.9 7.5,329C 4.93039,323.363 2.26373,317.863 -0.5,312.5C -0.5,311.5 -0.5,310.5 -0.5,309.5 Z"/></g>
<g><path style="opacity:1" fill="#595d6f" d="M 88.5,311.5 C 96.6559,310.821 100.156,314.488 99,322.5C 94.2391,327.812 89.5724,327.812 85,322.5C 83.6631,317.872 84.8298,314.205 88.5,311.5 Z"/></g>
<g><path style="opacity:1" fill="#595d6e" d="M 405.5,311.5 C 415.855,311.038 418.855,315.538 414.5,325C 405.406,328.235 401.239,325.068 402,315.5C 403.376,314.295 404.542,312.962 405.5,311.5 Z"/></g>
<g><path style="opacity:0.981" fill="#d9364c" d="M 451.5,317.5 C 469.822,318.293 488.155,318.627 506.5,318.5C 501.405,325.439 496.072,332.272 490.5,339C 476.468,338.665 462.468,337.831 448.5,336.5C 450.619,330.355 451.619,324.021 451.5,317.5 Z"/></g>
</svg>
