<svg xmlns="http://www.w3.org/2000/svg" width="47.505" height="48" viewBox="0 0 47.505 48">
  <path id="Path_37" data-name="Path 37" d="M49.145,21.826a28.551,28.551,0,0,0-4.811-15.89L42.591,3.323H39.854V45.63l-1.5-4.8a9.614,9.614,0,0,0-7.664-6.591l-4-.615v-.8a10.863,10.863,0,0,0,5.176-7.1,3.845,3.845,0,0,0,3.012-5.366h.328V12.338a6.961,6.961,0,0,0-9.677-9.879,6.945,6.945,0,0,0-8.516,0,6.961,6.961,0,0,0-9.677,9.879V21.9a3.866,3.866,0,0,0,3.34,3.818,10.863,10.863,0,0,0,5.176,7.1v.8l-4,.615a9.613,9.613,0,0,0-7.664,6.591L1.64,49H40.907l-.369-1.178A3.084,3.084,0,0,0,46.048,45.9v-9.29h3.1ZM17.4,34.177v-.614a10.67,10.67,0,0,0,7.742,0v.614a3.771,3.771,0,0,1-3.871,2.436A3.764,3.764,0,0,1,17.4,34.177Zm9.29-14.984a.387.387,0,1,1-.387-.387A.388.388,0,0,1,26.693,19.194Zm-16.258-2.71V18.11a3.844,3.844,0,0,0-1.548.715V14.161H33.661v4.665a3.834,3.834,0,0,0-1.548-.715V16.484Zm6.194,2.71a.387.387,0,1,1-.387-.387A.388.388,0,0,1,16.628,19.194Zm15.451,4.9c.012-.214.033-.425.033-.642V19.723a2.308,2.308,0,0,1-.033,4.37ZM12.757,2.548a5.4,5.4,0,0,1,3.725,1.491l.533.506.533-.506a5.4,5.4,0,0,1,7.451,0l.533.506.533-.506a5.413,5.413,0,0,1,7.789,7.5l-.193.219v.85H25.919v-3.1H24.37v3.1H18.177V6.419H16.628v6.194H8.886v-.85l-.193-.219a5.413,5.413,0,0,1,4.064-9ZM8.886,21.9a2.319,2.319,0,0,1,1.548-2.18v3.729c0,.217.02.428.033.642A2.318,2.318,0,0,1,8.886,21.9Zm3.1,1.548V18.032H14.7a1.913,1.913,0,0,0-.4,1.161,1.935,1.935,0,0,0,3.871,0,1.913,1.913,0,0,0-.4-1.161h6.987a1.917,1.917,0,0,0-.4,1.161,1.935,1.935,0,0,0,3.871,0,1.913,1.913,0,0,0-.4-1.161h2.72v5.419a9.29,9.29,0,0,1-18.581,0ZM5.67,41.294a8.056,8.056,0,0,1,6.423-5.523l4.03-.62a5.169,5.169,0,0,0,2.155,2.271L14.306,40.07v7.382H11.312l.665-5.323-1.536-.192-.69,5.515H3.746ZM32.8,47.452l-.69-5.515-1.536.192.665,5.323H15.854V40.9l4.257-2.838a6.908,6.908,0,0,0,1.162.1,5.417,5.417,0,0,0,5.151-3.01l1.637.252a7.073,7.073,0,0,1-6.788,4.307v1.548a8.71,8.71,0,0,0,8.354-5.614l.827.127a8.057,8.057,0,0,1,6.423,5.523L38.8,47.452ZM44.5,45.9a1.548,1.548,0,0,1-3.1,0v-9.29h3.1Zm3.1-10.839H41.4V4.871h.36l1.283,1.924A27.009,27.009,0,0,1,47.6,21.826Z" transform="translate(-1.64 -1)"/>
</svg>
