<?xml version="1.0" encoding="UTF-8"?>
<!DOCTYPE svg PUBLIC "-//W3C//DTD SVG 1.1//EN" "http://www.w3.org/Graphics/SVG/1.1/DTD/svg11.dtd">
<svg xmlns="http://www.w3.org/2000/svg" version="1.1" width="512px" height="512px" style="shape-rendering:geometricPrecision; text-rendering:geometricPrecision; image-rendering:optimizeQuality; fill-rule:evenodd; clip-rule:evenodd" xmlns:xlink="http://www.w3.org/1999/xlink">
<g><path style="opacity:0.999" fill="#ffc90e" d="M 255.5,75.5 C 255.5,100.5 255.5,125.5 255.5,150.5C 170.167,150.5 84.8333,150.5 -0.5,150.5C -0.5,137.167 -0.5,123.833 -0.5,110.5C 4.65165,92.5157 16.3183,81.0157 34.5,76C 108.166,75.5 181.833,75.3333 255.5,75.5 Z"/></g>
<g><path style="opacity:1" fill="#ffb301" d="M 255.5,75.5 C 329.167,75.3333 402.834,75.5 476.5,76C 494.682,81.0157 506.348,92.5157 511.5,110.5C 511.5,123.833 511.5,137.167 511.5,150.5C 426.167,150.5 340.833,150.5 255.5,150.5C 255.5,125.5 255.5,100.5 255.5,75.5 Z"/></g>
<g><path style="opacity:1" fill="#e5e6f4" d="M -0.5,150.5 C 84.8333,150.5 170.167,150.5 255.5,150.5C 255.5,173.833 255.5,197.167 255.5,220.5C 255.5,222.833 255.5,225.167 255.5,227.5C 255.5,245.5 255.5,263.5 255.5,281.5C 255.5,283.833 255.5,286.167 255.5,288.5C 255.5,306.167 255.5,323.833 255.5,341.5C 255.5,343.833 255.5,346.167 255.5,348.5C 255.5,377.5 255.5,406.5 255.5,435.5C 181.833,435.667 108.166,435.5 34.5,435C 16.3096,429.975 4.64294,418.475 -0.5,400.5C -0.5,317.167 -0.5,233.833 -0.5,150.5 Z"/></g>
<g><path style="opacity:1" fill="#ced0f3" d="M 255.5,150.5 C 340.833,150.5 426.167,150.5 511.5,150.5C 511.5,233.833 511.5,317.167 511.5,400.5C 506.348,418.484 494.682,429.984 476.5,435C 402.834,435.5 329.167,435.667 255.5,435.5C 255.5,406.5 255.5,377.5 255.5,348.5C 257.224,354.056 260.89,357.89 266.5,360C 286.833,360.667 307.167,360.667 327.5,360C 339.072,353.943 341.239,345.443 334,334.5C 331.913,333.206 329.746,332.039 327.5,331C 307.167,330.333 286.833,330.333 266.5,331C 264.004,332.08 261.67,333.414 259.5,335C 258.267,337.314 256.933,339.481 255.5,341.5C 255.5,323.833 255.5,306.167 255.5,288.5C 257.224,294.056 260.89,297.89 266.5,300C 324.5,300.667 382.5,300.667 440.5,300C 452.072,293.943 454.239,285.443 447,274.5C 444.913,273.206 442.746,272.039 440.5,271C 382.5,270.333 324.5,270.333 266.5,271C 264.004,272.08 261.67,273.414 259.5,275C 258.267,277.314 256.933,279.481 255.5,281.5C 255.5,263.5 255.5,245.5 255.5,227.5C 257.224,233.056 260.89,236.89 266.5,239C 324.5,239.667 382.5,239.667 440.5,239C 452.072,232.943 454.239,224.443 447,213.5C 444.913,212.206 442.746,211.039 440.5,210C 382.5,209.333 324.5,209.333 266.5,210C 264.004,211.08 261.67,212.414 259.5,214C 258.267,216.314 256.933,218.481 255.5,220.5C 255.5,197.167 255.5,173.833 255.5,150.5 Z"/></g>
<g><path style="opacity:1" fill="#c56d5a" d="M 130.5,194.5 C 130.5,221.5 130.5,248.5 130.5,275.5C 123.083,274.896 116.083,272.896 109.5,269.5C 90.3362,254.948 85.8362,236.615 96,214.5C 103.914,201.789 115.414,195.122 130.5,194.5 Z"/></g>
<g><path style="opacity:1" fill="#b65d49" d="M 130.5,194.5 C 159.213,197.566 172.713,213.566 171,242.5C 168.521,253.786 162.688,262.786 153.5,269.5C 146.619,273.054 139.286,275.054 131.5,275.5C 131.167,275.5 130.833,275.5 130.5,275.5C 130.5,248.5 130.5,221.5 130.5,194.5 Z"/></g>
<g><path style="opacity:1" fill="#2f4247" d="M 255.5,227.5 C 255.5,225.167 255.5,222.833 255.5,220.5C 256.933,218.481 258.267,216.314 259.5,214C 261.67,212.414 264.004,211.08 266.5,210C 324.5,209.333 382.5,209.333 440.5,210C 442.746,211.039 444.913,212.206 447,213.5C 454.239,224.443 452.072,232.943 440.5,239C 382.5,239.667 324.5,239.667 266.5,239C 260.89,236.89 257.224,233.056 255.5,227.5 Z"/></g>
<g><path style="opacity:1" fill="#30c3fe" d="M 109.5,269.5 C 116.083,272.896 123.083,274.896 130.5,275.5C 130.833,275.5 131.167,275.5 131.5,275.5C 131.5,308.833 131.5,342.167 131.5,375.5C 109.831,375.667 88.1641,375.5 66.5,375C 63.6193,373.749 61.786,371.583 61,368.5C 60.3333,353.833 60.3333,339.167 61,324.5C 65.4628,302.388 77.2961,285.555 96.5,274C 100.474,271.398 104.807,269.898 109.5,269.5 Z"/></g>
<g><path style="opacity:1" fill="#1c9cf6" d="M 153.5,269.5 C 172.833,276.095 186.666,288.762 195,307.5C 197.442,312.933 199.108,318.6 200,324.5C 200.667,339.167 200.667,353.833 200,368.5C 199.167,372 197,374.167 193.5,375C 172.836,375.5 152.169,375.667 131.5,375.5C 131.5,342.167 131.5,308.833 131.5,275.5C 139.286,275.054 146.619,273.054 153.5,269.5 Z"/></g>
<g><path style="opacity:1" fill="#2f4247" d="M 255.5,288.5 C 255.5,286.167 255.5,283.833 255.5,281.5C 256.933,279.481 258.267,277.314 259.5,275C 261.67,273.414 264.004,272.08 266.5,271C 324.5,270.333 382.5,270.333 440.5,271C 442.746,272.039 444.913,273.206 447,274.5C 454.239,285.443 452.072,293.943 440.5,300C 382.5,300.667 324.5,300.667 266.5,300C 260.89,297.89 257.224,294.056 255.5,288.5 Z"/></g>
<g><path style="opacity:1" fill="#2f4247" d="M 255.5,348.5 C 255.5,346.167 255.5,343.833 255.5,341.5C 256.933,339.481 258.267,337.314 259.5,335C 261.67,333.414 264.004,332.08 266.5,331C 286.833,330.333 307.167,330.333 327.5,331C 329.746,332.039 331.913,333.206 334,334.5C 341.239,345.443 339.072,353.943 327.5,360C 307.167,360.667 286.833,360.667 266.5,360C 260.89,357.89 257.224,354.056 255.5,348.5 Z"/></g>
<g><path style="opacity:1" fill="#2f4247" d="M 379.5,331.5 C 399.836,331.333 420.169,331.5 440.5,332C 452.401,337.933 454.567,346.433 447,357.5C 444.913,358.794 442.746,359.961 440.5,361C 420.167,361.667 399.833,361.667 379.5,361C 368.538,355.446 366.038,347.279 372,336.5C 374.479,334.686 376.979,333.019 379.5,331.5 Z"/></g>
</svg>
