<?xml version="1.0" encoding="UTF-8"?>
<!DOCTYPE svg PUBLIC "-//W3C//DTD SVG 1.1//EN" "http://www.w3.org/Graphics/SVG/1.1/DTD/svg11.dtd">
<svg xmlns="http://www.w3.org/2000/svg" version="1.1" width="512px" height="512px" style="shape-rendering:geometricPrecision; text-rendering:geometricPrecision; image-rendering:optimizeQuality; fill-rule:evenodd; clip-rule:evenodd" xmlns:xlink="http://www.w3.org/1999/xlink">
<g><path style="opacity:0.933" fill="#00a5ec" d="M 511.5,151.5 C 511.5,256.833 511.5,362.167 511.5,467.5C 506.581,484.25 495.581,494.75 478.5,499C 329.833,499.667 181.167,499.667 32.5,499C 15.4191,494.75 4.41913,484.25 -0.5,467.5C -0.5,362.167 -0.5,256.833 -0.5,151.5C 3.46132,135.359 13.128,123.859 28.5,117C 52.4252,108.858 76.4252,101.025 100.5,93.5C 100.333,75.8302 100.5,58.1635 101,40.5C 103.608,25.2245 112.442,15.7245 127.5,12C 212.833,11.3333 298.167,11.3333 383.5,12C 396.459,14.9581 404.959,22.7915 409,35.5C 410.436,54.7869 410.936,74.1203 410.5,93.5C 437.543,101.57 464.209,110.736 490.5,121C 501.332,128.642 508.332,138.809 511.5,151.5 Z M 130.5,22.5 C 213.834,22.3333 297.167,22.5 380.5,23C 390.619,25.7287 396.785,32.2287 399,42.5C 399.667,102.833 399.667,163.167 399,223.5C 365.667,259.5 332.333,295.5 299,331.5C 293.167,337.333 287.333,343.167 281.5,349C 264.167,360.333 246.833,360.333 229.5,349C 190.333,307.167 151.167,265.333 112,223.5C 111.333,163.5 111.333,103.5 112,43.5C 114.029,32.7293 120.196,25.7293 130.5,22.5 Z M 97.5,105.5 C 98.5,105.5 99.5,105.5 100.5,105.5C 100.667,140.502 100.5,175.502 100,210.5C 88.8333,198.667 77.6667,186.833 66.5,175C 59.5619,172.94 56.7286,175.44 58,182.5C 111.5,240 165,297.5 218.5,355C 236.702,369.389 256.702,372.389 278.5,364C 283.506,361.499 288.173,358.499 292.5,355C 346,297.5 399.5,240 453,182.5C 454.271,175.44 451.438,172.94 444.5,175C 433.333,186.833 422.167,198.667 411,210.5C 410.5,175.502 410.333,140.502 410.5,105.5C 434.316,112.827 457.982,120.661 481.5,129C 491.118,134.958 497.285,143.458 500,154.5C 500.991,259.21 500.658,363.876 499,468.5C 494.791,479.377 486.957,485.877 475.5,488C 328.833,488.667 182.167,488.667 35.5,488C 24.0428,485.877 16.2095,479.377 12,468.5C 10.3421,363.876 10.0087,259.21 11,154.5C 13.7154,143.458 19.8821,134.958 29.5,129C 52.3019,121.234 74.9686,113.401 97.5,105.5 Z"/></g>
<g><path style="opacity:0.928" fill="#00a5ec" d="M 175.5,102.5 C 228.834,102.333 282.168,102.5 335.5,103C 339.5,106.333 339.5,109.667 335.5,113C 282.167,113.667 228.833,113.667 175.5,113C 171.565,109.504 171.565,106.004 175.5,102.5 Z"/></g>
<g><path style="opacity:0.927" fill="#00a5ec" d="M 174.5,157.5 C 204.169,157.333 233.835,157.5 263.5,158C 266.333,161.663 266,164.996 262.5,168C 233.5,168.667 204.5,168.667 175.5,168C 171.842,164.862 171.509,161.362 174.5,157.5 Z"/></g>
<g><path style="opacity:0.922" fill="#00a4ec" d="M 285.5,157.5 C 302.503,157.333 319.503,157.5 336.5,158C 339.425,161.696 339.092,165.029 335.5,168C 319.167,168.667 302.833,168.667 286.5,168C 281.537,164.944 281.204,161.444 285.5,157.5 Z"/></g>
<g><path style="opacity:0.923" fill="#00a5eb" d="M 174.5,212.5 C 228.501,212.333 282.501,212.5 336.5,213C 339.66,217.2 338.994,220.533 334.5,223C 281.833,223.667 229.167,223.667 176.5,223C 171.939,220.361 171.272,216.861 174.5,212.5 Z"/></g>
<g><path style="opacity:0.927" fill="#01a5ec" d="M 144.5,342.5 C 151.693,341.847 154.193,344.847 152,351.5C 123.167,382.333 94.3333,413.167 65.5,444C 59.122,444.621 56.622,441.788 58,435.5C 87.0387,404.63 115.872,373.63 144.5,342.5 Z"/></g>
<g><path style="opacity:0.927" fill="#01a5ec" d="M 361.5,342.5 C 363.199,342.34 364.866,342.506 366.5,343C 395.701,373.866 424.534,405.033 453,436.5C 453.881,442.286 451.381,444.786 445.5,444C 416.667,413.167 387.833,382.333 359,351.5C 357.927,347.9 358.76,344.9 361.5,342.5 Z"/></g>
</svg>
