<?xml version="1.0" encoding="UTF-8"?>
<!DOCTYPE svg PUBLIC "-//W3C//DTD SVG 1.1//EN" "http://www.w3.org/Graphics/SVG/1.1/DTD/svg11.dtd">
<svg xmlns="http://www.w3.org/2000/svg" version="1.1" width="512px" height="512px" style="shape-rendering:geometricPrecision; text-rendering:geometricPrecision; image-rendering:optimizeQuality; fill-rule:evenodd; clip-rule:evenodd" xmlns:xlink="http://www.w3.org/1999/xlink">
<g><path style="opacity:0.988" fill="#de4d60" d="M 233.5,-0.5 C 248.167,-0.5 262.833,-0.5 277.5,-0.5C 322.972,3.99029 364.639,18.9903 402.5,44.5C 393.895,54.2763 385.062,63.943 376,73.5C 373.256,78.4779 372.089,83.8113 372.5,89.5C 359.908,80.9294 346.575,73.5961 332.5,67.5C 327.567,65.6334 322.567,63.9668 317.5,62.5C 300.5,56.3035 282.833,53.3035 264.5,53.5C 258.69,52.5104 252.69,52.1771 246.5,52.5C 228.173,53.0335 210.506,56.3668 193.5,62.5C 188.285,63.5715 183.285,65.2382 178.5,67.5C 160.714,74.8859 144.381,84.5525 129.5,96.5C 132.233,81.5324 128.733,68.1991 119,56.5C 115.188,52.7021 111.355,49.0355 107.5,45.5C 145.513,19.2733 187.513,3.93994 233.5,-0.5 Z"/></g>
<g><path style="opacity:0.977" fill="#297fb9" d="M 418.5,56.5 C 408.559,64.6067 399.392,73.6067 391,83.5C 390.333,85.8333 390.333,88.1667 391,90.5C 393.295,93.7974 395.962,96.7974 399,99.5C 409.702,88.9651 420.202,78.2984 430.5,67.5C 442.965,54.5348 455.631,41.7015 468.5,29C 480.333,26.1667 484.833,30.6667 482,42.5C 469.298,55.3686 456.465,68.0353 443.5,80.5C 432.702,90.7979 422.035,101.298 411.5,112C 414.203,115.038 417.203,117.705 420.5,120C 422.833,120.667 425.167,120.667 427.5,120C 437.393,111.608 446.393,102.441 454.5,92.5C 467.632,79.8686 480.632,67.0353 493.5,54C 501.796,50.6467 506.796,53.3134 508.5,62C 508.091,64.3207 507.257,66.4874 506,68.5C 492.631,81.7015 479.465,95.0348 466.5,108.5C 456.724,117.105 447.057,125.938 437.5,135C 432.504,137.721 427.171,138.888 421.5,138.5C 416.054,137.446 411.054,135.279 406.5,132C 405.5,131.333 404.5,131.333 403.5,132C 365.632,170.035 327.632,207.868 289.5,245.5C 284.865,233.867 276.865,225.533 265.5,220.5C 300.833,185.833 335.833,150.833 370.5,115.5C 374.012,112.822 377.012,109.655 379.5,106C 376.199,100.899 373.865,95.3988 372.5,89.5C 372.089,83.8113 373.256,78.4779 376,73.5C 385.062,63.943 393.895,54.2763 402.5,44.5C 415.965,31.5353 429.299,18.3686 442.5,5C 450.579,0.918336 455.913,3.25167 458.5,12C 457.863,14.245 457.03,16.4117 456,18.5C 443.298,31.0348 430.798,43.7015 418.5,56.5 Z"/></g>
<g><path style="opacity:0.989" fill="#30a7cb" d="M 107.5,45.5 C 111.355,49.0355 115.188,52.7021 119,56.5C 128.733,68.1991 132.233,81.5324 129.5,96.5C 128.631,98.717 128.298,101.05 128.5,103.5C 125.588,108.263 122.421,112.929 119,117.5C 113.931,121.418 108.764,125.085 103.5,128.5C 101.05,128.298 98.717,128.631 96.5,129.5C 81.5324,132.233 68.1991,128.733 56.5,119C 52.7021,115.188 49.0355,111.355 45.5,107.5C 33.3104,90.0898 28.1437,70.7565 30,49.5C 31.8949,40.6041 37.0615,34.4375 45.5,31C 59.8785,28.2135 73.8785,29.5468 87.5,35C 94.5812,37.8495 101.248,41.3495 107.5,45.5 Z"/></g>
<g><path style="opacity:1" fill="#2f4153" d="M 246.5,52.5 C 252.69,52.1771 258.69,52.5104 264.5,53.5C 264.666,62.8393 264.5,72.1726 264,81.5C 261.367,86.7315 257.201,88.5649 251.5,87C 249.622,85.4571 248.122,83.6238 247,81.5C 246.5,71.8391 246.334,62.1724 246.5,52.5 Z"/></g>
<g><path style="opacity:1" fill="#afd2ef" d="M 246.5,52.5 C 246.334,62.1724 246.5,71.8391 247,81.5C 248.122,83.6238 249.622,85.4571 251.5,87C 257.201,88.5649 261.367,86.7315 264,81.5C 264.5,72.1726 264.666,62.8393 264.5,53.5C 282.833,53.3035 300.5,56.3035 317.5,62.5C 316.21,63.0577 315.377,64.0577 315,65.5C 312.667,72.1667 310.333,78.8333 308,85.5C 305.839,94.662 309.339,98.8287 318.5,98C 320.286,97.2155 321.786,96.0488 323,94.5C 326.671,85.6534 329.837,76.6534 332.5,67.5C 346.575,73.5961 359.908,80.9294 372.5,89.5C 373.865,95.3988 376.199,100.899 379.5,106C 377.012,109.655 374.012,112.822 370.5,115.5C 304.978,108.463 248.312,127.296 200.5,172C 199.552,172.483 198.552,172.649 197.5,172.5C 174.167,149.833 151.167,126.833 128.5,103.5C 128.298,101.05 128.631,98.717 129.5,96.5C 144.381,84.5525 160.714,74.8859 178.5,67.5C 181.163,76.6534 184.329,85.6534 188,94.5C 193.36,100.021 198.36,99.688 203,93.5C 203.667,90.8333 203.667,88.1667 203,85.5C 200.667,78.8333 198.333,72.1667 196,65.5C 195.623,64.0577 194.79,63.0577 193.5,62.5C 210.506,56.3668 228.173,53.0335 246.5,52.5 Z"/></g>
<g><path style="opacity:0.985" fill="#dc4d61" d="M 418.5,56.5 C 422.079,60.6235 426.079,64.2901 430.5,67.5C 420.202,78.2984 409.702,88.9651 399,99.5C 395.962,96.7974 393.295,93.7974 391,90.5C 390.333,88.1667 390.333,85.8333 391,83.5C 399.392,73.6067 408.559,64.6067 418.5,56.5 Z"/></g>
<g><path style="opacity:1" fill="#2e4052" d="M 193.5,62.5 C 194.79,63.0577 195.623,64.0577 196,65.5C 198.333,72.1667 200.667,78.8333 203,85.5C 203.667,88.1667 203.667,90.8333 203,93.5C 198.36,99.688 193.36,100.021 188,94.5C 184.329,85.6534 181.163,76.6534 178.5,67.5C 183.285,65.2382 188.285,63.5715 193.5,62.5 Z"/></g>
<g><path style="opacity:1" fill="#2e4052" d="M 317.5,62.5 C 322.567,63.9668 327.567,65.6334 332.5,67.5C 329.837,76.6534 326.671,85.6534 323,94.5C 321.786,96.0488 320.286,97.2155 318.5,98C 309.339,98.8287 305.839,94.662 308,85.5C 310.333,78.8333 312.667,72.1667 315,65.5C 315.377,64.0577 316.21,63.0577 317.5,62.5 Z"/></g>
<g><path style="opacity:0.985" fill="#dc4d61" d="M 443.5,80.5 C 446.71,84.9206 450.377,88.9206 454.5,92.5C 446.393,102.441 437.393,111.608 427.5,120C 425.167,120.667 422.833,120.667 420.5,120C 417.203,117.705 414.203,115.038 411.5,112C 422.035,101.298 432.702,90.7979 443.5,80.5 Z"/></g>
<g><path style="opacity:1" fill="#2980ba" d="M 128.5,103.5 C 151.167,126.833 174.167,149.833 197.5,172.5C 213.5,188.833 229.5,205.167 245.5,221.5C 233.867,226.135 225.533,234.135 220.5,245.5C 205.833,230.167 190.833,215.167 175.5,200.5C 151.833,176.167 127.833,152.167 103.5,128.5C 108.764,125.085 113.931,121.418 119,117.5C 122.421,112.929 125.588,108.263 128.5,103.5 Z"/></g>
<g><path style="opacity:0.988" fill="#de4d60" d="M 45.5,107.5 C 49.0355,111.355 52.7021,115.188 56.5,119C 68.1991,128.733 81.5324,132.233 96.5,129.5C 92.2541,134.991 88.2541,140.658 84.5,146.5C 80.9969,151.502 77.9969,156.835 75.5,162.5C 66.7513,177.738 60.7513,194.072 57.5,211.5C 55.6247,216.89 54.6247,222.556 54.5,228.5C 51.8461,246.025 51.8461,263.692 54.5,281.5C 54.872,287.732 55.872,293.732 57.5,299.5C 61.1518,316.798 67.1518,333.131 75.5,348.5C 77.9969,354.165 80.9969,359.498 84.5,364.5C 93.4916,379.812 104.825,393.145 118.5,404.5C 122.785,408.971 127.452,412.971 132.5,416.5C 146.052,427.45 161.052,436.117 177.5,442.5C 182.848,445.4 188.515,447.733 194.5,449.5C 211.42,454.817 228.754,457.817 246.5,458.5C 252.5,458.5 258.5,458.5 264.5,458.5C 282.771,457.711 300.438,454.378 317.5,448.5C 322.715,447.428 327.715,445.762 332.5,443.5C 349.396,436.889 364.729,427.889 378.5,416.5C 383.538,413.313 388.205,409.647 392.5,405.5C 406.066,393.608 417.4,379.941 426.5,364.5C 430.293,359.684 433.293,354.35 435.5,348.5C 444.247,333.268 450.247,316.935 453.5,299.5C 455.236,294.089 456.236,288.422 456.5,282.5C 457.958,273.209 458.624,263.709 458.5,254C 458.663,244.951 457.996,236.117 456.5,227.5C 456.246,221.905 455.246,216.572 453.5,211.5C 450.247,194.067 444.247,177.733 435.5,162.5C 433.293,156.65 430.293,151.316 426.5,146.5C 424.833,143.833 423.167,141.167 421.5,138.5C 427.171,138.888 432.504,137.721 437.5,135C 447.057,125.938 456.724,117.105 466.5,108.5C 492.01,146.361 507.01,188.028 511.5,233.5C 511.5,248.167 511.5,262.833 511.5,277.5C 499.018,377.805 447.018,449.305 355.5,492C 330.313,502.297 304.313,508.797 277.5,511.5C 262.833,511.5 248.167,511.5 233.5,511.5C 133.195,499.018 61.6947,447.018 19,355.5C 8.70332,330.313 2.20332,304.313 -0.5,277.5C -0.5,262.833 -0.5,248.167 -0.5,233.5C 3.93994,187.513 19.2733,145.513 45.5,107.5 Z"/></g>
<g><path style="opacity:1" fill="#8fb9e0" d="M 370.5,115.5 C 335.833,150.833 300.833,185.833 265.5,220.5C 258.985,220.197 252.319,220.53 245.5,221.5C 229.5,205.167 213.5,188.833 197.5,172.5C 198.552,172.649 199.552,172.483 200.5,172C 248.312,127.296 304.978,108.463 370.5,115.5 Z"/></g>
<g><path style="opacity:1" fill="#afd2ef" d="M 103.5,128.5 C 127.833,152.167 151.833,176.167 175.5,200.5C 137.781,258.032 129.448,319.699 150.5,385.5C 147.165,382.223 143.165,381.057 138.5,382C 131.597,389.397 124.93,396.897 118.5,404.5C 104.825,393.145 93.4916,379.812 84.5,364.5C 91.6435,360.092 98.9768,355.926 106.5,352C 113.102,346.49 113.102,341.156 106.5,336C 103.833,335.333 101.167,335.333 98.5,336C 90.9257,340.424 83.2591,344.591 75.5,348.5C 67.1518,333.131 61.1518,316.798 57.5,299.5C 66.0861,297.677 74.7528,296.177 83.5,295C 92.2972,289.719 92.6305,284.052 84.5,278C 81.5,277.333 78.5,277.333 75.5,278C 68.5624,279.586 61.5624,280.753 54.5,281.5C 51.8461,263.692 51.8461,246.025 54.5,228.5C 62.795,230.525 71.295,232.192 80,233.5C 89.2606,232.638 92.0939,227.971 88.5,219.5C 86.9716,218.139 85.3049,216.972 83.5,216C 74.6089,214.996 65.9422,213.496 57.5,211.5C 60.7513,194.072 66.7513,177.738 75.5,162.5C 83.2591,166.409 90.9257,170.576 98.5,175C 108.876,176.721 112.709,172.554 110,162.5C 101.893,156.53 93.3929,151.197 84.5,146.5C 88.2541,140.658 92.2541,134.991 96.5,129.5C 98.717,128.631 101.05,128.298 103.5,128.5 Z"/></g>
<g><path style="opacity:1" fill="#8fb9e0" d="M 421.5,138.5 C 423.167,141.167 424.833,143.833 426.5,146.5C 417.607,151.197 409.107,156.53 401,162.5C 398.291,172.554 402.124,176.721 412.5,175C 419.901,170.3 427.568,166.134 435.5,162.5C 444.247,177.733 450.247,194.067 453.5,211.5C 443.767,212.915 434.1,214.748 424.5,217C 419.563,221.644 419.229,226.644 423.5,232C 425.199,232.958 427.033,233.458 429,233.5C 437.027,232.327 445.027,230.993 453,229.5C 454.681,229.392 455.848,228.725 456.5,227.5C 457.996,236.117 458.663,244.951 458.5,254C 458.624,263.709 457.958,273.209 456.5,282.5C 446.384,280.149 436.051,278.649 425.5,278C 418.487,284.598 419.154,290.264 427.5,295C 436.174,296.548 444.84,298.048 453.5,299.5C 450.247,316.935 444.247,333.268 435.5,348.5C 427.568,344.866 419.901,340.7 412.5,336C 403.338,333.839 399.171,337.339 400,346.5C 401.122,348.624 402.622,350.457 404.5,352C 411.979,355.994 419.312,360.161 426.5,364.5C 417.4,379.941 406.066,393.608 392.5,405.5C 386.753,397.58 380.42,390.08 373.5,383C 364.53,379.981 360.03,383.148 360,392.5C 365.999,400.661 372.166,408.661 378.5,416.5C 364.729,427.889 349.396,436.889 332.5,443.5C 330.237,434.213 327.07,425.213 323,416.5C 317.523,410.859 312.523,411.192 308,417.5C 307.333,420.167 307.333,422.833 308,425.5C 310.685,433.515 313.852,441.181 317.5,448.5C 300.438,454.378 282.771,457.711 264.5,458.5C 264.666,448.828 264.5,439.161 264,429.5C 261.367,424.268 257.201,422.435 251.5,424C 249.622,425.543 248.122,427.376 247,429.5C 246.5,439.161 246.334,448.828 246.5,458.5C 228.754,457.817 211.42,454.817 194.5,449.5C 197.041,441.414 199.874,433.414 203,425.5C 204.721,415.124 200.554,411.291 190.5,414C 189.333,415.167 188.167,416.333 187,417.5C 184.59,424.234 182.09,430.901 179.5,437.5C 174.531,431.585 170.031,425.252 166,418.5C 160.847,408.531 156.014,398.531 151.5,388.5C 150.89,387.609 150.557,386.609 150.5,385.5C 129.448,319.699 137.781,258.032 175.5,200.5C 190.833,215.167 205.833,230.167 220.5,245.5C 220.5,252.167 220.5,258.833 220.5,265.5C 216.17,270.663 211.336,275.33 206,279.5C 197.037,292.044 199.204,302.211 212.5,310C 216.167,310.667 219.833,310.667 223.5,310C 226.412,308.76 229.079,307.094 231.5,305C 236.004,299.664 240.671,294.497 245.5,289.5C 251.864,290.795 258.197,290.795 264.5,289.5C 270.702,296.869 277.702,303.369 285.5,309C 295.662,312.502 303.496,309.669 309,300.5C 311.8,292.685 310.467,285.685 305,279.5C 299.664,274.996 294.497,270.329 289.5,265.5C 290.833,258.833 290.833,252.167 289.5,245.5C 327.632,207.868 365.632,170.035 403.5,132C 404.5,131.333 405.5,131.333 406.5,132C 411.054,135.279 416.054,137.446 421.5,138.5 Z"/></g>
<g><path style="opacity:1" fill="#2e4052" d="M 84.5,146.5 C 93.3929,151.197 101.893,156.53 110,162.5C 112.709,172.554 108.876,176.721 98.5,175C 90.9257,170.576 83.2591,166.409 75.5,162.5C 77.9969,156.835 80.9969,151.502 84.5,146.5 Z"/></g>
<g><path style="opacity:1" fill="#2e4052" d="M 426.5,146.5 C 430.293,151.316 433.293,156.65 435.5,162.5C 427.568,166.134 419.901,170.3 412.5,175C 402.124,176.721 398.291,172.554 401,162.5C 409.107,156.53 417.607,151.197 426.5,146.5 Z"/></g>
<g><path style="opacity:1" fill="#2f4053" d="M 57.5,211.5 C 65.9422,213.496 74.6089,214.996 83.5,216C 85.3049,216.972 86.9716,218.139 88.5,219.5C 92.0939,227.971 89.2606,232.638 80,233.5C 71.295,232.192 62.795,230.525 54.5,228.5C 54.6247,222.556 55.6247,216.89 57.5,211.5 Z"/></g>
<g><path style="opacity:1" fill="#2e4053" d="M 453.5,211.5 C 455.246,216.572 456.246,221.905 456.5,227.5C 455.848,228.725 454.681,229.392 453,229.5C 445.027,230.993 437.027,232.327 429,233.5C 427.033,233.458 425.199,232.958 423.5,232C 419.229,226.644 419.563,221.644 424.5,217C 434.1,214.748 443.767,212.915 453.5,211.5 Z"/></g>
<g><path style="opacity:1" fill="#2fa7cb" d="M 265.5,220.5 C 276.865,225.533 284.865,233.867 289.5,245.5C 290.833,252.167 290.833,258.833 289.5,265.5C 285.127,277.538 276.794,285.538 264.5,289.5C 258.197,290.795 251.864,290.795 245.5,289.5C 233.867,284.865 225.533,276.865 220.5,265.5C 220.5,258.833 220.5,252.167 220.5,245.5C 225.533,234.135 233.867,226.135 245.5,221.5C 252.319,220.53 258.985,220.197 265.5,220.5 Z"/></g>
<g><path style="opacity:1" fill="#2a80ba" d="M 220.5,265.5 C 225.533,276.865 233.867,284.865 245.5,289.5C 240.671,294.497 236.004,299.664 231.5,305C 229.079,307.094 226.412,308.76 223.5,310C 219.833,310.667 216.167,310.667 212.5,310C 199.204,302.211 197.037,292.044 206,279.5C 211.336,275.33 216.17,270.663 220.5,265.5 Z"/></g>
<g><path style="opacity:1" fill="#2a80ba" d="M 289.5,265.5 C 294.497,270.329 299.664,274.996 305,279.5C 310.467,285.685 311.8,292.685 309,300.5C 303.496,309.669 295.662,312.502 285.5,309C 277.702,303.369 270.702,296.869 264.5,289.5C 276.794,285.538 285.127,277.538 289.5,265.5 Z"/></g>
<g><path style="opacity:1" fill="#2f4153" d="M 57.5,299.5 C 55.872,293.732 54.872,287.732 54.5,281.5C 61.5624,280.753 68.5624,279.586 75.5,278C 78.5,277.333 81.5,277.333 84.5,278C 92.6305,284.052 92.2972,289.719 83.5,295C 74.7528,296.177 66.0861,297.677 57.5,299.5 Z"/></g>
<g><path style="opacity:1" fill="#2e4053" d="M 456.5,282.5 C 456.236,288.422 455.236,294.089 453.5,299.5C 444.84,298.048 436.174,296.548 427.5,295C 419.154,290.264 418.487,284.598 425.5,278C 436.051,278.649 446.384,280.149 456.5,282.5 Z"/></g>
<g><path style="opacity:1" fill="#2e4052" d="M 84.5,364.5 C 80.9969,359.498 77.9969,354.165 75.5,348.5C 83.2591,344.591 90.9257,340.424 98.5,336C 101.167,335.333 103.833,335.333 106.5,336C 113.102,341.156 113.102,346.49 106.5,352C 98.9768,355.926 91.6435,360.092 84.5,364.5 Z"/></g>
<g><path style="opacity:1" fill="#2e4053" d="M 435.5,348.5 C 433.293,354.35 430.293,359.684 426.5,364.5C 419.312,360.161 411.979,355.994 404.5,352C 402.622,350.457 401.122,348.624 400,346.5C 399.171,337.339 403.338,333.839 412.5,336C 419.901,340.7 427.568,344.866 435.5,348.5 Z"/></g>
<g><path style="opacity:1" fill="#2f4153" d="M 150.5,385.5 C 150.557,386.609 150.89,387.609 151.5,388.5C 151.54,391.425 150.707,394.091 149,396.5C 142.91,402.749 137.41,409.416 132.5,416.5C 127.452,412.971 122.785,408.971 118.5,404.5C 124.93,396.897 131.597,389.397 138.5,382C 143.165,381.057 147.165,382.223 150.5,385.5 Z"/></g>
<g><path style="opacity:1" fill="#2e4053" d="M 392.5,405.5 C 388.205,409.647 383.538,413.313 378.5,416.5C 372.166,408.661 365.999,400.661 360,392.5C 360.03,383.148 364.53,379.981 373.5,383C 380.42,390.08 386.753,397.58 392.5,405.5 Z"/></g>
<g><path style="opacity:1" fill="#afd1ee" d="M 151.5,388.5 C 156.014,398.531 160.847,408.531 166,418.5C 170.031,425.252 174.531,431.585 179.5,437.5C 179.204,439.403 178.537,441.07 177.5,442.5C 161.052,436.117 146.052,427.45 132.5,416.5C 137.41,409.416 142.91,402.749 149,396.5C 150.707,394.091 151.54,391.425 151.5,388.5 Z"/></g>
<g><path style="opacity:1" fill="#2e4052" d="M 194.5,449.5 C 188.515,447.733 182.848,445.4 177.5,442.5C 178.537,441.07 179.204,439.403 179.5,437.5C 182.09,430.901 184.59,424.234 187,417.5C 188.167,416.333 189.333,415.167 190.5,414C 200.554,411.291 204.721,415.124 203,425.5C 199.874,433.414 197.041,441.414 194.5,449.5 Z"/></g>
<g><path style="opacity:1" fill="#2e4052" d="M 332.5,443.5 C 327.715,445.762 322.715,447.428 317.5,448.5C 313.852,441.181 310.685,433.515 308,425.5C 307.333,422.833 307.333,420.167 308,417.5C 312.523,411.192 317.523,410.859 323,416.5C 327.07,425.213 330.237,434.213 332.5,443.5 Z"/></g>
<g><path style="opacity:1" fill="#2e4053" d="M 264.5,458.5 C 258.5,458.5 252.5,458.5 246.5,458.5C 246.334,448.828 246.5,439.161 247,429.5C 248.122,427.376 249.622,425.543 251.5,424C 257.201,422.435 261.367,424.268 264,429.5C 264.5,439.161 264.666,448.828 264.5,458.5 Z"/></g>
</svg>
