<svg xmlns="http://www.w3.org/2000/svg" width="33.888" height="40" viewBox="0 0 33.888 40">
  <g id="noun-delivery-boy-4259299" transform="translate(-11 -2)">
    <g id="Group_138" data-name="Group 138" transform="translate(11 2)">
      <path id="Path_84" data-name="Path 84" d="M18.693,14.992a.925.925,0,0,0,.768.1,39.756,39.756,0,0,1,21.888,0,.624.624,0,0,0,.256.032.96.96,0,0,0,.96-.96A12.169,12.169,0,0,0,24.421,3.568a.031.031,0,0,0-.032.032c-3.04-.416-5.952-.128-8,1.28A3.851,3.851,0,0,0,14.6,8.24C14.661,11.44,18.373,14.8,18.693,14.992ZM17.477,6.48a7.925,7.925,0,0,1,4.512-1.152,17.918,17.918,0,0,1,4.768.7,20.665,20.665,0,0,1,8.8,4.672.951.951,0,0,0,1.376-1.312,22.348,22.348,0,0,0-9.248-5.056,8.629,8.629,0,0,1,2.72-.416,10.265,10.265,0,0,1,10.176,8.96,41.8,41.8,0,0,0-21.12.224c-.96-.9-2.976-3.264-2.944-5.024A1.982,1.982,0,0,1,17.477,6.48Z" transform="translate(-13.445 -2)" fill="#a5a6a8"/>
      <path id="Path_85" data-name="Path 85" d="M27.96,67.57c3.552,0,5.152-2.752,6.56-5.184.1-.16.192-.352.288-.512.928.192,1.792.416,2.656.64,3.808,1.088,5.5,2.3,5.5,6.656a.96.96,0,0,0,1.92,0c0-6.016-3.264-7.456-6.912-8.48a41.249,41.249,0,0,0-5.536-1.184c3.232-1.952,5.792-5.728,6.976-9.7a2.966,2.966,0,0,0,1.952.8c1.76,0,3.2-1.728,3.2-3.84a4.09,4.09,0,0,0-1.44-3.2.957.957,0,1,0-1.184,1.5,2.144,2.144,0,0,1,.7,1.7c0,1.056-.576,1.92-1.28,1.92s-1.28-.864-1.28-1.92a.967.967,0,0,0-.16-.512l-.064-.1a.946.946,0,0,0-1.024-.416.99.99,0,0,0-.736.832C37.592,52.306,33.016,58.93,27.96,58.93a.964.964,0,0,0-.128,1.92l3.424.448c.512.064,1.024.128,1.536.224-1.5,2.56-2.528,4.16-4.864,4.16s-3.392-1.6-4.9-4.224l-.384-.672-.288-.544a.947.947,0,0,0-1.088-.448c-.544.16-1.056.288-1.536.416C14.872,61.49,11,62.482,11,69.17a.96.96,0,0,0,1.92,0c0-5.216,2.432-5.856,7.328-7.136.288-.064.544-.16.832-.224.1.192.224.384.32.576C22.808,64.818,24.408,67.57,27.96,67.57Z" transform="translate(-11 -30.13)" fill="#a5a6a8"/>
      <path id="Path_86" data-name="Path 86" d="M12,51.96c0,2.112,1.44,3.84,3.2,3.84a2.816,2.816,0,0,0,1.952-.8,18.647,18.647,0,0,0,4.256,7.52.993.993,0,0,0,.7.288,1.1,1.1,0,0,0,.672-.256.956.956,0,0,0,.032-1.344,16.765,16.765,0,0,1-4.32-9.28.993.993,0,0,0-.288-.576l-.064-.064a.99.99,0,0,0-1.056-.224.964.964,0,0,0-.608.9c0,1.056-.576,1.92-1.28,1.92s-1.28-.864-1.28-1.92a.96.96,0,1,0-1.92,0Z" transform="translate(-11.68 -35.32)" fill="#a5a6a8"/>
    </g>
  </g>
</svg>
