<?xml version="1.0" encoding="UTF-8"?>
<!DOCTYPE svg PUBLIC "-//W3C//DTD SVG 1.1//EN" "http://www.w3.org/Graphics/SVG/1.1/DTD/svg11.dtd">
<svg xmlns="http://www.w3.org/2000/svg" version="1.1" width="512px" height="512px" style="shape-rendering:geometricPrecision; text-rendering:geometricPrecision; image-rendering:optimizeQuality; fill-rule:evenodd; clip-rule:evenodd" xmlns:xlink="http://www.w3.org/1999/xlink">
<g><path style="opacity:1" fill="#fea732" d="M 63.5,31.5 C 68.8333,31.5 74.1667,31.5 79.5,31.5C 79.5,36.8333 79.5,42.1667 79.5,47.5C 74.1667,47.5 68.8333,47.5 63.5,47.5C 63.5,42.1667 63.5,36.8333 63.5,31.5 Z"/></g>
<g><path style="opacity:1" fill="#fea732" d="M 95.5,31.5 C 119.5,31.5 143.5,31.5 167.5,31.5C 167.5,36.8333 167.5,42.1667 167.5,47.5C 143.5,47.5 119.5,47.5 95.5,47.5C 95.5,42.1667 95.5,36.8333 95.5,31.5 Z"/></g>
<g><path style="opacity:1" fill="#fea732" d="M 95.5,63.5 C 100.833,63.5 106.167,63.5 111.5,63.5C 111.5,68.8333 111.5,74.1667 111.5,79.5C 106.167,79.5 100.833,79.5 95.5,79.5C 95.5,74.1667 95.5,68.8333 95.5,63.5 Z"/></g>
<g><path style="opacity:1" fill="#fea732" d="M 127.5,63.5 C 132.833,63.5 138.167,63.5 143.5,63.5C 143.5,68.8333 143.5,74.1667 143.5,79.5C 138.167,79.5 132.833,79.5 127.5,79.5C 127.5,74.1667 127.5,68.8333 127.5,63.5 Z"/></g>
<g><path style="opacity:1" fill="#fea732" d="M 159.5,63.5 C 175.5,63.5 191.5,63.5 207.5,63.5C 207.5,68.8333 207.5,74.1667 207.5,79.5C 191.5,79.5 175.5,79.5 159.5,79.5C 159.5,74.1667 159.5,68.8333 159.5,63.5 Z"/></g>
<g><path style="opacity:0.992" fill="#77757f" d="M 343.5,135.5 C 327.5,135.5 311.5,135.5 295.5,135.5C 295.5,140.833 295.5,146.167 295.5,151.5C 295.5,164.833 295.5,178.167 295.5,191.5C 295.5,193.833 295.5,196.167 295.5,198.5C 285.467,197.315 276.467,193.648 268.5,187.5C 246.637,168.032 241.47,144.699 253,117.5C 266.684,93.9108 287.184,84.0775 314.5,88C 339.49,93.8239 354.49,109.324 359.5,134.5C 354.208,135.495 348.875,135.828 343.5,135.5 Z"/></g>
<g><path style="opacity:0.999" fill="#ffa733" d="M 205.5,295.5 C 185.5,295.5 165.5,295.5 145.5,295.5C 113.498,295.667 81.4983,295.5 49.5,295C 45,293.167 41.8333,290 40,285.5C 39.3333,233.5 39.3333,181.5 40,129.5C 41.8333,125 45,121.833 49.5,120C 101.5,119.333 153.5,119.333 205.5,120C 210,121.833 213.167,125 215,129.5C 215.667,181.5 215.667,233.5 215,285.5C 212.978,290.02 209.811,293.353 205.5,295.5 Z"/></g>
<g><path style="opacity:1" fill="#feb654" d="M 343.5,135.5 C 343.5,140.833 343.5,146.167 343.5,151.5C 338.167,151.5 332.833,151.5 327.5,151.5C 327.5,148.833 327.5,146.167 327.5,143.5C 322.167,143.5 316.833,143.5 311.5,143.5C 311.5,146.167 311.5,148.833 311.5,151.5C 306.167,151.5 300.833,151.5 295.5,151.5C 295.5,146.167 295.5,140.833 295.5,135.5C 311.5,135.5 327.5,135.5 343.5,135.5 Z"/></g>
<g><path style="opacity:1" fill="#ed8700" d="M 327.5,151.5 C 327.5,154.167 327.5,156.833 327.5,159.5C 322.167,159.5 316.833,159.5 311.5,159.5C 311.5,156.833 311.5,154.167 311.5,151.5C 311.5,148.833 311.5,146.167 311.5,143.5C 316.833,143.5 322.167,143.5 327.5,143.5C 327.5,146.167 327.5,148.833 327.5,151.5 Z"/></g>
<g><path style="opacity:0.993" fill="#ffc476" d="M 295.5,151.5 C 300.833,151.5 306.167,151.5 311.5,151.5C 311.5,154.167 311.5,156.833 311.5,159.5C 316.833,159.5 322.167,159.5 327.5,159.5C 327.5,156.833 327.5,154.167 327.5,151.5C 332.833,151.5 338.167,151.5 343.5,151.5C 345.628,178.368 333.295,191.701 306.5,191.5C 302.833,191.5 299.167,191.5 295.5,191.5C 295.5,178.167 295.5,164.833 295.5,151.5 Z"/></g>
<g><path style="opacity:1" fill="#ec1f24" d="M 268.5,187.5 C 276.467,193.648 285.467,197.315 295.5,198.5C 295.5,196.167 295.5,193.833 295.5,191.5C 299.167,191.5 302.833,191.5 306.5,191.5C 308.037,196.779 309.371,202.112 310.5,207.5C 293.384,209.24 278.718,204.24 266.5,192.5C 266.893,190.716 267.559,189.05 268.5,187.5 Z"/></g>
<g><path style="opacity:1" fill="#e5e7e7" d="M 175.5,207.5 C 175.5,212.833 175.5,218.167 175.5,223.5C 148.833,223.5 122.167,223.5 95.5,223.5C 90.1667,223.5 84.8333,223.5 79.5,223.5C 79.5,212.833 79.5,202.167 79.5,191.5C 111.5,191.5 143.5,191.5 175.5,191.5C 175.5,196.833 175.5,202.167 175.5,207.5 Z"/></g>
<g><path style="opacity:0.988" fill="#fe5023" d="M 266.5,192.5 C 278.718,204.24 293.384,209.24 310.5,207.5C 313.945,217.599 316.945,227.933 319.5,238.5C 311.517,231.812 303.85,224.645 296.5,217C 285.77,212.465 277.603,215.299 272,225.5C 271.501,229.152 271.335,232.818 271.5,236.5C 270.158,242.448 271.658,247.781 276,252.5C 284.754,261.758 293.921,270.425 303.5,278.5C 300.973,284.081 298.639,289.748 296.5,295.5C 277.5,295.5 258.5,295.5 239.5,295.5C 236.27,268.697 240.103,243.03 251,218.5C 255.941,209.605 261.108,200.938 266.5,192.5 Z"/></g>
<g><path style="opacity:1" fill="#ed8700" d="M 175.5,207.5 C 180.833,207.5 186.167,207.5 191.5,207.5C 191.5,218.167 191.5,228.833 191.5,239.5C 159.5,239.5 127.5,239.5 95.5,239.5C 95.5,234.167 95.5,228.833 95.5,223.5C 122.167,223.5 148.833,223.5 175.5,223.5C 175.5,218.167 175.5,212.833 175.5,207.5 Z"/></g>
<g><path style="opacity:1" fill="#fe6142" d="M 319.5,238.5 C 327.316,239.492 335.316,239.826 343.5,239.5C 343.5,250.167 343.5,260.833 343.5,271.5C 331.167,271.5 318.833,271.5 306.5,271.5C 305.448,271.649 304.448,271.483 303.5,271C 293.667,261.167 283.833,251.333 274,241.5C 273.153,239.807 272.32,238.14 271.5,236.5C 271.335,232.818 271.501,229.152 272,225.5C 277.603,215.299 285.77,212.465 296.5,217C 303.85,224.645 311.517,231.812 319.5,238.5 Z"/></g>
<g><path style="opacity:0.988" fill="#3d9ae1" d="M 400.5,271.5 C 392.167,271.5 383.833,271.5 375.5,271.5C 374.167,271.5 372.833,271.5 371.5,271.5C 380.53,267.446 384.363,260.446 383,250.5C 379.987,243.748 374.821,240.081 367.5,239.5C 384.631,234.716 401.964,230.216 419.5,226C 424.212,224.557 428.045,225.723 431,229.5C 431.962,242.928 431.629,256.261 430,269.5C 429.25,270.126 428.416,270.626 427.5,271C 418.506,271.5 409.506,271.666 400.5,271.5 Z"/></g>
<g><path style="opacity:1" fill="#ef2425" d="M 271.5,236.5 C 272.32,238.14 273.153,239.807 274,241.5C 283.833,251.333 293.667,261.167 303.5,271C 304.448,271.483 305.448,271.649 306.5,271.5C 305.695,273.915 304.695,276.249 303.5,278.5C 293.921,270.425 284.754,261.758 276,252.5C 271.658,247.781 270.158,242.448 271.5,236.5 Z"/></g>
<g><path style="opacity:1" fill="#fec377" d="M 343.5,239.5 C 351.5,239.5 359.5,239.5 367.5,239.5C 374.821,240.081 379.987,243.748 383,250.5C 384.363,260.446 380.53,267.446 371.5,271.5C 362.167,271.5 352.833,271.5 343.5,271.5C 343.5,260.833 343.5,250.167 343.5,239.5 Z"/></g>
<g><path style="opacity:1" fill="#1e81ce" d="M 375.5,271.5 C 383.833,271.5 392.167,271.5 400.5,271.5C 401.5,275.5 402.5,279.5 403.5,283.5C 403.5,284.833 403.5,286.167 403.5,287.5C 394.983,287.174 386.65,287.507 378.5,288.5C 376.883,283.067 375.883,277.4 375.5,271.5 Z"/></g>
<g><path style="opacity:0.991" fill="#3c99e1" d="M 403.5,283.5 C 411.668,308.677 419.668,334.01 427.5,359.5C 429.761,367.119 431.928,374.786 434,382.5C 435.838,392.224 434.171,401.224 429,409.5C 424.297,414.035 419.797,418.702 415.5,423.5C 410.5,429.167 405.167,434.5 399.5,439.5C 367.5,439.5 335.5,439.5 303.5,439.5C 303.5,428.833 303.5,418.167 303.5,407.5C 319.5,407.5 335.5,407.5 351.5,407.5C 359.5,407.5 367.5,407.5 375.5,407.5C 380.701,391.23 385.701,374.897 390.5,358.5C 386.369,335.178 382.369,311.845 378.5,288.5C 386.65,287.507 394.983,287.174 403.5,287.5C 403.5,286.167 403.5,284.833 403.5,283.5 Z"/></g>
<g><path style="opacity:0.997" fill="#1e81cd" d="M 145.5,295.5 C 165.5,295.5 185.5,295.5 205.5,295.5C 216.833,295.5 228.167,295.5 239.5,295.5C 239.104,303.253 239.604,310.92 241,318.5C 243.406,322.408 246.572,325.408 250.5,327.5C 237.167,327.5 223.833,327.5 210.5,327.5C 188.831,327.667 167.164,327.5 145.5,327C 138.513,324.193 135.18,319.027 135.5,311.5C 135.302,303.885 138.635,298.551 145.5,295.5 Z"/></g>
<g><path style="opacity:0.998" fill="#56565c" d="M 239.5,295.5 C 258.5,295.5 277.5,295.5 296.5,295.5C 316.078,293.025 328.912,301.025 335,319.5C 335.5,338.164 335.667,356.83 335.5,375.5C 324.833,375.5 314.167,375.5 303.5,375.5C 303.667,361.163 303.5,346.829 303,332.5C 301.773,330.274 299.939,328.774 297.5,328C 281.837,327.5 266.17,327.333 250.5,327.5C 246.572,325.408 243.406,322.408 241,318.5C 239.604,310.92 239.104,303.253 239.5,295.5 Z"/></g>
<g><path style="opacity:0.995" fill="#3d9ae2" d="M 210.5,327.5 C 223.833,327.5 237.167,327.5 250.5,327.5C 266.17,327.333 281.837,327.5 297.5,328C 299.939,328.774 301.773,330.274 303,332.5C 303.5,346.829 303.667,361.163 303.5,375.5C 269.165,375.333 234.832,375.5 200.5,376C 184.884,380.736 176.551,391.236 175.5,407.5C 175.5,418.167 175.5,428.833 175.5,439.5C 164.5,439.5 153.5,439.5 142.5,439.5C 142.5,431.5 142.5,423.5 142.5,415.5C 143.488,410.36 143.821,405.026 143.5,399.5C 149.298,360.038 171.631,336.038 210.5,327.5 Z"/></g>
<g><path style="opacity:1" fill="#2082ce" d="M 427.5,359.5 C 430.385,359.194 433.052,359.527 435.5,360.5C 438.099,368.463 440.599,376.463 443,384.5C 443.904,392.221 442.571,399.554 439,406.5C 434.706,412.627 429.873,418.294 424.5,423.5C 421.5,423.5 418.5,423.5 415.5,423.5C 419.797,418.702 424.297,414.035 429,409.5C 434.171,401.224 435.838,392.224 434,382.5C 431.928,374.786 429.761,367.119 427.5,359.5 Z"/></g>
<g><path style="opacity:0.989" fill="#3c99e2" d="M 435.5,360.5 C 468.626,368.398 485.959,389.398 487.5,423.5C 482.5,423.5 477.5,423.5 472.5,423.5C 456.5,423.5 440.5,423.5 424.5,423.5C 429.873,418.294 434.706,412.627 439,406.5C 442.571,399.554 443.904,392.221 443,384.5C 440.599,376.463 438.099,368.463 435.5,360.5 Z"/></g>
<g><path style="opacity:1" fill="#1e81ce" d="M 303.5,375.5 C 303.5,386.167 303.5,396.833 303.5,407.5C 260.833,407.5 218.167,407.5 175.5,407.5C 176.551,391.236 184.884,380.736 200.5,376C 234.832,375.5 269.165,375.333 303.5,375.5 Z"/></g>
<g><path style="opacity:0.996" fill="#3e3c42" d="M 303.5,375.5 C 314.167,375.5 324.833,375.5 335.5,375.5C 343.019,375.177 348.186,378.51 351,385.5C 351.5,392.826 351.666,400.159 351.5,407.5C 335.5,407.5 319.5,407.5 303.5,407.5C 303.5,396.833 303.5,386.167 303.5,375.5 Z"/></g>
<g><path style="opacity:1" fill="#fea732" d="M 63.5,399.5 C 68.8333,399.5 74.1667,399.5 79.5,399.5C 79.5,404.833 79.5,410.167 79.5,415.5C 74.1667,415.5 68.8333,415.5 63.5,415.5C 63.5,410.167 63.5,404.833 63.5,399.5 Z"/></g>
<g><path style="opacity:1" fill="#fea732" d="M 143.5,399.5 C 143.821,405.026 143.488,410.36 142.5,415.5C 126.833,415.5 111.167,415.5 95.5,415.5C 95.5,410.167 95.5,404.833 95.5,399.5C 111.5,399.5 127.5,399.5 143.5,399.5 Z"/></g>
<g><path style="opacity:1" fill="#e5e7e7" d="M 175.5,407.5 C 218.167,407.5 260.833,407.5 303.5,407.5C 303.5,418.167 303.5,428.833 303.5,439.5C 287.5,439.5 271.5,439.5 255.5,439.5C 244.833,439.5 234.167,439.5 223.5,439.5C 218.167,439.5 212.833,439.5 207.5,439.5C 196.833,439.5 186.167,439.5 175.5,439.5C 175.5,428.833 175.5,418.167 175.5,407.5 Z"/></g>
<g><path style="opacity:1" fill="#3e3d42" d="M 415.5,423.5 C 418.5,423.5 421.5,423.5 424.5,423.5C 440.5,423.5 456.5,423.5 472.5,423.5C 475.922,428.345 478.255,433.678 479.5,439.5C 468.833,439.5 458.167,439.5 447.5,439.5C 442.167,439.5 436.833,439.5 431.5,439.5C 426.156,439.334 420.823,439.501 415.5,440C 410.549,445.461 405.216,450.294 399.5,454.5C 399.5,449.5 399.5,444.5 399.5,439.5C 405.167,434.5 410.5,429.167 415.5,423.5 Z"/></g>
<g><path style="opacity:1" fill="#fea732" d="M 15.5,431.5 C 20.8333,431.5 26.1667,431.5 31.5,431.5C 31.5,436.833 31.5,442.167 31.5,447.5C 26.1667,447.5 20.8333,447.5 15.5,447.5C 15.5,442.167 15.5,436.833 15.5,431.5 Z"/></g>
<g><path style="opacity:1" fill="#fea732" d="M 47.5,431.5 C 71.5,431.5 95.5,431.5 119.5,431.5C 119.5,436.833 119.5,442.167 119.5,447.5C 95.5,447.5 71.5,447.5 47.5,447.5C 47.5,442.167 47.5,436.833 47.5,431.5 Z"/></g>
<g><path style="opacity:1" fill="#3e3d42" d="M 175.5,439.5 C 186.167,439.5 196.833,439.5 207.5,439.5C 207.5,444.833 207.5,450.167 207.5,455.5C 196.833,455.5 186.167,455.5 175.5,455.5C 175.5,450.167 175.5,444.833 175.5,439.5 Z"/></g>
<g><path style="opacity:1" fill="#2c2d2f" d="M 207.5,439.5 C 212.833,439.5 218.167,439.5 223.5,439.5C 223.5,444.833 223.5,450.167 223.5,455.5C 218.167,455.5 212.833,455.5 207.5,455.5C 207.5,450.167 207.5,444.833 207.5,439.5 Z"/></g>
<g><path style="opacity:1" fill="#3e3d42" d="M 223.5,439.5 C 234.167,439.5 244.833,439.5 255.5,439.5C 255.5,444.833 255.5,450.167 255.5,455.5C 244.833,455.5 234.167,455.5 223.5,455.5C 223.5,450.167 223.5,444.833 223.5,439.5 Z"/></g>
<g><path style="opacity:0.987" fill="#56555b" d="M 431.5,439.5 C 431.5,444.833 431.5,450.167 431.5,455.5C 436.833,455.5 442.167,455.5 447.5,455.5C 447.5,450.167 447.5,444.833 447.5,439.5C 458.167,439.5 468.833,439.5 479.5,439.5C 480.546,472.62 464.546,488.454 431.5,487C 413.924,482.924 403.257,472.091 399.5,454.5C 405.216,450.294 410.549,445.461 415.5,440C 420.823,439.501 426.156,439.334 431.5,439.5 Z"/></g>
<g><path style="opacity:1" fill="#2c2d2f" d="M 431.5,439.5 C 436.833,439.5 442.167,439.5 447.5,439.5C 447.5,444.833 447.5,450.167 447.5,455.5C 442.167,455.5 436.833,455.5 431.5,455.5C 431.5,450.167 431.5,444.833 431.5,439.5 Z"/></g>
<g><path style="opacity:0.987" fill="#57555c" d="M 175.5,455.5 C 186.167,455.5 196.833,455.5 207.5,455.5C 212.833,455.5 218.167,455.5 223.5,455.5C 234.167,455.5 244.833,455.5 255.5,455.5C 250.015,475.921 236.681,486.921 215.5,488.5C 194.319,486.921 180.985,475.921 175.5,455.5 Z"/></g>
<g><path style="opacity:1" fill="#fea732" d="M 47.5,463.5 C 52.8333,463.5 58.1667,463.5 63.5,463.5C 63.5,468.833 63.5,474.167 63.5,479.5C 58.1667,479.5 52.8333,479.5 47.5,479.5C 47.5,474.167 47.5,468.833 47.5,463.5 Z"/></g>
<g><path style="opacity:1" fill="#fea732" d="M 79.5,463.5 C 84.8333,463.5 90.1667,463.5 95.5,463.5C 95.5,468.833 95.5,474.167 95.5,479.5C 90.1667,479.5 84.8333,479.5 79.5,479.5C 79.5,474.167 79.5,468.833 79.5,463.5 Z"/></g>
<g><path style="opacity:1" fill="#fea732" d="M 111.5,463.5 C 127.5,463.5 143.5,463.5 159.5,463.5C 159.5,468.833 159.5,474.167 159.5,479.5C 143.5,479.5 127.5,479.5 111.5,479.5C 111.5,474.167 111.5,468.833 111.5,463.5 Z"/></g>
</svg>
