<?xml version="1.0" encoding="UTF-8"?>
<!DOCTYPE svg PUBLIC "-//W3C//DTD SVG 1.1//EN" "http://www.w3.org/Graphics/SVG/1.1/DTD/svg11.dtd">
<svg xmlns="http://www.w3.org/2000/svg" version="1.1" width="512px" height="512px" style="shape-rendering:geometricPrecision; text-rendering:geometricPrecision; image-rendering:optimizeQuality; fill-rule:evenodd; clip-rule:evenodd" xmlns:xlink="http://www.w3.org/1999/xlink">
<g><path style="opacity:1" fill="#f1f1f1" d="M 199.5,15.5 C 199.959,33.2358 199.459,50.9025 198,68.5C 196.829,69.8932 195.329,70.7265 193.5,71C 187.509,71.4995 181.509,71.6662 175.5,71.5C 175.5,58.1667 175.5,44.8333 175.5,31.5C 175.5,26.1667 175.5,20.8333 175.5,15.5C 183.5,15.5 191.5,15.5 199.5,15.5 Z"/></g>
<g><path style="opacity:1" fill="#cccccc" d="M 199.5,15.5 C 207.5,15.5 215.5,15.5 223.5,15.5C 223.5,20.8333 223.5,26.1667 223.5,31.5C 223.5,52.8333 223.5,74.1667 223.5,95.5C 207.5,95.5 191.5,95.5 175.5,95.5C 175.5,87.5 175.5,79.5 175.5,71.5C 181.509,71.6662 187.509,71.4995 193.5,71C 195.329,70.7265 196.829,69.8932 198,68.5C 199.459,50.9025 199.959,33.2358 199.5,15.5 Z"/></g>
<g><path style="opacity:1" fill="#d29e70" d="M 175.5,31.5 C 175.5,44.8333 175.5,58.1667 175.5,71.5C 175.5,79.5 175.5,87.5 175.5,95.5C 140.833,95.5 106.167,95.5 71.5,95.5C 71.3334,77.4969 71.5001,59.4969 72,41.5C 73.8333,37 77,33.8333 81.5,32C 112.832,31.5 144.165,31.3334 175.5,31.5 Z"/></g>
<g><path style="opacity:1" fill="#d29e70" d="M 223.5,31.5 C 249.167,31.5 274.833,31.5 300.5,31.5C 300.667,46.837 300.5,62.1703 300,77.5C 297.368,87.0666 291.201,92.9 281.5,95C 262.17,95.5 242.836,95.6666 223.5,95.5C 223.5,74.1667 223.5,52.8333 223.5,31.5 Z"/></g>
<g><path style="opacity:1" fill="#c18e59" d="M 300.5,31.5 C 306.176,31.3339 311.843,31.5006 317.5,32C 322,33.8333 325.167,37 327,41.5C 327.5,70.1647 327.667,98.8314 327.5,127.5C 316.167,127.5 304.833,127.5 293.5,127.5C 219.5,127.5 145.5,127.5 71.5,127.5C 71.5,116.833 71.5,106.167 71.5,95.5C 106.167,95.5 140.833,95.5 175.5,95.5C 191.5,95.5 207.5,95.5 223.5,95.5C 242.836,95.6666 262.17,95.5 281.5,95C 291.201,92.9 297.368,87.0666 300,77.5C 300.5,62.1703 300.667,46.837 300.5,31.5 Z"/></g>
<g><path style="opacity:1" fill="#a57758" d="M 71.5,127.5 C 145.5,127.5 219.5,127.5 293.5,127.5C 307.837,207.554 322.171,287.554 336.5,367.5C 304.167,367.5 271.833,367.5 239.5,367.5C 239.5,388.833 239.5,410.167 239.5,431.5C 165.167,431.5 90.8333,431.5 16.5,431.5C 34.4207,329.965 52.7541,228.632 71.5,127.5 Z"/></g>
<g><path style="opacity:0.991" fill="#976947" d="M 293.5,127.5 C 304.833,127.5 316.167,127.5 327.5,127.5C 342.276,207.386 356.942,287.386 371.5,367.5C 362.167,367.5 352.833,367.5 343.5,367.5C 341.167,367.5 338.833,367.5 336.5,367.5C 322.171,287.554 307.837,207.554 293.5,127.5 Z"/></g>
<g><path style="opacity:1" fill="#cbcbcb" d="M 223.5,202.5 C 212.269,199.691 200.936,199.024 189.5,200.5C 184.733,200.526 180.066,201.193 175.5,202.5C 175.334,194.16 175.5,185.827 176,177.5C 183.222,160.313 195.389,155.48 212.5,163C 217.578,166.737 221.078,171.57 223,177.5C 223.5,185.827 223.666,194.16 223.5,202.5 Z"/></g>
<g><path style="opacity:1" fill="#f1f0f0" d="M 223.5,202.5 C 258.501,216.129 277.167,241.795 279.5,279.5C 271.5,279.5 263.5,279.5 255.5,279.5C 253.722,244.074 236.722,219.241 204.5,205C 199.423,203.32 194.423,201.82 189.5,200.5C 200.936,199.024 212.269,199.691 223.5,202.5 Z"/></g>
<g><path style="opacity:1" fill="#fefefe" d="M 189.5,200.5 C 194.423,201.82 199.423,203.32 204.5,205C 236.722,219.241 253.722,244.074 255.5,279.5C 210.167,279.5 164.833,279.5 119.5,279.5C 121.341,241.449 140.007,215.782 175.5,202.5C 180.066,201.193 184.733,200.526 189.5,200.5 Z"/></g>
<g><path style="opacity:1" fill="#cbcbcb" d="M 119.5,279.5 C 164.833,279.5 210.167,279.5 255.5,279.5C 263.5,279.5 271.5,279.5 279.5,279.5C 286.987,279.81 292.154,283.477 295,290.5C 295.667,298.833 295.667,307.167 295,315.5C 293.167,321.333 289.333,325.167 283.5,327C 227.167,327.667 170.833,327.667 114.5,327C 109.667,324.833 106.167,321.333 104,316.5C 103.333,307.833 103.333,299.167 104,290.5C 106.846,283.477 112.013,279.81 119.5,279.5 Z"/></g>
<g><path style="opacity:1" fill="#d29e70" d="M 336.5,367.5 C 338.833,367.5 341.167,367.5 343.5,367.5C 343.5,383.5 343.5,399.5 343.5,415.5C 343.5,420.833 343.5,426.167 343.5,431.5C 359.5,431.5 375.5,431.5 391.5,431.5C 391.5,410.167 391.5,388.833 391.5,367.5C 418.167,367.5 444.833,367.5 471.5,367.5C 471.667,395.835 471.5,424.169 471,452.5C 468.234,461.598 462.401,467.765 453.5,471C 382.167,471.5 310.834,471.667 239.5,471.5C 239.5,468.833 239.5,466.167 239.5,463.5C 239.5,452.833 239.5,442.167 239.5,431.5C 239.5,410.167 239.5,388.833 239.5,367.5C 271.833,367.5 304.167,367.5 336.5,367.5 Z"/></g>
<g><path style="opacity:1" fill="#f8d165" d="M 343.5,367.5 C 352.833,367.5 362.167,367.5 371.5,367.5C 372.833,367.5 374.167,367.5 375.5,367.5C 375.951,382.572 375.451,397.572 374,412.5C 372.829,413.893 371.329,414.727 369.5,415C 360.84,415.5 352.173,415.666 343.5,415.5C 343.5,399.5 343.5,383.5 343.5,367.5 Z"/></g>
<g><path style="opacity:1" fill="#f0ae42" d="M 375.5,367.5 C 380.833,367.5 386.167,367.5 391.5,367.5C 391.5,388.833 391.5,410.167 391.5,431.5C 375.5,431.5 359.5,431.5 343.5,431.5C 343.5,426.167 343.5,420.833 343.5,415.5C 352.173,415.666 360.84,415.5 369.5,415C 371.329,414.727 372.829,413.893 374,412.5C 375.451,397.572 375.951,382.572 375.5,367.5 Z"/></g>
<g><path style="opacity:1" fill="#c18e59" d="M 471.5,367.5 C 479.5,367.5 487.5,367.5 495.5,367.5C 495.5,410.167 495.5,452.833 495.5,495.5C 410.167,495.5 324.833,495.5 239.5,495.5C 239.5,487.5 239.5,479.5 239.5,471.5C 310.834,471.667 382.167,471.5 453.5,471C 462.401,467.765 468.234,461.598 471,452.5C 471.5,424.169 471.667,395.835 471.5,367.5 Z"/></g>
<g><path style="opacity:0.998" fill="#966947" d="M 16.5,431.5 C 90.8333,431.5 165.167,431.5 239.5,431.5C 239.5,442.167 239.5,452.833 239.5,463.5C 169.833,463.667 100.166,463.5 30.5,463C 17.0121,456.518 12.3454,446.018 16.5,431.5 Z"/></g>
</svg>
