<?xml version="1.0" encoding="UTF-8"?>
<!DOCTYPE svg PUBLIC "-//W3C//DTD SVG 1.1//EN" "http://www.w3.org/Graphics/SVG/1.1/DTD/svg11.dtd">
<svg xmlns="http://www.w3.org/2000/svg" version="1.1" width="512px" height="512px" style="shape-rendering:geometricPrecision; text-rendering:geometricPrecision; image-rendering:optimizeQuality; fill-rule:evenodd; clip-rule:evenodd" xmlns:xlink="http://www.w3.org/1999/xlink">
<g><path style="opacity:0.98" fill="#ffb74c" d="M 76.5,151.5 C 77.5,151.5 78.5,151.5 79.5,151.5C 83.5284,178.095 74.195,198.095 51.5,211.5C 36.6588,204.819 27.4921,193.486 24,177.5C 23.0151,145.414 23.3484,113.414 25,81.5C 28.2559,79.5715 31.7559,79.0715 35.5,80C 37.3333,80.5 38.5,81.6667 39,83.5C 39.5,106.164 39.6666,128.831 39.5,151.5C 42.8333,151.5 46.1667,151.5 49.5,151.5C 49.3334,129.164 49.5,106.831 50,84.5C 51.3989,80.7623 54.0655,79.0956 58,79.5C 61.5448,79.0386 64.2115,80.3719 66,83.5C 66.5,106.164 66.6666,128.831 66.5,151.5C 69.8333,151.5 73.1667,151.5 76.5,151.5 Z"/></g>
<g><path style="opacity:0.99" fill="#ffa726" d="M 119.5,155.5 C 122.69,180.359 113.69,199.025 92.5,211.5C 89.8619,212.492 87.1952,213.492 84.5,214.5C 84.1667,216.333 83.8333,218.167 83.5,220C 84.6254,238.337 85.9587,256.503 87.5,274.5C 89.9999,318.497 92.1666,362.497 94,406.5C 89.0064,420.912 79.173,426.245 64.5,422.5C 74.6822,417.656 79.6822,409.49 79.5,398C 75.6182,337.176 71.9515,276.342 68.5,215.5C 65.4552,215.492 62.4552,215.159 59.5,214.5C 56.6027,213.871 53.936,212.871 51.5,211.5C 74.195,198.095 83.5284,178.095 79.5,151.5C 78.5,151.5 77.5,151.5 76.5,151.5C 76.3334,128.831 76.5,106.164 77,83.5C 80.3077,79.6729 84.4744,78.5063 89.5,80C 91.0488,81.214 92.2155,82.714 93,84.5C 93.5,106.831 93.6666,129.164 93.5,151.5C 96.8333,151.5 100.167,151.5 103.5,151.5C 103.333,128.831 103.5,106.164 104,83.5C 104.5,81.6667 105.667,80.5 107.5,80C 110.167,79.3333 112.833,79.3333 115.5,80C 117.333,80.5 118.5,81.6667 119,83.5C 119.5,107.498 119.667,131.498 119.5,155.5 Z"/></g>
<g><path style="opacity:0.996" fill="#ededed" d="M 245.5,87.5 C 315.365,96.8678 363.532,134.201 390,199.5C 409.313,261.649 398.313,317.649 357,367.5C 326.579,399.627 289.412,418.294 245.5,423.5C 184.789,418.247 138.956,389.58 108,337.5C 97.2921,317.635 90.4588,296.635 87.5,274.5C 86.277,253.233 87.9437,232.233 92.5,211.5C 113.69,199.025 122.69,180.359 119.5,155.5C 151.067,114.041 193.067,91.3747 245.5,87.5 Z"/></g>
<g><path style="opacity:1" fill="#e0e0e0" d="M 245.5,87.5 C 306,85.4241 354.667,108.091 391.5,155.5C 392.673,177.177 401.339,195.177 417.5,209.5C 417.5,210.167 417.833,210.5 418.5,210.5C 423.039,231.576 424.705,252.909 423.5,274.5C 412.528,344.31 373.862,391.477 307.5,416C 287.3,422.275 266.633,424.775 245.5,423.5C 289.412,418.294 326.579,399.627 357,367.5C 398.313,317.649 409.313,261.649 390,199.5C 363.532,134.201 315.365,96.8678 245.5,87.5 Z"/></g>
<g><path style="opacity:1" fill="#ffa726" d="M 432.5,422.5 C 442.682,417.656 447.682,409.49 447.5,398C 443.618,337.176 439.952,276.342 436.5,215.5C 433.402,215.244 430.402,214.578 427.5,213.5C 424.62,213.06 421.954,212.06 419.5,210.5C 438.333,195.327 447.666,175.494 447.5,151C 447.383,126.938 438.05,107.438 419.5,92.5C 442.652,82.2699 461.486,87.6032 476,108.5C 486.327,125.781 489.993,144.448 487,164.5C 484.789,182.092 476.955,196.592 463.5,208C 459.856,210.656 455.856,212.489 451.5,213.5C 455.529,277.819 459.029,342.152 462,406.5C 457.006,420.912 447.173,426.245 432.5,422.5 Z"/></g>
<g><path style="opacity:0.995" fill="#feb74d" d="M 419.5,92.5 C 438.05,107.438 447.383,126.938 447.5,151C 447.666,175.494 438.333,195.327 419.5,210.5C 419.167,210.5 418.833,210.5 418.5,210.5C 417.833,210.5 417.5,210.167 417.5,209.5C 401.339,195.177 392.673,177.177 391.5,155.5C 390.391,137.266 394.891,120.6 405,105.5C 409.406,100.589 414.24,96.2552 419.5,92.5 Z"/></g>
<g><path style="opacity:1" fill="#e53b36" d="M 249.5,135.5 C 297.227,135.192 333.893,155.025 359.5,195C 358.944,195.383 358.611,195.883 358.5,196.5C 352.965,199.767 347.298,202.767 341.5,205.5C 322.691,168.493 292.858,145.826 252,137.5C 250.624,137.316 249.791,136.649 249.5,135.5 Z"/></g>
<g><path style="opacity:1" fill="#ef5350" d="M 249.5,135.5 C 249.791,136.649 250.624,137.316 252,137.5C 292.858,145.826 322.691,168.493 341.5,205.5C 341.5,205.833 341.5,206.167 341.5,206.5C 333.572,210.441 325.905,214.774 318.5,219.5C 298.386,190.064 270.719,178.897 235.5,186C 216.989,191.909 202.656,203.075 192.5,219.5C 179.033,211.263 165.366,203.263 151.5,195.5C 173.991,159.239 206.657,139.239 249.5,135.5 Z"/></g>
<g><path style="opacity:1" fill="#ededed" d="M 318.5,219.5 C 334.985,254.724 328.985,285.557 300.5,312C 287.221,322.038 272.221,327.205 255.5,327.5C 218.469,325.307 194.969,306.307 185,270.5C 181.226,252.545 183.726,235.545 192.5,219.5C 202.656,203.075 216.989,191.909 235.5,186C 270.719,178.897 298.386,190.064 318.5,219.5 Z"/></g>
<g><path style="opacity:1" fill="#feb74d" d="M 151.5,195.5 C 165.366,203.263 179.033,211.263 192.5,219.5C 183.726,235.545 181.226,252.545 185,270.5C 194.969,306.307 218.469,325.307 255.5,327.5C 255.5,342.5 255.5,357.5 255.5,372.5C 255.5,373.5 255.5,374.5 255.5,375.5C 195.731,371.89 156.897,341.557 139,284.5C 131.573,253.151 135.739,223.484 151.5,195.5 Z"/></g>
<g><path style="opacity:1" fill="#67bb6b" d="M 358.5,196.5 C 360.074,196.937 361.241,197.937 362,199.5C 383.754,246.713 379.087,291.047 348,332.5C 323.648,360.571 292.815,374.905 255.5,375.5C 255.5,374.5 255.5,373.5 255.5,372.5C 301.733,361.771 332.233,333.771 347,288.5C 354.399,260.519 352.566,233.185 341.5,206.5C 341.5,206.167 341.5,205.833 341.5,205.5C 347.298,202.767 352.965,199.767 358.5,196.5 Z"/></g>
<g><path style="opacity:1" fill="#81c684" d="M 341.5,206.5 C 352.566,233.185 354.399,260.519 347,288.5C 332.233,333.771 301.733,361.771 255.5,372.5C 255.5,357.5 255.5,342.5 255.5,327.5C 272.221,327.205 287.221,322.038 300.5,312C 328.985,285.557 334.985,254.724 318.5,219.5C 325.905,214.774 333.572,210.441 341.5,206.5 Z"/></g>
<g><path style="opacity:0.98" fill="#ffb64c" d="M 59.5,214.5 C 62.4552,215.159 65.4552,215.492 68.5,215.5C 71.9515,276.342 75.6182,337.176 79.5,398C 79.6822,409.49 74.6822,417.656 64.5,422.5C 53.3234,418.617 47.9901,410.617 48.5,398.5C 52.25,337.167 55.9166,275.834 59.5,214.5 Z"/></g>
<g><path style="opacity:0.98" fill="#ffb64c" d="M 427.5,213.5 C 430.402,214.578 433.402,215.244 436.5,215.5C 439.952,276.342 443.618,337.176 447.5,398C 447.682,409.49 442.682,417.656 432.5,422.5C 421.323,418.617 415.99,410.617 416.5,398.5C 419.166,357.181 421.499,315.848 423.5,274.5C 425.294,254.348 426.628,234.015 427.5,213.5 Z"/></g>
<g><path style="opacity:1" fill="#777777" d="M 276.5,223.5 C 286.023,223.217 289.19,227.55 286,236.5C 269.5,253 253,269.5 236.5,286C 225.981,288.814 222.147,284.981 225,274.5C 242.062,257.271 259.228,240.271 276.5,223.5 Z"/></g>
<g><path style="opacity:1" fill="#797979" d="M 228.5,223.5 C 234.925,222.534 238.592,225.201 239.5,231.5C 239.113,236.72 236.279,239.387 231,239.5C 224.894,238.296 222.561,234.629 224,228.5C 225.025,226.313 226.525,224.646 228.5,223.5 Z"/></g>
<g><path style="opacity:1" fill="#797979" d="M 276.5,271.5 C 282.925,270.534 286.592,273.201 287.5,279.5C 287.113,284.72 284.279,287.387 279,287.5C 272.894,286.296 270.561,282.629 272,276.5C 273.025,274.313 274.525,272.646 276.5,271.5 Z"/></g>
</svg>
