<?xml version="1.0" encoding="UTF-8"?>
<!DOCTYPE svg PUBLIC "-//W3C//DTD SVG 1.1//EN" "http://www.w3.org/Graphics/SVG/1.1/DTD/svg11.dtd">
<svg xmlns="http://www.w3.org/2000/svg" version="1.1" width="512px" height="512px" style="shape-rendering:geometricPrecision; text-rendering:geometricPrecision; image-rendering:optimizeQuality; fill-rule:evenodd; clip-rule:evenodd" xmlns:xlink="http://www.w3.org/1999/xlink">
<g><path style="opacity:0.913" fill="#00a5ec" d="M 246.5,-0.5 C 252.5,-0.5 258.5,-0.5 264.5,-0.5C 277.483,3.65084 285.983,12.3175 290,25.5C 291.294,67.138 291.96,108.805 292,150.5C 300.167,142.333 308.333,134.167 316.5,126C 335.806,113.3 353.306,115.467 369,132.5C 377.907,147.079 377.573,161.413 368,175.5C 342.167,201.333 316.333,227.167 290.5,253C 267.167,269.667 243.833,269.667 220.5,253C 194.667,227.167 168.833,201.333 143,175.5C 133.448,161.403 133.115,147.069 142,132.5C 157.122,115.952 174.288,113.452 193.5,125C 202.333,133.833 211.167,142.667 220,151.5C 220.333,109.5 220.667,67.5 221,25.5C 225.017,12.3175 233.517,3.65084 246.5,-0.5 Z M 249.5,10.5 C 264.209,8.76143 274.042,14.7614 279,28.5C 279.01,75.25 279.676,121.917 281,168.5C 283.153,170.444 285.653,170.944 288.5,170C 300.167,158.333 311.833,146.667 323.5,135C 333.654,128.115 343.987,127.782 354.5,134C 365.097,144.848 366.264,156.681 358,169.5C 333.5,194 309,218.5 284.5,243C 265.167,257 245.833,257 226.5,243C 202,218.5 177.5,194 153,169.5C 144.148,156.757 145.314,144.923 156.5,134C 167.64,127.524 178.307,128.191 188.5,136C 199.833,147.333 211.167,158.667 222.5,170C 225.347,170.944 227.847,170.444 230,168.5C 231.324,121.917 231.99,75.25 232,28.5C 234.683,19.318 240.517,13.318 249.5,10.5 Z"/></g>
<g><path style="opacity:0.931" fill="#00a5ec" d="M 465.5,511.5 C 325.5,511.5 185.5,511.5 45.5,511.5C 28.4182,506.249 17.5848,494.916 13,477.5C 12.3333,389.167 12.3333,300.833 13,212.5C 17.5,194.667 28.6667,183.5 46.5,179C 69.5,178.333 92.5,178.333 115.5,179C 118.425,182.696 118.092,186.029 114.5,189C 92.8333,189.333 71.1667,189.667 49.5,190C 45.6148,190.739 41.9481,192.073 38.5,194C 37.5494,194.718 37.3828,195.551 38,196.5C 92.5,251.667 147,306.833 201.5,362C 230.622,385.426 261.955,388.76 295.5,372C 300.167,368.667 304.833,365.333 309.5,362C 364,306.833 418.5,251.667 473,196.5C 473.617,195.551 473.451,194.718 472.5,194C 469.052,192.073 465.385,190.739 461.5,190C 439.833,189.667 418.167,189.333 396.5,189C 392.92,186.074 392.587,182.74 395.5,179C 418.5,178.333 441.5,178.333 464.5,179C 482.307,183.473 493.473,194.64 498,212.5C 498.667,300.833 498.667,389.167 498,477.5C 493.415,494.916 482.582,506.249 465.5,511.5 Z M 27.5,204.5 C 75.458,250.458 122.458,297.458 168.5,345.5C 122.501,392.832 76.1678,439.832 29.5,486.5C 26.4297,483.146 24.5964,479.146 24,474.5C 23.3333,388.167 23.3333,301.833 24,215.5C 24.874,211.712 26.0407,208.046 27.5,204.5 Z M 481.5,204.5 C 482.376,204.369 483.043,204.702 483.5,205.5C 485.163,208.656 486.33,211.989 487,215.5C 487.667,301.833 487.667,388.167 487,474.5C 486.404,479.146 484.57,483.146 481.5,486.5C 434.832,439.832 388.499,392.832 342.5,345.5C 388.493,298.174 434.826,251.174 481.5,204.5 Z M 176.5,354.5 C 183.577,360.071 190.244,366.238 196.5,373C 226.302,395.373 258.636,399.707 293.5,386C 301.003,382.418 308.003,378.085 314.5,373C 320.681,366.652 327.014,360.485 333.5,354.5C 379.959,401.459 426.626,448.293 473.5,495C 470.211,497.478 466.544,499.144 462.5,500C 323.124,500.993 183.791,500.66 44.5,499C 42.3359,498.086 40.3359,496.919 38.5,495.5C 39,494.5 39.5,493.5 40,492.5C 86.0633,446.937 131.563,400.937 176.5,354.5 Z"/></g>
</svg>
