<svg xmlns="http://www.w3.org/2000/svg" width="53.853" height="48" viewBox="0 0 53.853 48">
  <path id="Path_35" data-name="Path 35" d="M53.594,4.422A1.865,1.865,0,0,0,51.5,4.074L40.469,8.968c-.063.029-.124.062-.188.09A22.745,22.745,0,0,0,14.7,8.49L11.043,4.833a2.132,2.132,0,0,0-1.5-.631,1.977,1.977,0,0,0-1.508.612A2.129,2.129,0,0,0,8.057,7.82l6.412,6.412-.6.6L7.459,8.417a2.127,2.127,0,0,0-3-.018,2.083,2.083,0,0,0-.613,1.506,2.133,2.133,0,0,0,.632,1.5l6.412,6.412-.6.6L3.876,12A2.114,2.114,0,1,0,.885,14.987l4.781,4.777A22.788,22.788,0,0,0,9.784,42.5L6.005,46.282a3.369,3.369,0,0,0-1,2.175,2.788,2.788,0,0,0,2.815,3.011c.063,0,.127,0,.19-.006a3.373,3.373,0,0,0,2.175-1L14.2,46.45a22.734,22.734,0,0,0,24.76.635l3.924,3.924a3.008,3.008,0,0,0,2.1.888h.032A2.918,2.918,0,0,0,47.1,51.04a2.983,2.983,0,0,0-.031-4.211l-3.477-3.477a22.757,22.757,0,0,0,2.294-28.585L53.5,7.153A1.937,1.937,0,0,0,53.594,4.422ZM27.07,6.518a20.94,20.94,0,0,1,11.5,3.419,21.2,21.2,0,0,0-3.717,2.709,16.843,16.843,0,0,0-15.845.151L15.92,9.714A20.994,20.994,0,0,1,27.07,6.518Zm-25,6.659a.356.356,0,0,1,.3-.119.462.462,0,0,1,.319.137l7.011,7.011a.869.869,0,0,0,1.194,0l1.792-1.792a.845.845,0,0,0,0-1.194L5.669,10.208a.455.455,0,0,1-.139-.319.415.415,0,0,1,.118-.295.437.437,0,0,1,.3-.119.463.463,0,0,1,.32.137l7.011,7.011a.845.845,0,0,0,1.2,0l1.787-1.793a.845.845,0,0,0,0-1.194L9.247,6.624a.438.438,0,0,1-.019-.617.432.432,0,0,1,.3-.118.459.459,0,0,1,.32.137L22.952,19.132a3.484,3.484,0,0,1,1.033,2.441,3.314,3.314,0,0,1-.971,2.4.845.845,0,0,0,0,1.194l1.1,1.1,1.194-1.194-.555-.555a5.011,5.011,0,0,0,.923-2.966,5.168,5.168,0,0,0-1.527-3.619l-3.894-3.894a15.222,15.222,0,0,1,13.332-.149,20.649,20.649,0,0,0-5.2,10l-13.2,13.2a15.173,15.173,0,0,1-3.323-9.461,15.532,15.532,0,0,1,.084-1.587l2.043,2.043a5.182,5.182,0,0,0,3.67,1.526,5.036,5.036,0,0,0,2.911-.917l.492.492L22.261,28,21.223,26.96a.845.845,0,0,0-1.194,0,3.43,3.43,0,0,1-4.84-.061L2.084,13.794a.438.438,0,0,1-.017-.617ZM5.953,27.636A21.059,21.059,0,0,1,7,21.1l3.457,3.457A16.8,16.8,0,0,0,13.989,38.3l-3,2.994a21.033,21.033,0,0,1-5.04-13.658ZM27.07,48.753a20.949,20.949,0,0,1-11.652-3.522l3.059-3.06a16.843,16.843,0,0,0,16.141.572l3.112,3.112A21.033,21.033,0,0,1,27.07,48.753ZM45.9,49.845a1.288,1.288,0,0,1-1.822-.03L28.607,34.343l-1.194,1.194,5.941,5.941a15.176,15.176,0,0,1-13.641-.541L40.375,20.275A15.166,15.166,0,0,1,38.2,37.966l-6.589-6.589L30.42,32.571,45.871,48.023A1.291,1.291,0,0,1,45.9,49.845Zm2.287-22.21a20.949,20.949,0,0,1-5.794,14.522l-3-3a16.828,16.828,0,0,0,2.21-20.117l3.06-3.06A20.939,20.939,0,0,1,48.188,27.636ZM52.3,5.958,8.994,49.269a1.423,1.423,0,0,1-1.983.191,1.153,1.153,0,0,1-.317-.9A1.689,1.689,0,0,1,7.2,47.476L29.768,24.909A.845.845,0,0,0,30,24.465a19.377,19.377,0,0,1,11.15-13.953L52.183,5.619a.21.21,0,0,1,.211,0C52.444,5.666,52.433,5.828,52.3,5.958Z" transform="translate(-0.257 -3.897)"/>
</svg>
