<?xml version="1.0" encoding="UTF-8"?>
<!DOCTYPE svg PUBLIC "-//W3C//DTD SVG 1.1//EN" "http://www.w3.org/Graphics/SVG/1.1/DTD/svg11.dtd">
<svg xmlns="http://www.w3.org/2000/svg" version="1.1" width="512px" height="512px" style="shape-rendering:geometricPrecision; text-rendering:geometricPrecision; image-rendering:optimizeQuality; fill-rule:evenodd; clip-rule:evenodd" xmlns:xlink="http://www.w3.org/1999/xlink">
<g><path style="opacity:0.996" fill="#3e6d93" d="M 283.5,-0.5 C 325.167,-0.5 366.833,-0.5 408.5,-0.5C 425.53,3.35896 436.697,13.6923 442,30.5C 443.477,109.142 443.977,187.809 443.5,266.5C 442.539,264.735 442.205,262.735 442.5,260.5C 442.994,186.084 442.494,111.751 441,37.5C 438.362,33.8717 434.862,31.3717 430.5,30C 419.5,29.3333 408.5,29.3333 397.5,30C 395.714,30.7845 394.214,31.9512 393,33.5C 391.984,37.9215 390.651,42.2548 389,46.5C 387.786,48.0488 386.286,49.2155 384.5,50C 370.569,51.6135 356.569,51.9469 342.5,51C 340.04,49.5422 337.873,47.7089 336,45.5C 335.228,40.7399 333.728,36.2399 331.5,32C 330.167,31.3333 328.833,30.6667 327.5,30C 322,29.8333 316.5,29.6667 311,29.5C 304.423,29.3949 297.923,29.8949 291.5,31C 287.612,33.2215 284.779,36.3882 283,40.5C 282.5,114.833 282.333,189.166 282.5,263.5C 282.333,278.837 282.5,294.17 283,309.5C 284.743,314.91 288.243,318.744 293.5,321C 339.668,321.832 385.668,321.665 431.5,320.5C 437.83,318.836 441.83,314.836 443.5,308.5C 442.474,331.174 431.14,345.507 409.5,351.5C 367.832,351.667 326.165,351.5 284.5,351C 268.009,346.509 257.509,336.009 253,319.5C 252.819,255.812 252.319,192.145 251.5,128.5C 251.036,95.4589 251.536,62.4589 253,29.5C 257.788,13.8774 267.955,3.87738 283.5,-0.5 Z"/></g>
<g><path style="opacity:1" fill="#335e80" d="M 408.5,-0.5 C 419.833,-0.5 431.167,-0.5 442.5,-0.5C 456.688,4.18634 466.521,13.5197 472,27.5C 473.467,56.4497 473.967,85.4497 473.5,114.5C 473.5,130.5 473.5,146.5 473.5,162.5C 473.5,178.167 473.5,193.833 473.5,209.5C 473.5,225.5 473.5,241.5 473.5,257.5C 473.5,273.5 473.5,289.5 473.5,305.5C 474.792,329.847 463.792,345.181 440.5,351.5C 438.5,351.5 436.5,351.5 434.5,351.5C 426.167,351.5 417.833,351.5 409.5,351.5C 431.14,345.507 442.474,331.174 443.5,308.5C 443.5,294.5 443.5,280.5 443.5,266.5C 443.977,187.809 443.477,109.142 442,30.5C 436.697,13.6923 425.53,3.35896 408.5,-0.5 Z"/></g>
<g><path style="opacity:1" fill="#f8f6f7" d="M 442.5,260.5 C 435.502,229.833 417.169,209.166 387.5,198.5C 396.886,191.076 402.719,181.409 405,169.5C 405.5,160.506 405.666,151.506 405.5,142.5C 405.667,129.829 405.5,117.162 405,104.5C 402.167,95 396,88.8333 386.5,86C 375.839,85.5002 365.172,85.3335 354.5,85.5C 341.111,83.1228 330.611,87.4561 323,98.5C 322.027,100.392 321.36,102.392 321,104.5C 320.5,117.162 320.333,129.829 320.5,142.5C 320.334,152.172 320.5,161.839 321,171.5C 323.479,182.786 329.312,191.786 338.5,198.5C 307.625,209.704 288.959,231.371 282.5,263.5C 282.333,189.166 282.5,114.833 283,40.5C 284.779,36.3882 287.612,33.2215 291.5,31C 297.923,29.8949 304.423,29.3949 311,29.5C 316.5,29.6667 322,29.8333 327.5,30C 328.833,30.6667 330.167,31.3333 331.5,32C 333.728,36.2399 335.228,40.7399 336,45.5C 337.873,47.7089 340.04,49.5422 342.5,51C 356.569,51.9469 370.569,51.6135 384.5,50C 386.286,49.2155 387.786,48.0488 389,46.5C 390.651,42.2548 391.984,37.9215 393,33.5C 394.214,31.9512 395.714,30.7845 397.5,30C 408.5,29.3333 419.5,29.3333 430.5,30C 434.862,31.3717 438.362,33.8717 441,37.5C 442.494,111.751 442.994,186.084 442.5,260.5 Z"/></g>
<g><path style="opacity:1" fill="#e19974" d="M 354.5,85.5 C 363.564,88.054 370.064,93.7207 374,102.5C 375.376,111.098 375.876,119.765 375.5,128.5C 369.423,128.196 363.423,128.696 357.5,130C 345.101,134.077 332.768,138.244 320.5,142.5C 320.333,129.829 320.5,117.162 321,104.5C 321.36,102.392 322.027,100.392 323,98.5C 330.611,87.4561 341.111,83.1228 354.5,85.5 Z"/></g>
<g><path style="opacity:1" fill="#dc8758" d="M 354.5,85.5 C 365.172,85.3335 375.839,85.5002 386.5,86C 396,88.8333 402.167,95 405,104.5C 405.5,117.162 405.667,129.829 405.5,142.5C 400.196,138.51 394.53,135.01 388.5,132C 384.312,130.369 379.979,129.536 375.5,129.5C 375.5,129.167 375.5,128.833 375.5,128.5C 375.876,119.765 375.376,111.098 374,102.5C 370.064,93.7207 363.564,88.054 354.5,85.5 Z"/></g>
<g><path style="opacity:0.996" fill="#fecdbe" d="M 251.5,128.5 C 252.319,192.145 252.819,255.812 253,319.5C 257.509,336.009 268.009,346.509 284.5,351C 326.165,351.5 367.832,351.667 409.5,351.5C 417.833,351.5 426.167,351.5 434.5,351.5C 422.327,352.167 409.993,352.833 397.5,353.5C 378.679,375.251 355.012,388.751 326.5,394C 313.854,395.255 301.187,396.255 288.5,397C 280.693,399.4 274.027,403.567 268.5,409.5C 241.45,383.45 215.116,356.783 189.5,329.5C 194.79,319.806 198.623,309.473 201,298.5C 202.276,242.832 203.609,187.165 205,131.5C 209.918,116.785 220.085,110.951 235.5,114C 242.954,116.626 248.288,121.46 251.5,128.5 Z"/></g>
<g><path style="opacity:0.989" fill="#ffcdbe" d="M 473.5,114.5 C 482.25,114.09 490.916,114.59 499.5,116C 505.276,119.399 509.276,124.232 511.5,130.5C 511.5,135.833 511.5,141.167 511.5,146.5C 508.5,154.167 503.167,159.5 495.5,162.5C 488.167,162.5 480.833,162.5 473.5,162.5C 473.5,146.5 473.5,130.5 473.5,114.5 Z"/></g>
<g><path style="opacity:1" fill="#fecdbe" d="M 375.5,128.5 C 375.5,128.833 375.5,129.167 375.5,129.5C 375.667,142.504 375.5,155.504 375,168.5C 372.221,185.085 363.055,196.418 347.5,202.5C 344.352,201.424 341.352,200.091 338.5,198.5C 329.312,191.786 323.479,182.786 321,171.5C 320.5,161.839 320.334,152.172 320.5,142.5C 332.768,138.244 345.101,134.077 357.5,130C 363.423,128.696 369.423,128.196 375.5,128.5 Z"/></g>
<g><path style="opacity:1" fill="#feb09e" d="M 375.5,129.5 C 379.979,129.536 384.312,130.369 388.5,132C 394.53,135.01 400.196,138.51 405.5,142.5C 405.666,151.506 405.5,160.506 405,169.5C 402.719,181.409 396.886,191.076 387.5,198.5C 382.853,201.274 377.853,203.274 372.5,204.5C 366.582,205.621 360.582,205.788 354.5,205C 351.896,204.61 349.562,203.776 347.5,202.5C 363.055,196.418 372.221,185.085 375,168.5C 375.5,155.504 375.667,142.504 375.5,129.5 Z"/></g>
<g><path style="opacity:0.986" fill="#ffb09e" d="M 473.5,162.5 C 480.833,162.5 488.167,162.5 495.5,162.5C 503.428,164.762 508.761,169.762 511.5,177.5C 511.5,182.833 511.5,188.167 511.5,193.5C 509.292,201.377 504.292,206.71 496.5,209.5C 488.833,209.5 481.167,209.5 473.5,209.5C 473.5,193.833 473.5,178.167 473.5,162.5 Z"/></g>
<g><path style="opacity:1" fill="#f48a97" d="M 338.5,198.5 C 341.352,200.091 344.352,201.424 347.5,202.5C 349.562,203.776 351.896,204.61 354.5,205C 360.582,205.788 366.582,205.621 372.5,204.5C 392.14,217.073 404.974,234.74 411,257.5C 412.581,275.128 412.914,292.794 412,310.5C 410.221,314.612 407.388,317.778 403.5,320C 412.827,320.5 422.161,320.666 431.5,320.5C 385.668,321.665 339.668,321.832 293.5,321C 288.243,318.744 284.743,314.91 283,309.5C 282.5,294.17 282.333,278.837 282.5,263.5C 288.959,231.371 307.625,209.704 338.5,198.5 Z"/></g>
<g><path style="opacity:1" fill="#ef7281" d="M 387.5,198.5 C 417.169,209.166 435.502,229.833 442.5,260.5C 442.205,262.735 442.539,264.735 443.5,266.5C 443.5,280.5 443.5,294.5 443.5,308.5C 441.83,314.836 437.83,318.836 431.5,320.5C 422.161,320.666 412.827,320.5 403.5,320C 407.388,317.778 410.221,314.612 412,310.5C 412.914,292.794 412.581,275.128 411,257.5C 404.974,234.74 392.14,217.073 372.5,204.5C 377.853,203.274 382.853,201.274 387.5,198.5 Z"/></g>
<g><path style="opacity:0.99" fill="#ffcdbe" d="M 473.5,209.5 C 481.167,209.5 488.833,209.5 496.5,209.5C 504.216,212.252 509.216,217.585 511.5,225.5C 511.5,230.833 511.5,236.167 511.5,241.5C 508.474,249.192 503.141,254.526 495.5,257.5C 488.167,257.5 480.833,257.5 473.5,257.5C 473.5,241.5 473.5,225.5 473.5,209.5 Z"/></g>
<g><path style="opacity:0.986" fill="#ffaf9e" d="M 473.5,257.5 C 480.833,257.5 488.167,257.5 495.5,257.5C 503.428,259.762 508.761,264.762 511.5,272.5C 511.5,277.833 511.5,283.167 511.5,288.5C 508.901,297.595 502.901,303.095 493.5,305C 486.842,305.5 480.175,305.666 473.5,305.5C 473.5,289.5 473.5,273.5 473.5,257.5 Z"/></g>
<g><path style="opacity:0.998" fill="#f58996" d="M 189.5,329.5 C 215.116,356.783 241.45,383.45 268.5,409.5C 272.167,413.5 275.833,417.5 279.5,421.5C 261.368,439.132 243.368,456.965 225.5,475C 221.185,477.773 216.518,479.773 211.5,481C 145.834,481.5 80.1675,481.667 14.5,481.5C 64.9369,429.562 115.937,378.062 167.5,327C 175.451,323.07 182.784,323.903 189.5,329.5 Z"/></g>
<g><path style="opacity:1" fill="#ffb09e" d="M 434.5,351.5 C 436.5,351.5 438.5,351.5 440.5,351.5C 422.305,382.128 395.638,401.295 360.5,409C 345.48,410.579 330.48,412.245 315.5,414C 312.833,415.333 310.167,416.667 307.5,418C 302.631,423.037 297.631,427.87 292.5,432.5C 287.893,429.232 283.559,425.565 279.5,421.5C 275.833,417.5 272.167,413.5 268.5,409.5C 274.027,403.567 280.693,399.4 288.5,397C 301.187,396.255 313.854,395.255 326.5,394C 355.012,388.751 378.679,375.251 397.5,353.5C 409.993,352.833 422.327,352.167 434.5,351.5 Z"/></g>
<g><path style="opacity:1" fill="#f07281" d="M 279.5,421.5 C 283.559,425.565 287.893,429.232 292.5,432.5C 297.578,439.71 297.745,447.043 293,454.5C 276.167,471.333 259.333,488.167 242.5,505C 238.566,507.464 234.566,509.631 230.5,511.5C 155.5,511.5 80.5,511.5 5.5,511.5C 3.16667,509.833 1.16667,507.833 -0.5,505.5C -0.5,502.5 -0.5,499.5 -0.5,496.5C 4.13959,491.194 9.13959,486.194 14.5,481.5C 80.1675,481.667 145.834,481.5 211.5,481C 216.518,479.773 221.185,477.773 225.5,475C 243.368,456.965 261.368,439.132 279.5,421.5 Z"/></g>
</svg>
