<?xml version="1.0" encoding="UTF-8"?>
<!DOCTYPE svg PUBLIC "-//W3C//DTD SVG 1.1//EN" "http://www.w3.org/Graphics/SVG/1.1/DTD/svg11.dtd">
<svg xmlns="http://www.w3.org/2000/svg" version="1.1" width="500px" height="500px" style="shape-rendering:geometricPrecision; text-rendering:geometricPrecision; image-rendering:optimizeQuality; fill-rule:evenodd; clip-rule:evenodd" xmlns:xlink="http://www.w3.org/1999/xlink">
<g><path style="opacity:1" fill="#ededed" d="M -0.5,-0.5 C 166.167,-0.5 332.833,-0.5 499.5,-0.5C 499.5,166.167 499.5,332.833 499.5,499.5C 332.833,499.5 166.167,499.5 -0.5,499.5C -0.5,332.833 -0.5,166.167 -0.5,-0.5 Z"/></g>
<g><path style="opacity:1" fill="#c0bfbf" d="M 186.5,107.5 C 194.903,107.13 203.236,107.63 211.5,109C 215.096,112.851 215.263,117.017 212,121.5C 210.5,123 209,124.5 207.5,126C 201.702,128.323 196.035,130.823 190.5,133.5C 190.351,132.448 190.517,131.448 191,130.5C 192.78,128.707 194.613,127.04 196.5,125.5C 184.041,124.029 172.375,126.529 161.5,133C 157.004,137.176 157.671,140.176 163.5,142C 174.634,144.446 185.3,148.113 195.5,153C 205.967,162.37 205.634,171.703 194.5,181C 185.175,187.207 174.842,190.54 163.5,191C 155.833,191.667 148.167,191.667 140.5,191C 130.72,188.825 128.887,183.658 135,175.5C 138.694,171.461 143.194,170.128 148.5,171.5C 147.91,172.799 146.91,173.632 145.5,174C 162.045,175.815 177.545,172.648 192,164.5C 192.561,161.702 191.394,159.869 188.5,159C 177.648,155.537 166.648,152.537 155.5,150C 152.063,148.895 149.563,146.728 148,143.5C 145.685,133.784 148.185,125.618 155.5,119C 165.162,113.061 175.495,109.227 186.5,107.5 Z"/></g>
<g><path style="opacity:1" fill="#c0bfc0" d="M 299.5,119.5 C 301.288,119.215 302.955,119.548 304.5,120.5C 304.167,121.167 303.833,121.833 303.5,122.5C 308.798,123.008 314.131,123.175 319.5,123C 322.864,126.026 323.364,129.526 321,133.5C 314.017,138.471 310.517,145.137 310.5,153.5C 313.425,153.54 316.091,152.707 318.5,151C 319.748,149.041 321.415,147.541 323.5,146.5C 328.113,136.714 334.78,128.547 343.5,122C 346.742,119.858 349.575,120.358 352,123.5C 352.667,124.833 352.667,126.167 352,127.5C 346.699,133.802 341.032,139.802 335,145.5C 333.504,147.45 333.337,149.45 334.5,151.5C 346.21,144.291 356.543,135.458 365.5,125C 369.047,121.405 371.38,122.071 372.5,127C 372.204,128.888 371.704,130.722 371,132.5C 360.876,149.082 351.543,166.082 343,183.5C 340.821,186.538 338.655,189.538 336.5,192.5C 333.08,188.551 332.58,184.217 335,179.5C 339.754,169.822 344.754,160.489 350,151.5C 345.32,156.997 339.653,160.997 333,163.5C 330.931,162.73 329.265,161.397 328,159.5C 327.197,156.756 326.197,154.089 325,151.5C 320.801,156.034 316.301,160.201 311.5,164C 305.691,166.953 301.525,165.453 299,159.5C 298.285,149.853 301.785,142.02 309.5,136C 305.5,136.491 301.5,137.325 297.5,138.5C 289.342,148.825 280.008,157.991 269.5,166C 262.28,167.453 258.614,164.453 258.5,157C 258.641,149.233 261.808,143.066 268,138.5C 268.688,137.668 268.521,137.002 267.5,136.5C 264.192,137.395 260.859,138.229 257.5,139C 252.167,145.667 246.167,151.667 239.5,157C 236.576,157.988 233.576,158.654 230.5,159C 225.361,165.911 218.694,168.245 210.5,166C 202.157,156.902 201.324,147.068 208,136.5C 212.244,131.585 217.077,127.419 222.5,124C 227.78,122.172 233.114,122.005 238.5,123.5C 241.909,133.235 240.909,142.569 235.5,151.5C 235.833,151.833 236.167,152.167 236.5,152.5C 242.075,149.594 246.742,145.594 250.5,140.5C 248.564,137.792 248.064,134.792 249,131.5C 251.797,127.701 254.964,124.201 258.5,121C 260.579,120.192 262.579,120.359 264.5,121.5C 263.121,122.863 263.287,123.863 265,124.5C 269.792,123.414 274.625,123.247 279.5,124C 282.29,126.21 283.123,129.044 282,132.5C 274.613,138.042 270.446,145.375 269.5,154.5C 271.989,154.702 274.323,154.202 276.5,153C 281.489,149.011 286.155,144.678 290.5,140C 288.683,137.394 288.183,134.56 289,131.5C 291.649,126.689 295.149,122.689 299.5,119.5 Z"/></g>
<g><path style="opacity:1" fill="#ebebeb" d="M 226.5,134.5 C 227.552,134.351 228.552,134.517 229.5,135C 226.07,141.034 224.236,147.534 224,154.5C 212.501,160.335 209.501,157.335 215,145.5C 218.07,140.927 221.904,137.261 226.5,134.5 Z"/></g>
<g><path style="opacity:1" fill="#8f8f8f" d="M 317.5,268.5 C 325.833,268.5 334.167,268.5 342.5,268.5C 342.5,289.167 342.5,309.833 342.5,330.5C 338.833,330.5 335.167,330.5 331.5,330.5C 331.617,328.516 330.95,326.85 329.5,325.5C 313.871,336.245 302.371,332.911 295,315.5C 294.333,284.833 294.333,254.167 295,223.5C 301.566,204.524 314.066,199.357 332.5,208C 337.327,212.158 340.494,217.325 342,223.5C 342.5,232.494 342.666,241.494 342.5,250.5C 336.5,250.5 330.5,250.5 324.5,250.5C 324.666,242.493 324.5,234.493 324,226.5C 321.451,222.075 318.118,221.408 314,224.5C 312.858,238.935 312.358,253.435 312.5,268C 312.366,282.885 312.866,297.718 314,312.5C 317,316.5 320,316.5 323,312.5C 324.42,302.914 324.92,293.247 324.5,283.5C 322.167,283.5 319.833,283.5 317.5,283.5C 317.5,278.5 317.5,273.5 317.5,268.5 Z"/></g>
<g><path style="opacity:1" fill="#8f8f8f" d="M 184.5,330.5 C 184.833,302.825 184.5,275.159 183.5,247.5C 182.614,248.325 182.281,249.325 182.5,250.5C 178.574,277.13 174.907,303.797 171.5,330.5C 168.5,330.5 165.5,330.5 162.5,330.5C 159.375,304.751 155.708,279.084 151.5,253.5C 151.313,251.436 150.813,249.436 150,247.5C 149.5,275.165 149.333,302.831 149.5,330.5C 143.833,330.5 138.167,330.5 132.5,330.5C 132.5,288.833 132.5,247.167 132.5,205.5C 140.167,205.5 147.833,205.5 155.5,205.5C 158.882,225.913 162.716,246.246 167,266.5C 171.05,246.202 174.883,225.869 178.5,205.5C 186.167,205.5 193.833,205.5 201.5,205.5C 201.5,247.167 201.5,288.833 201.5,330.5C 195.833,330.5 190.167,330.5 184.5,330.5 Z"/></g>
<g><path style="opacity:1" fill="#8f8f8f" d="M 92.5,205.5 C 98.5,205.5 104.5,205.5 110.5,205.5C 110.5,247.167 110.5,288.833 110.5,330.5C 104.5,330.5 98.5,330.5 92.5,330.5C 92.5,288.833 92.5,247.167 92.5,205.5 Z"/></g>
<g><path style="opacity:1" fill="#909090" d="M 257.5,308.5 C 257.5,307.167 257.5,305.833 257.5,304.5C 251.31,304.177 245.31,304.51 239.5,305.5C 238.092,313.769 237.092,322.102 236.5,330.5C 230.5,330.5 224.5,330.5 218.5,330.5C 224.173,288.793 230.173,247.126 236.5,205.5C 244.609,204.886 252.442,205.553 260,207.5C 266.308,248.488 272.474,289.488 278.5,330.5C 272.5,330.5 266.5,330.5 260.5,330.5C 259.5,323.17 258.5,315.837 257.5,308.5 Z"/></g>
<g><path style="opacity:1" fill="#8f8f8f" d="M 364.5,205.5 C 378.5,205.5 392.5,205.5 406.5,205.5C 406.5,211.833 406.5,218.167 406.5,224.5C 398.833,224.5 391.167,224.5 383.5,224.5C 383.5,235.5 383.5,246.5 383.5,257.5C 389.167,257.5 394.833,257.5 400.5,257.5C 400.5,264.167 400.5,270.833 400.5,277.5C 394.833,277.5 389.167,277.5 383.5,277.5C 383.5,288.833 383.5,300.167 383.5,311.5C 391.167,311.5 398.833,311.5 406.5,311.5C 406.5,317.833 406.5,324.167 406.5,330.5C 392.5,330.5 378.5,330.5 364.5,330.5C 364.5,288.833 364.5,247.167 364.5,205.5 Z"/></g>
<g><path style="opacity:1" fill="#bfbebe" d="M 184.5,330.5 C 183.833,303.833 183.167,277.167 182.5,250.5C 182.281,249.325 182.614,248.325 183.5,247.5C 184.5,275.159 184.833,302.825 184.5,330.5 Z"/></g>
<g><path style="opacity:1" fill="#d5d5d5" d="M 151.5,253.5 C 150.833,279.167 150.167,304.833 149.5,330.5C 149.333,302.831 149.5,275.165 150,247.5C 150.813,249.436 151.313,251.436 151.5,253.5 Z"/></g>
<g><path style="opacity:1" fill="#e9e9e9" d="M 247.5,243.5 C 250.871,257.059 253.204,271.059 254.5,285.5C 250.5,285.5 246.5,285.5 242.5,285.5C 244.297,271.536 245.963,257.536 247.5,243.5 Z"/></g>
<g><path style="opacity:1" fill="#c0bfbf" d="M 317.5,268.5 C 325.984,267.507 334.651,267.174 343.5,267.5C 343.831,288.673 343.497,309.673 342.5,330.5C 342.5,309.833 342.5,289.167 342.5,268.5C 334.167,268.5 325.833,268.5 317.5,268.5 Z"/></g>
<g><path style="opacity:1" fill="#c0bfbf" d="M 239.5,305.5 C 245.31,304.51 251.31,304.177 257.5,304.5C 257.5,305.833 257.5,307.167 257.5,308.5C 256.596,307.791 256.263,306.791 256.5,305.5C 250.833,305.5 245.167,305.5 239.5,305.5 Z"/></g>
<g><path style="opacity:1" fill="#919191" d="M 168.5,348.5 C 166.167,348.5 163.833,348.5 161.5,348.5C 161.5,362.833 161.5,377.167 161.5,391.5C 159.167,391.5 156.833,391.5 154.5,391.5C 154.5,377.167 154.5,362.833 154.5,348.5C 152.167,348.5 149.833,348.5 147.5,348.5C 147.5,346.167 147.5,343.833 147.5,341.5C 154.5,341.5 161.5,341.5 168.5,341.5C 168.5,343.833 168.5,346.167 168.5,348.5 Z"/></g>
<g><path style="opacity:1" fill="#8e8e8e" d="M 267.5,341.5 C 269.833,341.5 272.167,341.5 274.5,341.5C 274.5,358.167 274.5,374.833 274.5,391.5C 272.167,391.5 269.833,391.5 267.5,391.5C 267.5,374.833 267.5,358.167 267.5,341.5 Z"/></g>
<g><path style="opacity:1" fill="#8f8f8f" d="M 283.5,341.5 C 285.833,341.5 288.167,341.5 290.5,341.5C 290.5,355.833 290.5,370.167 290.5,384.5C 293.833,384.5 297.167,384.5 300.5,384.5C 300.5,386.833 300.5,389.167 300.5,391.5C 294.833,391.5 289.167,391.5 283.5,391.5C 283.5,374.833 283.5,358.167 283.5,341.5 Z"/></g>
<g><path style="opacity:1" fill="#919191" d="M 312.5,341.5 C 315.5,341.5 318.5,341.5 321.5,341.5C 324.324,358.093 326.658,374.76 328.5,391.5C 326.167,391.5 323.833,391.5 321.5,391.5C 321.664,388.813 321.497,386.146 321,383.5C 318.333,380.833 315.667,380.833 313,383.5C 312.503,386.146 312.336,388.813 312.5,391.5C 310.167,391.5 307.833,391.5 305.5,391.5C 307.507,374.775 309.84,358.108 312.5,341.5 Z"/></g>
<g><path style="opacity:1" fill="#919191" d="M 371.5,384.5 C 374.287,385.477 377.287,385.81 380.5,385.5C 380.5,387.5 380.5,389.5 380.5,391.5C 375.167,391.5 369.833,391.5 364.5,391.5C 364.5,374.833 364.5,358.167 364.5,341.5C 366.833,341.5 369.167,341.5 371.5,341.5C 371.5,355.833 371.5,370.167 371.5,384.5 Z"/></g>
<g><path style="opacity:1" fill="#8f8f8f" d="M 403.5,341.5 C 403.5,343.833 403.5,346.167 403.5,348.5C 400.287,348.19 397.287,348.523 394.5,349.5C 394.5,353.833 394.5,358.167 394.5,362.5C 396.833,362.5 399.167,362.5 401.5,362.5C 401.5,365.167 401.5,367.833 401.5,370.5C 399.167,370.5 396.833,370.5 394.5,370.5C 394.5,374.833 394.5,379.167 394.5,383.5C 397.287,384.477 400.287,384.81 403.5,384.5C 403.5,386.833 403.5,389.167 403.5,391.5C 398.167,391.5 392.833,391.5 387.5,391.5C 387.5,374.833 387.5,358.167 387.5,341.5C 392.833,341.5 398.167,341.5 403.5,341.5 Z"/></g>
<g><path style="opacity:1" fill="#b7b7b7" d="M 403.5,341.5 C 404.473,343.948 404.806,346.615 404.5,349.5C 401.5,349.5 398.5,349.5 395.5,349.5C 395.167,349.5 394.833,349.5 394.5,349.5C 397.287,348.523 400.287,348.19 403.5,348.5C 403.5,346.167 403.5,343.833 403.5,341.5 Z"/></g>
<g><path style="opacity:1" fill="#bfbebe" d="M 168.5,348.5 C 166.735,349.461 164.735,349.795 162.5,349.5C 162.829,363.677 162.496,377.677 161.5,391.5C 161.5,377.167 161.5,362.833 161.5,348.5C 163.833,348.5 166.167,348.5 168.5,348.5 Z"/></g>
<g><path style="opacity:1" fill="#929292" d="M 194.5,341.5 C 197.833,341.5 201.167,341.5 204.5,341.5C 206.662,358.129 208.662,374.796 210.5,391.5C 208.167,391.5 205.833,391.5 203.5,391.5C 203.5,388.167 203.5,384.833 203.5,381.5C 200.833,381.5 198.167,381.5 195.5,381.5C 194.949,384.807 194.616,388.14 194.5,391.5C 192.167,391.5 189.833,391.5 187.5,391.5C 189.997,374.859 192.33,358.193 194.5,341.5 Z"/></g>
<g><path style="opacity:1" fill="#d4d4d4" d="M 394.5,349.5 C 394.833,349.5 395.167,349.5 395.5,349.5C 395.5,353.5 395.5,357.5 395.5,361.5C 397.735,361.205 399.735,361.539 401.5,362.5C 399.167,362.5 396.833,362.5 394.5,362.5C 394.5,358.167 394.5,353.833 394.5,349.5 Z"/></g>
<g><path style="opacity:1" fill="#909090" d="M 127.5,341.5 C 130.518,341.335 133.518,341.502 136.5,342C 138.667,342.833 140.167,344.333 141,346.5C 141.667,359.833 141.667,373.167 141,386.5C 137.746,391.223 133.246,392.723 127.5,391C 125.106,389.048 123.606,386.548 123,383.5C 122.333,371.5 122.333,359.5 123,347.5C 124.332,345.34 125.832,343.34 127.5,341.5 Z"/></g>
<g><path style="opacity:1" fill="#e8e8e8" d="M 134.5,350.5 C 134.811,361.914 134.477,373.248 133.5,384.5C 132.178,384.67 131.011,384.337 130,383.5C 129.333,372.167 129.333,360.833 130,349.5C 132.045,347.957 133.545,348.29 134.5,350.5 Z"/></g>
<g><path style="opacity:1" fill="#a6a6a6" d="M 134.5,350.5 C 135.166,355.99 135.499,361.657 135.5,367.5C 135.496,373.542 134.829,379.208 133.5,384.5C 134.477,373.248 134.811,361.914 134.5,350.5 Z"/></g>
<g><path style="opacity:1" fill="#929292" d="M 92.5,341.5 C 94.924,341.192 97.2573,341.526 99.5,342.5C 102.065,351.495 104.565,360.495 107,369.5C 107.5,360.173 107.666,350.839 107.5,341.5C 109.833,341.5 112.167,341.5 114.5,341.5C 114.5,358.167 114.5,374.833 114.5,391.5C 112.167,391.5 109.833,391.5 107.5,391.5C 105.317,382.104 102.817,372.77 100,363.5C 99.5002,372.827 99.3335,382.161 99.5,391.5C 97.1667,391.5 94.8333,391.5 92.5,391.5C 92.5,374.833 92.5,358.167 92.5,341.5 Z"/></g>
<g><path style="opacity:1" fill="#e4e3e3" d="M 198.5,356.5 C 200.322,361.893 201.322,367.559 201.5,373.5C 200.167,373.5 198.833,373.5 197.5,373.5C 197.635,367.819 197.968,362.152 198.5,356.5 Z"/></g>
<g><path style="opacity:1" fill="#919191" d="M 212.5,341.5 C 215.167,341.5 217.833,341.5 220.5,341.5C 220.753,350.945 221.92,360.278 224,369.5C 225.66,360.221 226.827,350.888 227.5,341.5C 229.833,341.5 232.167,341.5 234.5,341.5C 232.384,358.198 230.05,374.864 227.5,391.5C 224.833,391.5 222.167,391.5 219.5,391.5C 217.806,374.731 215.473,358.064 212.5,341.5 Z"/></g>
<g><path style="opacity:1" fill="#919191" d="M 243.5,341.5 C 246.833,341.5 250.167,341.5 253.5,341.5C 255.669,358.186 258.002,374.852 260.5,391.5C 258.167,391.5 255.833,391.5 253.5,391.5C 252.793,388.214 252.46,384.881 252.5,381.5C 249.833,381.5 247.167,381.5 244.5,381.5C 244.54,384.881 244.207,388.214 243.5,391.5C 241.167,391.5 238.833,391.5 236.5,391.5C 238.834,374.831 241.167,358.165 243.5,341.5 Z"/></g>
<g><path style="opacity:1" fill="#e5e5e5" d="M 247.5,357.5 C 248.777,358.694 249.444,360.36 249.5,362.5C 249.944,366.163 250.278,369.829 250.5,373.5C 249.167,373.5 247.833,373.5 246.5,373.5C 246.833,368.167 247.167,362.833 247.5,357.5 Z"/></g>
<g><path style="opacity:1" fill="#e4e4e4" d="M 316.5,356.5 C 318.117,361.933 319.117,367.6 319.5,373.5C 317.833,373.5 316.167,373.5 314.5,373.5C 315.167,367.833 315.833,362.167 316.5,356.5 Z"/></g>
<g><path style="opacity:1" fill="#919191" d="M 335.5,341.5 C 354.701,340.176 360.034,348.009 351.5,365C 353.024,366.194 354.19,367.694 355,369.5C 358.828,386.167 352.328,393.5 335.5,391.5C 335.5,374.833 335.5,358.167 335.5,341.5 Z"/></g>
<g><path style="opacity:1" fill="#bdbdbd" d="M 345.5,369.5 C 343.558,374.056 342.892,379.056 343.5,384.5C 342.512,379.36 342.179,374.026 342.5,368.5C 343.791,368.263 344.791,368.596 345.5,369.5 Z"/></g>
<g><path style="opacity:1" fill="#e9e9e9" d="M 345.5,349.5 C 347.931,350.607 348.931,352.607 348.5,355.5C 348.922,358.308 347.922,360.308 345.5,361.5C 344.206,359.952 343.539,357.952 343.5,355.5C 343.539,353.048 344.206,351.048 345.5,349.5 Z"/></g>
<g><path style="opacity:1" fill="#bcbbbc" d="M 345.5,349.5 C 344.206,351.048 343.539,353.048 343.5,355.5C 343.539,357.952 344.206,359.952 345.5,361.5C 344.791,362.404 343.791,362.737 342.5,362.5C 342.5,357.833 342.5,353.167 342.5,348.5C 343.791,348.263 344.791,348.596 345.5,349.5 Z"/></g>
<g><path style="opacity:1" fill="#eaeaea" d="M 345.5,369.5 C 346.79,370.058 347.623,371.058 348,372.5C 348.667,375.5 348.667,378.5 348,381.5C 346.729,382.883 345.229,383.883 343.5,384.5C 342.892,379.056 343.558,374.056 345.5,369.5 Z"/></g>
<g><path style="opacity:1" fill="#b7b6b7" d="M 394.5,383.5 C 397.833,383.5 401.167,383.5 404.5,383.5C 404.806,386.385 404.473,389.052 403.5,391.5C 403.5,389.167 403.5,386.833 403.5,384.5C 400.287,384.81 397.287,384.477 394.5,383.5 Z"/></g>
<g><path style="opacity:1" fill="#afafaf" d="M 371.5,384.5 C 374.833,384.5 378.167,384.5 381.5,384.5C 381.802,387.059 381.468,389.393 380.5,391.5C 380.5,389.5 380.5,387.5 380.5,385.5C 377.287,385.81 374.287,385.477 371.5,384.5 Z"/></g>
</svg>
