<?xml version="1.0" encoding="UTF-8"?>
<!DOCTYPE svg PUBLIC "-//W3C//DTD SVG 1.1//EN" "http://www.w3.org/Graphics/SVG/1.1/DTD/svg11.dtd">
<svg xmlns="http://www.w3.org/2000/svg" version="1.1" width="512px" height="512px" style="shape-rendering:geometricPrecision; text-rendering:geometricPrecision; image-rendering:optimizeQuality; fill-rule:evenodd; clip-rule:evenodd" xmlns:xlink="http://www.w3.org/1999/xlink">
<g><path style="opacity:0.993" fill="#03b8ff" d="M 58.5,15.5 C 101.835,15.3333 145.168,15.5 188.5,16C 211.333,21.5 225.5,35.6667 231,58.5C 231.667,112.833 231.667,167.167 231,221.5C 229.167,226 226,229.167 221.5,231C 167.167,231.667 112.833,231.667 58.5,231C 35.6667,225.5 21.5,211.333 16,188.5C 15.3333,145.167 15.3333,101.833 16,58.5C 21.6815,35.6524 35.8481,21.3191 58.5,15.5 Z M 68.5,47.5 C 105.168,47.3333 141.835,47.5 178.5,48C 191.134,49.6336 197.967,56.8003 199,69.5C 199.5,112.832 199.667,156.165 199.5,199.5C 155.832,199.667 112.165,199.5 68.5,199C 55.8665,197.366 49.0331,190.2 48,177.5C 47.3333,141.5 47.3333,105.5 48,69.5C 49.215,56.7888 56.0484,49.4555 68.5,47.5 Z"/></g>
<g><path style="opacity:0.996" fill="#2b3853" d="M 322.5,15.5 C 365.835,15.3333 409.168,15.5 452.5,16C 475.333,21.5 489.5,35.6667 495,58.5C 495.667,101.833 495.667,145.167 495,188.5C 489.5,211.333 475.333,225.5 452.5,231C 398.167,231.667 343.833,231.667 289.5,231C 285,229.167 281.833,226 280,221.5C 279.333,167.167 279.333,112.833 280,58.5C 285.681,35.6524 299.848,21.3191 322.5,15.5 Z M 332.5,47.5 C 369.168,47.3333 405.835,47.5 442.5,48C 455.134,49.6336 461.967,56.8003 463,69.5C 463.667,105.5 463.667,141.5 463,177.5C 461.967,190.2 455.134,197.366 442.5,199C 398.835,199.5 355.168,199.667 311.5,199.5C 311.333,156.165 311.5,112.832 312,69.5C 313.215,56.7888 320.048,49.4555 332.5,47.5 Z"/></g>
<g><path style="opacity:0.996" fill="#2b3853" d="M 58.5,279.5 C 112.834,279.333 167.168,279.5 221.5,280C 226,281.833 229.167,285 231,289.5C 231.667,343.833 231.667,398.167 231,452.5C 225.5,475.333 211.333,489.5 188.5,495C 145.167,495.667 101.833,495.667 58.5,495C 35.6667,489.5 21.5,475.333 16,452.5C 15.3333,409.167 15.3333,365.833 16,322.5C 21.6815,299.652 35.8481,285.319 58.5,279.5 Z M 68.5,311.5 C 112.167,311.5 155.833,311.5 199.5,311.5C 199.964,357.196 199.464,402.863 198,448.5C 195.5,455 191,459.5 184.5,462C 164.202,463.13 143.869,463.63 123.5,463.5C 103.131,463.63 82.7981,463.13 62.5,462C 56,459.5 51.5,455 49,448.5C 47.3768,410.196 47.0435,371.863 48,333.5C 49.215,320.789 56.0484,313.455 68.5,311.5 Z"/></g>
<g><path style="opacity:0.996" fill="#2b3853" d="M 289.5,279.5 C 343.834,279.333 398.168,279.5 452.5,280C 475.333,285.5 489.5,299.667 495,322.5C 495.667,365.833 495.667,409.167 495,452.5C 489.5,475.333 475.333,489.5 452.5,495C 409.167,495.667 365.833,495.667 322.5,495C 299.667,489.5 285.5,475.333 280,452.5C 279.333,398.167 279.333,343.833 280,289.5C 282.022,284.98 285.189,281.647 289.5,279.5 Z M 311.5,311.5 C 355.168,311.333 398.835,311.5 442.5,312C 455.134,313.634 461.967,320.8 463,333.5C 463.667,369.5 463.667,405.5 463,441.5C 461.967,454.2 455.134,461.366 442.5,463C 405.833,463.667 369.167,463.667 332.5,463C 319.866,461.366 313.033,454.2 312,441.5C 311.5,398.168 311.333,354.835 311.5,311.5 Z"/></g>
</svg>
