<?xml version="1.0" encoding="UTF-8"?>
<!DOCTYPE svg PUBLIC "-//W3C//DTD SVG 1.1//EN" "http://www.w3.org/Graphics/SVG/1.1/DTD/svg11.dtd">
<svg xmlns="http://www.w3.org/2000/svg" version="1.1" width="512px" height="512px" style="shape-rendering:geometricPrecision; text-rendering:geometricPrecision; image-rendering:optimizeQuality; fill-rule:evenodd; clip-rule:evenodd" xmlns:xlink="http://www.w3.org/1999/xlink">
<g><path style="opacity:0.967" fill="#000000" d="M 121.5,42.5 C 213.501,42.3333 305.501,42.5 397.5,43C 418.673,46.8393 431.173,59.3393 435,80.5C 435.5,96.8299 435.667,113.163 435.5,129.5C 318.167,129.5 200.833,129.5 83.5,129.5C 83.3334,111.83 83.5001,94.1635 84,76.5C 89.6969,57.6353 102.197,46.302 121.5,42.5 Z M 183.5,60.5 C 232.539,60.0237 281.539,60.5237 330.5,62C 338.245,64.7441 343.745,69.9107 347,77.5C 348.587,87.0916 348.92,96.7583 348,106.5C 346.457,108.378 344.624,109.878 342.5,111C 284.167,111.667 225.833,111.667 167.5,111C 164.943,110.315 163.109,108.815 162,106.5C 161.333,97.5 161.333,88.5 162,79.5C 165.948,69.3775 173.115,63.0441 183.5,60.5 Z"/></g>
<g><path style="opacity:0.944" fill="#000000" d="M 181.5,77.5 C 230.168,77.3333 278.834,77.5 327.5,78C 329.667,78.8333 331.167,80.3333 332,82.5C 332.499,86.8206 332.666,91.1539 332.5,95.5C 280.833,95.5 229.167,95.5 177.5,95.5C 177.334,91.1539 177.501,86.8206 178,82.5C 178.997,80.6769 180.164,79.0103 181.5,77.5 Z"/></g>
<g><path style="opacity:0.98" fill="#000000" d="M 78.5,145.5 C 195.5,145.333 312.5,145.5 429.5,146C 412.707,174.418 396.041,202.918 379.5,231.5C 260.168,232.667 140.835,232.833 21.5,232C 40.8934,203.367 59.8934,174.533 78.5,145.5 Z"/></g>
<g><path style="opacity:0.95" fill="#000000" d="M 442.5,154.5 C 443.496,154.414 444.329,154.748 445,155.5C 459.707,181.082 474.54,206.582 489.5,232C 458.833,232.667 428.167,232.667 397.5,232C 412.638,206.221 427.638,180.388 442.5,154.5 Z"/></g>
<g><path style="opacity:0.978" fill="#000000" d="M 14.5,248.5 C 134.833,248.5 255.167,248.5 375.5,248.5C 375.5,320.167 375.5,391.833 375.5,463.5C 255.167,463.5 134.833,463.5 14.5,463.5C 14.5,391.833 14.5,320.167 14.5,248.5 Z M 126.5,266.5 C 132.167,266.5 137.833,266.5 143.5,266.5C 143.774,270.948 146.108,273.781 150.5,275C 190.167,275.333 229.833,275.667 269.5,276C 284.416,281.648 290.749,292.482 288.5,308.5C 283.167,308.5 277.833,308.5 272.5,308.5C 272.666,304.486 272.499,300.486 272,296.5C 271.044,295.421 270.211,294.255 269.5,293C 261.277,291.562 252.943,291.062 244.5,291.5C 245.354,297.121 245.687,302.788 245.5,308.5C 240.167,308.5 234.833,308.5 229.5,308.5C 229.666,304.486 229.499,300.486 229,296.5C 228.167,294.333 226.667,292.833 224.5,292C 199.167,291.667 173.833,291.333 148.5,291C 135.402,288.066 128.068,279.899 126.5,266.5 Z M 195.5,309.5 C 201.167,309.5 206.833,309.5 212.5,309.5C 212.5,312.5 212.5,315.5 212.5,318.5C 259.066,323.19 292.566,346.524 313,388.5C 318.847,401.556 322.014,415.222 322.5,429.5C 328.5,429.5 334.5,429.5 340.5,429.5C 340.5,434.833 340.5,440.167 340.5,445.5C 249.167,445.5 157.833,445.5 66.5,445.5C 66.5,440.167 66.5,434.833 66.5,429.5C 72.5,429.5 78.5,429.5 84.5,429.5C 90.6262,376.748 118.626,341.248 168.5,323C 177.293,320.201 186.293,318.701 195.5,318.5C 195.5,315.5 195.5,312.5 195.5,309.5 Z M 203.5,352.5 C 224.909,352.689 243.575,359.856 259.5,374C 255.631,377.534 252.131,381.367 249,385.5C 236.009,374.222 220.842,368.556 203.5,368.5C 203.5,363.167 203.5,357.833 203.5,352.5 Z M 272.5,391.5 C 274.592,391.561 276.092,392.561 277,394.5C 279.311,398.954 281.478,403.454 283.5,408C 279.114,410.02 274.614,411.853 270,413.5C 269.228,413.355 268.561,413.022 268,412.5C 266.486,407.971 264.319,403.805 261.5,400C 265.235,397.147 268.902,394.313 272.5,391.5 Z"/></g>
<g><path style="opacity:0.968" fill="#000000" d="M 391.5,248.5 C 406.167,248.5 420.833,248.5 435.5,248.5C 435.667,304.834 435.5,361.168 435,417.5C 420.98,429.688 406.813,441.688 392.5,453.5C 391.5,385.17 391.167,316.837 391.5,248.5 Z"/></g>
<g><path style="opacity:0.968" fill="#000000" d="M 451.5,248.5 C 466.167,248.5 480.833,248.5 495.5,248.5C 495.833,316.837 495.5,385.17 494.5,453.5C 480.187,441.688 466.02,429.688 452,417.5C 451.5,361.168 451.333,304.834 451.5,248.5 Z"/></g>
<g><path style="opacity:0.969" fill="#000000" d="M 190.5,334.5 C 234.725,331.031 268.891,347.697 293,384.5C 301.242,398.391 305.742,413.391 306.5,429.5C 237.833,429.5 169.167,429.5 100.5,429.5C 107.984,376.352 137.984,344.686 190.5,334.5 Z M 203.5,352.5 C 203.5,357.833 203.5,363.167 203.5,368.5C 220.842,368.556 236.009,374.222 249,385.5C 252.131,381.367 255.631,377.534 259.5,374C 243.575,359.856 224.909,352.689 203.5,352.5 Z M 272.5,391.5 C 268.902,394.313 265.235,397.147 261.5,400C 264.319,403.805 266.486,407.971 268,412.5C 268.561,413.022 269.228,413.355 270,413.5C 274.614,411.853 279.114,410.02 283.5,408C 281.478,403.454 279.311,398.954 277,394.5C 276.092,392.561 274.592,391.561 272.5,391.5 Z"/></g>
<g><path style="opacity:0.934" fill="#000000" d="M 442.5,431.5 C 455.857,441.011 468.524,451.511 480.5,463C 455.833,463.667 431.167,463.667 406.5,463C 418.397,452.262 430.397,441.762 442.5,431.5 Z"/></g>
</svg>
