<?xml version="1.0" encoding="UTF-8"?>
<!DOCTYPE svg PUBLIC "-//W3C//DTD SVG 1.1//EN" "http://www.w3.org/Graphics/SVG/1.1/DTD/svg11.dtd">
<svg xmlns="http://www.w3.org/2000/svg" version="1.1" width="512px" height="512px" style="shape-rendering:geometricPrecision; text-rendering:geometricPrecision; image-rendering:optimizeQuality; fill-rule:evenodd; clip-rule:evenodd" xmlns:xlink="http://www.w3.org/1999/xlink">
<g><path style="opacity:0.991" fill="#fef2bd" d="M 360.5,-0.5 C 367.5,-0.5 374.5,-0.5 381.5,-0.5C 402.496,4.99413 416.663,17.9941 424,38.5C 425.167,39.6667 426.333,40.8333 427.5,42C 452.891,46.559 468.224,61.3924 473.5,86.5C 461.833,86.5 450.167,86.5 438.5,86.5C 395.499,86.6667 352.499,86.5 309.5,86C 300.441,83.639 292.441,79.4723 285.5,73.5C 291.45,58.8834 301.783,48.55 316.5,42.5C 323.385,19.9456 338.052,5.61232 360.5,-0.5 Z"/></g>
<g><path style="opacity:0.992" fill="#80d261" d="M 285.5,73.5 C 292.441,79.4723 300.441,83.639 309.5,86C 352.499,86.5 395.499,86.6667 438.5,86.5C 431.955,98.4197 424.288,109.586 415.5,120C 404.68,129.742 392.013,135.742 377.5,138C 345.168,138.5 312.835,138.667 280.5,138.5C 254.71,119.216 229.043,99.7161 203.5,80C 197.034,76.067 190.034,73.7337 182.5,73C 136.454,72.98 90.4543,72.3133 44.5,71C 25.926,62.5913 19.2594,48.5913 24.5,29C 51.1667,28.8333 77.8333,28.6667 104.5,28.5C 133.529,28.3625 162.529,28.8625 191.5,30C 203.21,32.0936 214.543,35.427 225.5,40C 245.689,50.9253 265.689,62.0919 285.5,73.5 Z"/></g>
<g><path style="opacity:1" fill="#ffe179" d="M 348.5,39.5 C 356.87,39.6808 360.037,43.6808 358,51.5C 352.513,57.1327 347.846,56.4661 344,49.5C 343.333,48.1667 343.333,46.8333 344,45.5C 345.332,43.34 346.832,41.34 348.5,39.5 Z"/></g>
<g><path style="opacity:1" fill="#ffe17a" d="M 381.5,39.5 C 389.201,39.3622 392.367,43.0289 391,50.5C 386.333,57.1667 381.667,57.1667 377,50.5C 375.776,45.626 377.276,41.9593 381.5,39.5 Z"/></g>
<g><path style="opacity:1" fill="#68ca44" d="M 438.5,86.5 C 450.167,86.5 461.833,86.5 473.5,86.5C 477.846,86.3343 482.179,86.501 486.5,87C 488.991,89.9684 489.157,93.1351 487,96.5C 480.082,107.334 473.415,118.334 467,129.5C 456.694,144.14 442.86,153.64 425.5,158C 390.539,159.633 355.539,159.966 320.5,159C 305.001,156.085 291.668,149.252 280.5,138.5C 312.835,138.667 345.168,138.5 377.5,138C 392.013,135.742 404.68,129.742 415.5,120C 424.288,109.586 431.955,98.4197 438.5,86.5 Z"/></g>
<g><path style="opacity:0.994" fill="#e84343" d="M 225.5,249.5 C 217.849,256.322 208.849,260.489 198.5,262C 144.834,262.5 91.1677,262.667 37.5,262.5C 42.7759,237.392 58.1092,222.559 83.5,218C 87.2219,213.395 90.0552,208.228 92,202.5C 109.8,176.569 133.634,169.069 163.5,180C 179.405,188.291 189.738,201.124 194.5,218.5C 209.217,224.55 219.55,234.883 225.5,249.5 Z"/></g>
<g><path style="opacity:0.995" fill="#037196" d="M 462.5,204.5 C 458.587,216.243 450.587,223.743 438.5,227C 399.167,227.333 359.833,227.667 320.5,228C 301.272,230.12 283.606,236.453 267.5,247C 242.5,266 217.5,285 192.5,304C 185.838,307.832 178.838,310.832 171.5,313C 136.53,314.619 101.53,314.952 66.5,314C 59.5811,312.527 52.9144,310.36 46.5,307.5C 44.5491,306.284 43.0491,304.618 42,302.5C 35.6667,291.833 29.3333,281.167 23,270.5C 22.0561,267.653 22.5561,265.153 24.5,263C 28.8206,262.501 33.1539,262.334 37.5,262.5C 91.1677,262.667 144.834,262.5 198.5,262C 208.849,260.489 217.849,256.322 225.5,249.5C 245.311,238.092 265.311,226.925 285.5,216C 296.457,211.427 307.79,208.094 319.5,206C 367.137,204.534 414.804,204.034 462.5,204.5 Z"/></g>
<g><path style="opacity:1" fill="#025f80" d="M 462.5,204.5 C 470.507,204.334 478.507,204.5 486.5,205C 491.375,221.935 486.375,235.268 471.5,245C 468.595,246.286 465.595,247.286 462.5,248C 417.5,248.333 372.5,248.667 327.5,249C 320.344,249.941 313.677,252.274 307.5,256C 279.167,277.667 250.833,299.333 222.5,321C 214.447,327.193 205.447,331.526 195.5,334C 160.539,335.633 125.539,335.966 90.5,335C 72.0644,331.628 57.3978,322.461 46.5,307.5C 52.9144,310.36 59.5811,312.527 66.5,314C 101.53,314.952 136.53,314.619 171.5,313C 178.838,310.832 185.838,307.832 192.5,304C 217.5,285 242.5,266 267.5,247C 283.606,236.453 301.272,230.12 320.5,228C 359.833,227.667 399.167,227.333 438.5,227C 450.587,223.743 458.587,216.243 462.5,204.5 Z"/></g>
<g><path style="opacity:0.992" fill="#fd9737" d="M 473.5,438.5 C 461.5,438.5 449.5,438.5 437.5,438.5C 395.499,438.667 353.499,438.5 311.5,438C 301.822,435.793 293.155,431.626 285.5,425.5C 291.45,410.883 301.783,400.55 316.5,394.5C 326.716,362.779 348.383,348.612 381.5,352C 402.672,357.175 416.839,370.008 424,390.5C 425.167,391.667 426.333,392.833 427.5,394C 452.891,398.559 468.224,413.392 473.5,438.5 Z"/></g>
<g><path style="opacity:0.993" fill="#04c6dc" d="M 285.5,425.5 C 293.155,431.626 301.822,435.793 311.5,438C 353.499,438.5 395.499,438.667 437.5,438.5C 430.323,456.036 418.99,470.203 403.5,481C 395.672,485.415 387.338,488.415 378.5,490C 345.997,490.168 313.664,490.668 281.5,491.5C 255.376,471.883 229.376,452.049 203.5,432C 197.034,428.067 190.034,425.734 182.5,425C 137.833,424.667 93.1667,424.333 48.5,424C 27.1444,417.005 19.1444,402.672 24.5,381C 77.8333,380.333 131.167,380.333 184.5,381C 198.725,382.639 212.391,386.306 225.5,392C 245.689,402.925 265.689,414.092 285.5,425.5 Z"/></g>
<g><path style="opacity:1" fill="#fe860b" d="M 353.5,387.5 C 364.314,386.812 367.314,391.312 362.5,401C 353.961,404.451 349.794,401.618 350,392.5C 350.997,390.677 352.164,389.01 353.5,387.5 Z"/></g>
<g><path style="opacity:1" fill="#fe870d" d="M 384.5,401.5 C 390.984,401.815 394.151,405.148 394,411.5C 392.089,416.418 388.589,418.251 383.5,417C 379.139,414.774 377.639,411.274 379,406.5C 380.73,404.598 382.563,402.931 384.5,401.5 Z"/></g>
<g><path style="opacity:1" fill="#07b2cd" d="M 437.5,438.5 C 449.5,438.5 461.5,438.5 473.5,438.5C 477.846,438.334 482.179,438.501 486.5,439C 488.991,441.968 489.157,445.135 487,448.5C 480.082,459.334 473.415,470.334 467,481.5C 455.232,497.457 439.732,507.457 420.5,511.5C 387.167,511.5 353.833,511.5 320.5,511.5C 305.745,508.289 292.745,501.622 281.5,491.5C 313.664,490.668 345.997,490.168 378.5,490C 387.338,488.415 395.672,485.415 403.5,481C 418.99,470.203 430.323,456.036 437.5,438.5 Z"/></g>
</svg>
