<?xml version="1.0" encoding="UTF-8"?>
<!DOCTYPE svg PUBLIC "-//W3C//DTD SVG 1.1//EN" "http://www.w3.org/Graphics/SVG/1.1/DTD/svg11.dtd">
<svg xmlns="http://www.w3.org/2000/svg" version="1.1" width="512px" height="512px" style="shape-rendering:geometricPrecision; text-rendering:geometricPrecision; image-rendering:optimizeQuality; fill-rule:evenodd; clip-rule:evenodd" xmlns:xlink="http://www.w3.org/1999/xlink">
<g><path style="opacity:0.96" fill="#9fc9d3" d="M 97.5,-0.5 C 100.5,-0.5 103.5,-0.5 106.5,-0.5C 107.458,0.961599 108.624,2.29493 110,3.5C 111.657,14.5402 109.657,24.8736 104,34.5C 96.7958,42.7735 93.1291,52.4402 93,63.5C 86.4514,70.5246 80.7848,69.8579 76,61.5C 75.6901,54.3361 76.6901,47.3361 79,40.5C 82.7471,33.3372 86.7471,26.3372 91,19.5C 92.0305,15.2273 92.6972,10.894 93,6.5C 93.9042,3.76664 95.4042,1.43331 97.5,-0.5 Z"/></g>
<g><path style="opacity:0.954" fill="#9fc9d2" d="M 46.5,16.5 C 50.8394,15.8461 54.6727,16.8461 58,19.5C 60.4107,29.1388 59.4107,38.4722 55,47.5C 50.5619,53.3747 46.8953,59.708 44,66.5C 43.0881,70.7946 42.4215,75.1279 42,79.5C 38.9844,85.372 34.4844,86.872 28.5,84C 26.9512,82.786 25.7845,81.286 25,79.5C 24.1857,70.054 25.8523,61.054 30,52.5C 33,47.8333 36,43.1667 39,38.5C 40.798,33.3219 41.798,27.9885 42,22.5C 42.8041,19.8541 44.3041,17.8541 46.5,16.5 Z"/></g>
<g><path style="opacity:0.962" fill="#9fc9d2" d="M 148.5,16.5 C 156.81,14.8173 161.477,18.1506 162.5,26.5C 161.263,39.9707 156.43,51.9707 148,62.5C 146.406,69.2027 144.739,75.8694 143,82.5C 137.253,86.8808 132.253,86.2142 128,80.5C 126.31,64.903 130.644,51.2363 141,39.5C 143.084,33.3338 144.417,27.0004 145,20.5C 146.376,19.2949 147.542,17.9616 148.5,16.5 Z"/></g>
<g><path style="opacity:0.989" fill="#f4eeca" d="M 152.5,152.5 C 107.264,153.83 61.931,153.83 16.5,152.5C 14.4698,127.536 25.8031,113.203 50.5,109.5C 54.4789,110.497 58.4789,110.997 62.5,111C 74.6305,93.4037 90.6305,88.737 110.5,97C 116.167,100 120.5,104.333 123.5,110C 145.719,115.703 155.386,129.87 152.5,152.5 Z"/></g>
<g><path style="opacity:0.979" fill="#fbd6ad" d="M 413.5,152.5 C 340.833,153.833 268.167,153.833 195.5,152.5C 194.223,138.218 199.89,127.718 212.5,121C 216.681,119.371 221.015,118.538 225.5,118.5C 278.211,126.007 330.878,133.841 383.5,142C 394.055,144.018 404.055,147.518 413.5,152.5 Z"/></g>
<g><path style="opacity:0.992" fill="#9fc9d2" d="M 16.5,152.5 C 61.931,153.83 107.264,153.83 152.5,152.5C 166.833,152.5 181.167,152.5 195.5,152.5C 268.167,153.833 340.833,153.833 413.5,152.5C 426.171,152.333 438.838,152.5 451.5,153C 466.235,157.635 471.735,167.469 468,182.5C 465.281,188.72 460.781,193.053 454.5,195.5C 384.166,195.667 313.833,195.5 243.5,195C 231.455,183.195 218.122,181.528 203.5,190C 201.229,192.782 198.563,194.949 195.5,196.5C 181.163,196.333 166.829,196.5 152.5,197C 136.459,221.186 113.793,232.353 84.5,230.5C 54.5767,232.379 31.7434,220.713 16,195.5C 9.01307,183.235 6.67973,170.235 9,156.5C 10.883,153.976 13.383,152.642 16.5,152.5 Z"/></g>
<g><path style="opacity:0.995" fill="#fcd6ad" d="M 454.5,195.5 C 458.894,206.407 461.727,217.741 463,229.5C 464.683,254.469 465.683,279.469 466,304.5C 465.997,323.159 470.664,340.492 480,356.5C 486.333,363.5 492.667,370.5 499,377.5C 500.861,379.888 502.194,382.554 503,385.5C 503.667,420.5 503.667,455.5 503,490.5C 500.833,496.667 496.667,500.833 490.5,503C 467.167,503.667 443.833,503.667 420.5,503C 417.554,502.194 414.888,500.861 412.5,499C 394.167,480.667 375.833,462.333 357.5,444C 326.545,430.035 301.379,409.202 282,381.5C 271.719,365.155 264.886,347.488 261.5,328.5C 261.436,324.78 260.936,321.114 260,317.5C 237.813,287.765 215.646,258.099 193.5,228.5C 189.085,217.486 189.752,206.819 195.5,196.5C 198.563,194.949 201.229,192.782 203.5,190C 218.122,181.528 231.455,183.195 243.5,195C 313.833,195.5 384.166,195.667 454.5,195.5 Z"/></g>
<g><path style="opacity:1" fill="#f9c795" d="M 245.5,196.5 C 265.169,196.333 284.836,196.5 304.5,197C 321.333,220.83 324.5,246.33 314,273.5C 312.248,276.672 310.248,279.672 308,282.5C 286.903,253.952 266.07,225.285 245.5,196.5 Z"/></g>
<g><path style="opacity:0.991" fill="#f9c795" d="M 193.5,228.5 C 215.646,258.099 237.813,287.765 260,317.5C 260.936,321.114 261.436,324.78 261.5,328.5C 248.936,335.483 236.603,334.983 224.5,327C 211.542,313.751 210.208,299.417 220.5,284C 200.088,289.378 186.255,282.212 179,262.5C 176.478,247.891 181.312,236.557 193.5,228.5 Z"/></g>
</svg>
