<?xml version="1.0" encoding="UTF-8"?>
<!DOCTYPE svg PUBLIC "-//W3C//DTD SVG 1.1//EN" "http://www.w3.org/Graphics/SVG/1.1/DTD/svg11.dtd">
<svg xmlns="http://www.w3.org/2000/svg" version="1.1" width="1060px" height="706px" style="shape-rendering:geometricPrecision; text-rendering:geometricPrecision; image-rendering:optimizeQuality; fill-rule:evenodd; clip-rule:evenodd" xmlns:xlink="http://www.w3.org/1999/xlink">
<g><path style="opacity:1" fill="#fefefe" d="M -0.5,-0.5 C 352.833,-0.5 706.167,-0.5 1059.5,-0.5C 1059.5,234.833 1059.5,470.167 1059.5,705.5C 706.167,705.5 352.833,705.5 -0.5,705.5C -0.5,470.167 -0.5,234.833 -0.5,-0.5 Z"/></g>
<g><path style="opacity:1" fill="#fdf8d1" d="M 815.5,79.5 C 810.388,80.397 806.055,82.897 802.5,87C 796.175,88.8269 789.842,90.6602 783.5,92.5C 783.5,93.5 783.5,94.5 783.5,95.5C 781.833,95.5 780.167,95.5 778.5,95.5C 778.657,94.1266 778.49,92.7932 778,91.5C 771.477,84.7869 770.477,77.4536 775,69.5C 775.495,67.5273 775.662,65.5273 775.5,63.5C 776.833,63.5 778.167,63.5 779.5,63.5C 781.506,60.4723 782.84,57.1389 783.5,53.5C 789.36,52.9516 795.027,51.6182 800.5,49.5C 805.297,51.544 810.297,52.544 815.5,52.5C 816.139,54.7604 817.306,56.7604 819,58.5C 820.11,60.0368 821.61,60.7035 823.5,60.5C 823.5,61.5 823.5,62.5 823.5,63.5C 821.473,63.3379 819.473,63.5045 817.5,64C 820.393,65.1488 823.393,65.6488 826.5,65.5C 826.552,69.1981 826.886,72.8648 827.5,76.5C 824.482,76.3354 821.482,76.502 818.5,77C 816.881,77.2355 815.881,78.0689 815.5,79.5 Z"/></g>
<g><path style="opacity:1" fill="#fcfae6" d="M 831.5,76.5 C 825.976,76.9225 820.642,77.9225 815.5,79.5C 815.881,78.0689 816.881,77.2355 818.5,77C 821.482,76.502 824.482,76.3354 827.5,76.5C 826.886,72.8648 826.552,69.1981 826.5,65.5C 823.393,65.6488 820.393,65.1488 817.5,64C 819.473,63.5045 821.473,63.3379 823.5,63.5C 823.5,62.5 823.5,61.5 823.5,60.5C 821.61,60.7035 820.11,60.0368 819,58.5C 817.306,56.7604 816.139,54.7604 815.5,52.5C 810.297,52.544 805.297,51.544 800.5,49.5C 795.027,51.6182 789.36,52.9516 783.5,53.5C 783.5,52.5 783.5,51.5 783.5,50.5C 786.665,51.0365 789.331,50.2031 791.5,48C 800.845,46.5795 809.845,47.5795 818.5,51C 820.667,54.5 823.5,57.3333 827,59.5C 829.136,63.367 829.636,67.367 828.5,71.5C 830.297,72.6951 831.297,74.3618 831.5,76.5 Z"/></g>
<g><path style="opacity:1" fill="#f0f6fb" d="M 527.5,68.5 C 531.514,68.3345 535.514,68.5012 539.5,69C 545.284,73.9116 546.951,80.0782 544.5,87.5C 542.46,89.371 540.626,91.371 539,93.5C 524.002,96.8384 517.669,90.8384 520,75.5C 521.767,72.228 524.267,69.8947 527.5,68.5 Z"/></g>
<g><path style="opacity:1" fill="#eaf4fd" d="M 831.5,76.5 C 835.582,76.3436 839.582,76.8436 843.5,78C 851.331,82.3849 859.331,86.3849 867.5,90C 870.914,90.2969 874.247,90.9635 877.5,92C 878.973,92.7096 879.64,93.8762 879.5,95.5C 882.346,95.0301 884.679,95.8634 886.5,98C 889.513,98.9089 892.513,99.7422 895.5,100.5C 895.662,102.527 895.495,104.527 895,106.5C 894.25,107.126 893.416,107.626 892.5,108C 853.485,108.703 814.485,108.203 775.5,106.5C 771.649,106.647 767.816,106.98 764,107.5C 760.342,107.254 757.842,105.42 756.5,102C 757.167,101.333 757.833,100.667 758.5,100C 765.396,99.3771 772.063,97.8771 778.5,95.5C 780.167,95.5 781.833,95.5 783.5,95.5C 783.5,94.5 783.5,93.5 783.5,92.5C 789.842,90.6602 796.175,88.8269 802.5,87C 806.055,82.897 810.388,80.397 815.5,79.5C 820.642,77.9225 825.976,76.9225 831.5,76.5 Z"/></g>
<g><path style="opacity:1" fill="#eaf3fd" d="M 727.5,319.5 C 717.079,296.24 701.079,277.74 679.5,264C 650.55,246.852 619.217,237.685 585.5,236.5C 576.803,235.328 568.136,233.828 559.5,232C 535.625,229.537 512.625,232.704 490.5,241.5C 479.442,239.655 468.442,237.488 457.5,235C 455.934,234.392 454.6,233.558 453.5,232.5C 453.5,231.833 453.167,231.5 452.5,231.5C 451.359,229.771 449.693,228.771 447.5,228.5C 433.146,225.379 418.813,222.212 404.5,219C 403.915,217.698 403.249,216.531 402.5,215.5C 401.5,215.5 400.5,215.5 399.5,215.5C 399.67,214.178 399.337,213.011 398.5,212C 375.186,206.618 351.852,201.785 328.5,197.5C 326.156,195.003 323.489,193.003 320.5,191.5C 323.313,191.548 325.979,192.215 328.5,193.5C 330.618,192.054 332.951,191.387 335.5,191.5C 335.5,190.167 335.5,188.833 335.5,187.5C 342.995,185.1 350.662,183.266 358.5,182C 364.31,180.352 369.81,178.186 375,175.5C 377.746,176.143 380.579,176.476 383.5,176.5C 405.521,174.719 427.521,172.885 449.5,171C 460.747,168.547 471.747,165.213 482.5,161C 488.628,154.707 494.961,148.54 501.5,142.5C 502.958,136.881 506.125,132.548 511,129.5C 513.23,125.098 516.397,121.431 520.5,118.5C 521.432,116.234 522.766,114.234 524.5,112.5C 533.19,105.662 542.856,100.829 553.5,98C 610.353,89.001 662.686,99.8343 710.5,130.5C 719.057,138.31 727.724,145.144 736.5,151C 736.167,151.333 735.833,151.667 735.5,152C 748.305,164.462 753.639,179.629 751.5,197.5C 751.573,205.218 751.073,212.884 750,220.5C 742.722,237.804 735.388,255.137 728,272.5C 726.56,277.476 725.227,282.476 724,287.5C 723.333,294.5 723.333,301.5 724,308.5C 726.946,311.826 728.113,315.493 727.5,319.5 Z"/></g>
<g><path style="opacity:1" fill="#eaf4fd" d="M 363.5,116.5 C 372.064,114.398 378.564,117.065 383,124.5C 383.516,127.034 384.683,129.2 386.5,131C 389.147,132.299 391.814,133.632 394.5,135C 399.39,135.06 404.057,136.06 408.5,138C 410.491,139.158 412.158,140.658 413.5,142.5C 413.242,140.242 413.242,137.909 413.5,135.5C 415.49,137.656 417.657,139.656 420,141.5C 420.217,144.939 421.717,147.605 424.5,149.5C 429.52,151.965 434.854,153.798 440.5,155C 442.229,156.789 442.896,158.956 442.5,161.5C 438.578,161.845 434.745,162.512 431,163.5C 430.439,162.978 429.772,162.645 429,162.5C 427.386,163.817 426.219,165.483 425.5,167.5C 424.738,166.372 424.071,165.205 423.5,164C 378.141,163.508 332.807,164.341 287.5,166.5C 287.5,164.167 287.5,161.833 287.5,159.5C 289.5,159.5 291.5,159.5 293.5,159.5C 293.679,157.394 294.679,155.728 296.5,154.5C 302.01,152.412 307.677,150.912 313.5,150C 316.455,148.552 318.455,146.385 319.5,143.5C 322.247,143.813 324.914,143.48 327.5,142.5C 328.698,139.802 330.698,137.969 333.5,137C 337.749,135.874 342.082,135.208 346.5,135C 348.73,132.937 351.397,131.604 354.5,131C 355.362,124.763 358.362,119.93 363.5,116.5 Z"/></g>
<g><path style="opacity:1" fill="#fdfefd" d="M 636.5,147.5 C 645.982,148.029 655.315,149.529 664.5,152C 669.883,157.856 676.549,161.356 684.5,162.5C 685.981,163.48 687.315,164.647 688.5,166C 697.521,165.544 705.187,168.377 711.5,174.5C 716.546,174.793 720.713,176.793 724,180.5C 724.781,181.944 724.614,183.277 723.5,184.5C 722.276,185.766 720.943,186.933 719.5,188C 663.5,188.667 607.5,188.667 551.5,188C 547.059,183.427 547.726,179.76 553.5,177C 563.695,174.382 574.028,172.382 584.5,171C 585.67,168.815 586.836,166.649 588,164.5C 588.333,164.833 588.667,165.167 589,165.5C 594.837,162.723 601.004,161.056 607.5,160.5C 612.564,156.776 617.897,153.443 623.5,150.5C 628.019,149.74 632.353,148.74 636.5,147.5 Z"/></g>
<g><path style="opacity:1" fill="#deeefc" d="M 281.5,182.5 C 280.761,182.369 280.094,182.536 279.5,183C 282.453,185.063 284.286,187.896 285,191.5C 286.805,204.944 284.471,217.611 278,229.5C 275.262,233.74 271.762,237.074 267.5,239.5C 266.167,239.167 264.833,238.833 263.5,238.5C 262.791,237.596 261.791,237.263 260.5,237.5C 260.737,236.209 260.404,235.209 259.5,234.5C 256.599,227.484 255.766,220.15 257,212.5C 258.258,200.819 263.091,190.985 271.5,183C 274.894,181.316 278.228,181.149 281.5,182.5 Z"/></g>
<g><path style="opacity:1" fill="#4477ab" d="M 318.5,191.5 C 319.167,191.5 319.833,191.5 320.5,191.5C 323.489,193.003 326.156,195.003 328.5,197.5C 328.328,198.492 328.662,199.158 329.5,199.5C 330.833,205.5 330.833,211.5 329.5,217.5C 325.099,222.103 323.432,221.437 324.5,215.5C 322.61,215.297 321.11,215.963 320,217.5C 319.808,219.577 319.308,221.577 318.5,223.5C 317.249,218.583 317.582,213.75 319.5,209C 318.977,203.212 317.977,197.545 316.5,192C 317.094,191.536 317.761,191.369 318.5,191.5 Z"/></g>
<g><path style="opacity:1" fill="#85b5e4" d="M 329.5,199.5 C 334.804,200.102 339.804,201.602 344.5,204C 341.722,205.392 338.722,205.892 335.5,205.5C 335.813,208.247 335.48,210.914 334.5,213.5C 330.313,215.561 329.48,218.561 332,222.5C 333.747,223.33 335.413,224.33 337,225.5C 338.817,224.407 338.65,223.407 336.5,222.5C 335.548,220.955 335.215,219.288 335.5,217.5C 337.826,218.151 340.159,218.818 342.5,219.5C 346.172,217.997 349.838,216.497 353.5,215C 352.151,213.365 352.318,211.865 354,210.5C 355.814,211.76 357.647,211.76 359.5,210.5C 359.023,209.522 358.357,208.689 357.5,208C 363.157,207.501 368.824,207.334 374.5,207.5C 374.312,209.103 374.812,210.437 376,211.5C 384.055,210.669 391.889,212.002 399.5,215.5C 396.559,229.372 393.559,243.206 390.5,257C 391.056,257.383 391.389,257.883 391.5,258.5C 388.436,260.343 385.103,260.843 381.5,260C 361.126,256.065 340.793,251.899 320.5,247.5C 319.041,247.567 317.708,247.234 316.5,246.5C 323.789,238.248 328.122,228.581 329.5,217.5C 330.833,211.5 330.833,205.5 329.5,199.5 Z"/></g>
<g><path style="opacity:1" fill="#8fb9e3" d="M 328.5,197.5 C 351.852,201.785 375.186,206.618 398.5,212C 399.337,213.011 399.67,214.178 399.5,215.5C 391.889,212.002 384.055,210.669 376,211.5C 374.812,210.437 374.312,209.103 374.5,207.5C 368.824,207.334 363.157,207.501 357.5,208C 358.357,208.689 359.023,209.522 359.5,210.5C 357.647,211.76 355.814,211.76 354,210.5C 352.318,211.865 352.151,213.365 353.5,215C 349.838,216.497 346.172,217.997 342.5,219.5C 340.159,218.818 337.826,218.151 335.5,217.5C 335.215,219.288 335.548,220.955 336.5,222.5C 338.65,223.407 338.817,224.407 337,225.5C 335.413,224.33 333.747,223.33 332,222.5C 329.48,218.561 330.313,215.561 334.5,213.5C 335.48,210.914 335.813,208.247 335.5,205.5C 338.722,205.892 341.722,205.392 344.5,204C 339.804,201.602 334.804,200.102 329.5,199.5C 328.662,199.158 328.328,198.492 328.5,197.5 Z"/></g>
<g><path style="opacity:1" fill="#4a77a6" d="M 281.5,182.5 C 287.803,184.655 293.803,187.322 299.5,190.5C 292.221,201.169 288.221,213.002 287.5,226C 287.716,230.861 288.716,235.527 290.5,240C 290.272,240.399 289.938,240.565 289.5,240.5C 284.167,240.5 278.833,240.5 273.5,240.5C 271.565,239.85 269.565,239.517 267.5,239.5C 271.762,237.074 275.262,233.74 278,229.5C 284.471,217.611 286.805,204.944 285,191.5C 284.286,187.896 282.453,185.063 279.5,183C 280.094,182.536 280.761,182.369 281.5,182.5 Z"/></g>
<g><path style="opacity:1" fill="#85b4e3" d="M 402.5,215.5 C 403.249,216.531 403.915,217.698 404.5,219C 418.813,222.212 433.146,225.379 447.5,228.5C 449.693,228.771 451.359,229.771 452.5,231.5C 451.25,231.577 450.417,232.244 450,233.5C 448.379,243.814 446.212,253.981 443.5,264C 444.056,264.383 444.389,264.883 444.5,265.5C 443.417,265.539 442.417,265.873 441.5,266.5C 426.778,262.982 411.944,259.982 397,257.5C 395.744,257.648 394.577,257.982 393.5,258.5C 397.14,244.301 400.14,229.968 402.5,215.5 Z"/></g>
<g><path style="opacity:1" fill="#527fac" d="M 310.5,188.5 C 313.443,188.98 316.11,189.98 318.5,191.5C 317.761,191.369 317.094,191.536 316.5,192C 317.977,197.545 318.977,203.212 319.5,209C 317.582,213.75 317.249,218.583 318.5,223.5C 319.308,221.577 319.808,219.577 320,217.5C 321.11,215.963 322.61,215.297 324.5,215.5C 323.432,221.437 325.099,222.103 329.5,217.5C 328.122,228.581 323.789,238.248 316.5,246.5C 310.71,246.904 305.044,246.404 299.5,245C 308.084,238.681 313.25,230.181 315,219.5C 316.414,212.215 316.747,204.882 316,197.5C 315.163,193.843 313.33,190.843 310.5,188.5 Z"/></g>
<g><path style="opacity:1" fill="#eff6fb" d="M 760.5,220.5 C 762.833,220.5 765.167,220.5 767.5,220.5C 767.5,221.5 767.5,222.5 767.5,223.5C 770.247,223.187 772.914,223.52 775.5,224.5C 781.862,241.298 776.195,248.465 758.5,246C 748.769,236.63 749.436,228.13 760.5,220.5 Z"/></g>
<g><path style="opacity:1" fill="#dcedfb" d="M 310.5,188.5 C 313.33,190.843 315.163,193.843 316,197.5C 316.747,204.882 316.414,212.215 315,219.5C 313.25,230.181 308.084,238.681 299.5,245C 305.044,246.404 310.71,246.904 316.5,246.5C 317.708,247.234 319.041,247.567 320.5,247.5C 315.015,248.652 309.349,248.818 303.5,248C 298.379,247.869 295.212,245.369 294,240.5C 292.384,241.801 290.884,241.801 289.5,240.5C 289.938,240.565 290.272,240.399 290.5,240C 288.716,235.527 287.716,230.861 287.5,226C 288.221,213.002 292.221,201.169 299.5,190.5C 303.444,191.75 307.111,191.084 310.5,188.5 Z"/></g>
<g><path style="opacity:1" fill="#4778aa" d="M 399.5,215.5 C 400.5,215.5 401.5,215.5 402.5,215.5C 400.14,229.968 397.14,244.301 393.5,258.5C 392.833,258.5 392.167,258.5 391.5,258.5C 391.389,257.883 391.056,257.383 390.5,257C 393.559,243.206 396.559,229.372 399.5,215.5 Z"/></g>
<g><path style="opacity:1" fill="#b8dafc" d="M 585.5,236.5 C 611.294,243.486 634.627,255.32 655.5,272C 699.566,314.028 706.066,361.195 675,413.5C 666.533,422.478 657.366,430.645 647.5,438C 629.32,448.755 610.654,458.422 591.5,467C 581.833,472.667 572.167,478.333 562.5,484C 556.622,488.21 551.789,493.377 548,499.5C 543.145,509.374 537.812,519.041 532,528.5C 526.21,534.466 519.376,538.466 511.5,540.5C 485.623,538.856 472.789,525.189 473,499.5C 476.131,482.906 482.631,467.906 492.5,454.5C 504.815,440.85 519.148,429.85 535.5,421.5C 536.167,421.5 536.833,421.5 537.5,421.5C 539.544,420.492 541.544,419.492 543.5,418.5C 546.607,418.649 549.607,418.149 552.5,417C 555.324,414.387 558.658,412.721 562.5,412C 563.252,411.329 563.586,410.496 563.5,409.5C 564.579,407.457 566.246,406.124 568.5,405.5C 569.833,405.5 570.5,404.833 570.5,403.5C 586.091,396.74 599.591,387.074 611,374.5C 624.443,346.947 619.277,323.614 595.5,304.5C 590.586,301.264 585.253,298.931 579.5,297.5C 579.389,296.883 579.056,296.383 578.5,296C 569.729,293.277 560.729,291.61 551.5,291C 552.853,288.131 553.186,285.298 552.5,282.5C 562.105,252.279 551.105,237.779 519.5,239C 512.429,241.962 507.762,247.129 505.5,254.5C 504.027,255.071 502.36,255.071 500.5,254.5C 501.135,251.507 501.301,248.507 501,245.5C 497.641,243.626 494.141,242.293 490.5,241.5C 512.625,232.704 535.625,229.537 559.5,232C 568.136,233.828 576.803,235.328 585.5,236.5 Z"/></g>
<g><path style="opacity:1" fill="#86b4e3" d="M 453.5,232.5 C 454.6,233.558 455.934,234.392 457.5,235C 468.442,237.488 479.442,239.655 490.5,241.5C 494.141,242.293 497.641,243.626 501,245.5C 501.301,248.507 501.135,251.507 500.5,254.5C 499.094,254.973 498.427,255.973 498.5,257.5C 498.167,257.5 497.833,257.5 497.5,257.5C 496.122,254.46 493.788,252.46 490.5,251.5C 487.405,250.034 484.405,250.368 481.5,252.5C 481.47,255.453 481.137,258.453 480.5,261.5C 477.967,263.394 476.3,265.894 475.5,269C 471.608,268.217 467.608,267.717 463.5,267.5C 461.735,266.539 459.735,266.205 457.5,266.5C 454.054,265.313 450.387,264.646 446.5,264.5C 448.542,253.677 450.875,243.01 453.5,232.5 Z"/></g>
<g><path style="opacity:1" fill="#fdfefd" d="M 263.5,238.5 C 264.833,238.833 266.167,239.167 267.5,239.5C 269.565,239.517 271.565,239.85 273.5,240.5C 275.631,241.314 277.964,241.814 280.5,242C 280.167,249.84 280.167,258.006 280.5,266.5C 271.792,267.195 263.125,268.195 254.5,269.5C 253.522,269.023 252.689,268.357 252,267.5C 250.713,258.851 250.046,250.184 250,241.5C 250.772,240.151 251.939,239.318 253.5,239C 256.817,238.502 260.15,238.335 263.5,238.5 Z"/></g>
<g><path style="opacity:1" fill="#4777a8" d="M 452.5,231.5 C 453.167,231.5 453.5,231.833 453.5,232.5C 450.875,243.01 448.542,253.677 446.5,264.5C 446.158,265.338 445.492,265.672 444.5,265.5C 444.389,264.883 444.056,264.383 443.5,264C 446.212,253.981 448.379,243.814 450,233.5C 450.417,232.244 451.25,231.577 452.5,231.5 Z"/></g>
<g><path style="opacity:1" fill="#e9f3fd" d="M 259.5,234.5 C 260.404,235.209 260.737,236.209 260.5,237.5C 261.791,237.263 262.791,237.596 263.5,238.5C 260.15,238.335 256.817,238.502 253.5,239C 251.939,239.318 250.772,240.151 250,241.5C 250.046,250.184 250.713,258.851 252,267.5C 252.689,268.357 253.522,269.023 254.5,269.5C 263.125,268.195 271.792,267.195 280.5,266.5C 280.167,258.006 280.167,249.84 280.5,242C 277.964,241.814 275.631,241.314 273.5,240.5C 278.833,240.5 284.167,240.5 289.5,240.5C 290.884,241.801 292.384,241.801 294,240.5C 295.212,245.369 298.379,247.869 303.5,248C 309.349,248.818 315.015,248.652 320.5,247.5C 340.793,251.899 361.126,256.065 381.5,260C 385.103,260.843 388.436,260.343 391.5,258.5C 392.167,258.5 392.833,258.5 393.5,258.5C 394.577,257.982 395.744,257.648 397,257.5C 411.944,259.982 426.778,262.982 441.5,266.5C 442.417,265.873 443.417,265.539 444.5,265.5C 445.492,265.672 446.158,265.338 446.5,264.5C 450.387,264.646 454.054,265.313 457.5,266.5C 455.833,266.5 454.167,266.5 452.5,266.5C 452.923,268.781 452.256,270.448 450.5,271.5C 450.762,270.022 450.429,268.689 449.5,267.5C 433.881,280.317 423.714,296.651 419,316.5C 418.37,328.778 422.204,339.444 430.5,348.5C 427.333,352.166 424.667,356.166 422.5,360.5C 420.146,361.06 417.813,361.727 415.5,362.5C 408.603,365.776 402.27,369.776 396.5,374.5C 394.234,375.314 391.9,375.814 389.5,376C 385.958,378.375 382.291,380.542 378.5,382.5C 374.893,383.489 371.226,383.823 367.5,383.5C 367.5,384.5 367.5,385.5 367.5,386.5C 375.466,387.392 386.133,387.892 399.5,388C 428.5,388.667 457.5,388.667 486.5,388C 490.33,380.495 488.164,375.995 480,374.5C 479.503,372.19 479.337,369.857 479.5,367.5C 472.823,367.84 467.823,365.173 464.5,359.5C 473.772,360.918 483.105,361.585 492.5,361.5C 493.272,362.694 494.272,363.694 495.5,364.5C 495.263,365.791 495.596,366.791 496.5,367.5C 497.045,369.593 497.878,371.593 499,373.5C 499.5,386.496 499.667,399.496 499.5,412.5C 497.381,426.548 495.048,440.548 492.5,454.5C 482.631,467.906 476.131,482.906 473,499.5C 472.789,525.189 485.623,538.856 511.5,540.5C 525.447,542.254 539.447,542.754 553.5,542C 568.033,539.798 577.199,531.632 581,517.5C 584.814,511.071 588.814,504.737 593,498.5C 599.642,491.52 607.142,485.687 615.5,481C 642.164,467.561 668.497,453.561 694.5,439C 728.11,412.265 740.777,377.765 732.5,335.5C 733.822,335.33 734.989,335.663 736,336.5C 741.566,345.401 747.899,353.735 755,361.5C 756.128,363.345 756.628,365.345 756.5,367.5C 758.5,367.5 760.5,367.5 762.5,367.5C 762.491,369.308 762.991,370.975 764,372.5C 769.911,380.651 775.577,388.984 781,397.5C 782.22,402.823 784.053,407.989 786.5,413C 788.203,424.294 787.703,435.46 785,446.5C 780.24,453.945 776.74,461.945 774.5,470.5C 771.819,475.874 768.652,480.874 765,485.5C 763.134,491.597 760.967,497.597 758.5,503.5C 755.676,514.957 756.176,526.291 760,537.5C 764.267,544.369 768.267,551.369 772,558.5C 778.128,563.749 784.461,568.749 791,573.5C 794.326,577.826 797.993,581.826 802,585.5C 810.167,595.177 812.5,606.177 809,618.5C 804.35,626.813 798.517,634.146 791.5,640.5C 794.306,641.168 796.972,641.834 799.5,642.5C 718.194,639.87 637.194,637.87 556.5,636.5C 566.844,622.997 569.344,607.997 564,591.5C 560.447,584.532 555.614,578.699 549.5,574C 545.055,571.443 540.389,569.443 535.5,568C 522.262,565.679 508.929,564.179 495.5,563.5C 487.308,561.054 478.975,560.888 470.5,563C 451.856,570.425 442.189,584.258 441.5,604.5C 442.153,618.633 448.153,629.8 459.5,638C 459.272,638.399 458.938,638.565 458.5,638.5C 457.504,638.586 456.671,638.252 456,637.5C 408.228,638.354 360.395,639.354 312.5,640.5C 309.645,628.384 306.479,616.384 303,604.5C 298.337,593.198 293.67,581.865 289,570.5C 288.452,566.83 287.952,563.163 287.5,559.5C 286.5,559.5 285.5,559.5 284.5,559.5C 282.355,550.44 279.355,541.607 275.5,533C 275.122,519.903 275.622,506.737 277,493.5C 281.08,477.674 288.08,463.34 298,450.5C 298.483,449.552 298.649,448.552 298.5,447.5C 300.167,447.5 301.833,447.5 303.5,447.5C 303.373,443.714 304.54,440.381 307,437.5C 311.074,433.468 315.074,429.468 319,425.5C 319.511,423.122 320.178,420.788 321,418.5C 334.288,399.839 338.954,379.172 335,356.5C 331.414,348.076 328.414,339.409 326,330.5C 323.066,323.645 319.399,317.312 315,311.5C 314.667,309.167 314.333,306.833 314,304.5C 312.491,303.91 310.991,303.244 309.5,302.5C 305.776,293.896 301.609,285.562 297,277.5C 292.609,266.599 290.109,255.266 289.5,243.5C 287.49,241.829 285.157,241.162 282.5,241.5C 282.919,248.647 283.586,255.98 284.5,263.5C 284.46,265.429 284.127,267.262 283.5,269C 279.619,270.19 275.619,270.857 271.5,271C 263.841,271.5 256.174,271.666 248.5,271.5C 247.802,262.618 246.802,253.785 245.5,245C 245.833,242.5 246.167,240 246.5,237.5C 249.639,235.91 252.805,235.576 256,236.5C 257.302,235.915 258.469,235.249 259.5,234.5 Z"/></g>
<g><path style="opacity:1" fill="#313130" d="M 552.5,282.5 C 550.98,286.525 549.146,290.525 547,294.5C 546.241,296.063 545.074,297.063 543.5,297.5C 539.896,297.049 536.896,298.049 534.5,300.5C 528.021,302.563 521.521,304.563 515,306.5C 514.805,305.181 514.972,303.847 515.5,302.5C 524.018,288.756 527.518,273.756 526,257.5C 525.722,256.584 525.222,255.918 524.5,255.5C 525.262,245.952 521.596,243.452 513.5,248C 511.506,250.158 510.172,252.658 509.5,255.5C 507.901,255.768 506.568,255.434 505.5,254.5C 507.762,247.129 512.429,241.962 519.5,239C 551.105,237.779 562.105,252.279 552.5,282.5 Z"/></g>
<g><path style="opacity:1" fill="#f9d8b6" d="M 490.5,251.5 C 493.788,252.46 496.122,254.46 497.5,257.5C 497.648,262.319 496.982,266.985 495.5,271.5C 489.152,272.685 487.152,276.351 489.5,282.5C 484.797,282.437 480.13,282.771 475.5,283.5C 478.655,279.528 479.321,275.028 477.5,270C 478.63,267.275 480.13,264.775 482,262.5C 482.176,259.118 482.676,255.785 483.5,252.5C 485.747,251.626 488.08,251.292 490.5,251.5 Z"/></g>
<g><path style="opacity:1" fill="#7392b6" d="M 500.5,254.5 C 502.36,255.071 504.027,255.071 505.5,254.5C 506.568,255.434 507.901,255.768 509.5,255.5C 510.878,256.234 512.378,256.901 514,257.5C 514.43,260.192 514.263,262.859 513.5,265.5C 511.167,265.5 508.833,265.5 506.5,265.5C 506.44,264.957 506.107,264.624 505.5,264.5C 504.526,266.743 504.192,269.076 504.5,271.5C 503.527,269.052 503.194,266.385 503.5,263.5C 501.833,263.5 500.167,263.5 498.5,263.5C 498.5,261.5 498.5,259.5 498.5,257.5C 498.427,255.973 499.094,254.973 500.5,254.5 Z"/></g>
<g><path style="opacity:1" fill="#a2c0db" d="M 585.5,236.5 C 619.217,237.685 650.55,246.852 679.5,264C 701.079,277.74 717.079,296.24 727.5,319.5C 729.228,324.864 730.895,330.197 732.5,335.5C 740.777,377.765 728.11,412.265 694.5,439C 668.497,453.561 642.164,467.561 615.5,481C 607.142,485.687 599.642,491.52 593,498.5C 588.814,504.737 584.814,511.071 581,517.5C 577.199,531.632 568.033,539.798 553.5,542C 539.447,542.754 525.447,542.254 511.5,540.5C 519.376,538.466 526.21,534.466 532,528.5C 537.812,519.041 543.145,509.374 548,499.5C 551.789,493.377 556.622,488.21 562.5,484C 572.167,478.333 581.833,472.667 591.5,467C 610.654,458.422 629.32,448.755 647.5,438C 657.366,430.645 666.533,422.478 675,413.5C 706.066,361.195 699.566,314.028 655.5,272C 634.627,255.32 611.294,243.486 585.5,236.5 Z"/></g>
<g><path style="opacity:1" fill="#fad8b4" d="M 524.5,255.5 C 524.282,260.211 524.615,264.878 525.5,269.5C 523.822,273.875 522.155,278.208 520.5,282.5C 517.572,283.484 514.572,283.817 511.5,283.5C 510.69,281.202 509.856,278.868 509,276.5C 508.617,277.056 508.117,277.389 507.5,277.5C 506.517,273.702 506.183,269.702 506.5,265.5C 508.833,265.5 511.167,265.5 513.5,265.5C 514.263,262.859 514.43,260.192 514,257.5C 512.378,256.901 510.878,256.234 509.5,255.5C 510.172,252.658 511.506,250.158 513.5,248C 521.596,243.452 525.262,245.952 524.5,255.5 Z"/></g>
<g><path style="opacity:1" fill="#f6d6b8" d="M 457.5,266.5 C 459.735,266.205 461.735,266.539 463.5,267.5C 463.713,273.26 462.38,278.593 459.5,283.5C 459.685,284.584 460.018,285.584 460.5,286.5C 459.833,286.5 459.167,286.5 458.5,286.5C 456.359,285.837 454.025,285.503 451.5,285.5C 448.731,285.529 446.397,286.195 444.5,287.5C 443.651,289.888 442.651,292.221 441.5,294.5C 441.89,291.161 442.39,287.827 443,284.5C 444.356,283.62 445.856,283.286 447.5,283.5C 447.385,279.112 448.385,275.112 450.5,271.5C 452.256,270.448 452.923,268.781 452.5,266.5C 454.167,266.5 455.833,266.5 457.5,266.5 Z"/></g>
<g><path style="opacity:1" fill="#cad6e2" d="M 495.5,271.5 C 493.132,272.872 491.465,274.872 490.5,277.5C 491.124,281.094 492.624,281.428 495,278.5C 495.667,280.167 495.667,281.833 495,283.5C 494.346,282.304 493.846,282.304 493.5,283.5C 494.445,287.448 495.112,291.448 495.5,295.5C 493.774,291.047 491.774,286.714 489.5,282.5C 487.152,276.351 489.152,272.685 495.5,271.5 Z"/></g>
<g><path style="opacity:1" fill="#b7d8f5" d="M 490.5,251.5 C 488.08,251.292 485.747,251.626 483.5,252.5C 482.676,255.785 482.176,259.118 482,262.5C 480.13,264.775 478.63,267.275 477.5,270C 479.321,275.028 478.655,279.528 475.5,283.5C 475.5,284.833 475.5,286.167 475.5,287.5C 475.5,291.833 475.5,296.167 475.5,300.5C 473.517,300.157 472.183,300.824 471.5,302.5C 467.886,303.73 464.22,305.063 460.5,306.5C 459.527,304.052 459.194,301.385 459.5,298.5C 459.833,294.5 460.167,290.5 460.5,286.5C 460.018,285.584 459.685,284.584 459.5,283.5C 462.38,278.593 463.713,273.26 463.5,267.5C 467.608,267.717 471.608,268.217 475.5,269C 476.3,265.894 477.967,263.394 480.5,261.5C 481.137,258.453 481.47,255.453 481.5,252.5C 484.405,250.368 487.405,250.034 490.5,251.5 Z"/></g>
<g><path style="opacity:1" fill="#c67c48" d="M 458.5,286.5 C 453.77,286.283 449.103,286.617 444.5,287.5C 446.397,286.195 448.731,285.529 451.5,285.5C 454.025,285.503 456.359,285.837 458.5,286.5 Z"/></g>
<g><path style="opacity:1" fill="#e7cfb4" d="M 524.5,255.5 C 525.222,255.918 525.722,256.584 526,257.5C 527.518,273.756 524.018,288.756 515.5,302.5C 514.732,301.737 514.232,300.737 514,299.5C 513.601,299.728 513.435,300.062 513.5,300.5C 512.833,301.167 512.167,301.833 511.5,302.5C 511.5,301.5 511.5,300.5 511.5,299.5C 516.644,296.69 519.311,292.356 519.5,286.5C 512.608,287.268 508.608,284.268 507.5,277.5C 508.117,277.389 508.617,277.056 509,276.5C 509.856,278.868 510.69,281.202 511.5,283.5C 514.572,283.817 517.572,283.484 520.5,282.5C 522.155,278.208 523.822,273.875 525.5,269.5C 524.615,264.878 524.282,260.211 524.5,255.5 Z"/></g>
<g><path style="opacity:1" fill="#a1420d" d="M 489.5,282.5 C 491.774,286.714 493.774,291.047 495.5,295.5C 495.5,296.167 495.5,296.833 495.5,297.5C 489.666,296.868 484,297.535 478.5,299.5C 478.167,299.5 477.833,299.5 477.5,299.5C 477.149,295.316 476.482,291.316 475.5,287.5C 475.5,286.167 475.5,284.833 475.5,283.5C 480.13,282.771 484.797,282.437 489.5,282.5 Z"/></g>
<g><path style="opacity:1" fill="#322f2e" d="M 506.5,265.5 C 506.183,269.702 506.517,273.702 507.5,277.5C 508.608,284.268 512.608,287.268 519.5,286.5C 519.311,292.356 516.644,296.69 511.5,299.5C 508.426,300.356 505.592,301.69 503,303.5C 505.625,293.03 506.125,282.364 504.5,271.5C 504.192,269.076 504.526,266.743 505.5,264.5C 506.107,264.624 506.44,264.957 506.5,265.5 Z"/></g>
<g><path style="opacity:1" fill="#be4b0c" d="M 458.5,286.5 C 459.167,286.5 459.833,286.5 460.5,286.5C 460.167,290.5 459.833,294.5 459.5,298.5C 458.197,301.355 458.197,304.355 459.5,307.5C 460.107,307.376 460.44,307.043 460.5,306.5C 464.22,305.063 467.886,303.73 471.5,302.5C 474.015,302.231 476.015,301.231 477.5,299.5C 477.833,299.5 478.167,299.5 478.5,299.5C 478.167,301.5 477.833,303.5 477.5,305.5C 474.15,305.335 470.817,305.502 467.5,306C 466.23,306.9 465.23,308.066 464.5,309.5C 462.253,308.626 459.92,308.292 457.5,308.5C 457.5,305.167 457.5,301.833 457.5,298.5C 454.856,298.84 452.523,298.173 450.5,296.5C 449.914,296.709 449.414,297.043 449,297.5C 448.625,302.21 447.958,306.877 447,311.5C 446.836,306.821 446.836,302.155 447,297.5C 445.989,298.337 444.822,298.67 443.5,298.5C 443.649,297.448 443.483,296.448 443,295.5C 442.768,296.737 442.268,297.737 441.5,298.5C 441.5,298.167 441.5,297.833 441.5,297.5C 441.5,296.5 441.5,295.5 441.5,294.5C 442.651,292.221 443.651,289.888 444.5,287.5C 449.103,286.617 453.77,286.283 458.5,286.5 Z"/></g>
<g><path style="opacity:1" fill="#d2bbb4" d="M 475.5,287.5 C 476.482,291.316 477.149,295.316 477.5,299.5C 476.015,301.231 474.015,302.231 471.5,302.5C 472.183,300.824 473.517,300.157 475.5,300.5C 475.5,296.167 475.5,291.833 475.5,287.5 Z"/></g>
<g><path style="opacity:1" fill="#a4bfd8" d="M 552.5,282.5 C 553.186,285.298 552.853,288.131 551.5,291C 560.729,291.61 569.729,293.277 578.5,296C 579.056,296.383 579.389,296.883 579.5,297.5C 571.967,299.266 565.301,302.6 559.5,307.5C 555.901,306.747 552.567,305.413 549.5,303.5C 548.833,303.5 548.167,303.5 547.5,303.5C 546.713,301.896 545.38,301.229 543.5,301.5C 543.5,300.167 543.5,298.833 543.5,297.5C 545.074,297.063 546.241,296.063 547,294.5C 549.146,290.525 550.98,286.525 552.5,282.5 Z"/></g>
<g><path style="opacity:1" fill="#e9f3fc" d="M 579.5,297.5 C 585.253,298.931 590.586,301.264 595.5,304.5C 619.277,323.614 624.443,346.947 611,374.5C 599.591,387.074 586.091,396.74 570.5,403.5C 568.965,399.562 567.632,395.562 566.5,391.5C 565.553,386.947 564.053,382.613 562,378.5C 561.833,367.169 562,355.836 562.5,344.5C 562.264,341.391 562.597,338.391 563.5,335.5C 565.642,332.2 566.975,328.533 567.5,324.5C 568.645,320.689 568.812,316.689 568,312.5C 565.067,310.92 562.233,309.254 559.5,307.5C 565.301,302.6 571.967,299.266 579.5,297.5 Z"/></g>
<g><path style="opacity:1" fill="#d8c8be" d="M 498.5,303.5 C 499.404,304.209 499.737,305.209 499.5,306.5C 502.807,305.949 506.14,305.616 509.5,305.5C 505.994,306.733 502.327,307.733 498.5,308.5C 498.5,306.833 498.5,305.167 498.5,303.5 Z"/></g>
<g><path style="opacity:1" fill="#bad7f2" d="M 497.5,257.5 C 497.833,257.5 498.167,257.5 498.5,257.5C 498.5,259.5 498.5,261.5 498.5,263.5C 500.167,263.5 501.833,263.5 503.5,263.5C 503.194,266.385 503.527,269.052 504.5,271.5C 506.125,282.364 505.625,293.03 503,303.5C 505.592,301.69 508.426,300.356 511.5,299.5C 511.5,300.5 511.5,301.5 511.5,302.5C 510.833,303.5 510.167,304.5 509.5,305.5C 506.14,305.616 502.807,305.949 499.5,306.5C 499.737,305.209 499.404,304.209 498.5,303.5C 497.728,302.306 496.728,301.306 495.5,300.5C 495.5,299.5 495.5,298.5 495.5,297.5C 495.5,296.833 495.5,296.167 495.5,295.5C 495.112,291.448 494.445,287.448 493.5,283.5C 493.846,282.304 494.346,282.304 495,283.5C 495.667,281.833 495.667,280.167 495,278.5C 492.624,281.428 491.124,281.094 490.5,277.5C 491.465,274.872 493.132,272.872 495.5,271.5C 496.982,266.985 497.648,262.319 497.5,257.5 Z"/></g>
<g><path style="opacity:1" fill="#8e512e" d="M 513.5,300.5 C 513.101,304.011 512.434,307.344 511.5,310.5C 510.833,310.5 510.167,310.5 509.5,310.5C 510.355,309.469 511.022,308.303 511.5,307C 511.164,305.97 510.497,305.47 509.5,305.5C 510.167,304.5 510.833,303.5 511.5,302.5C 512.167,301.833 512.833,301.167 513.5,300.5 Z"/></g>
<g><path style="opacity:1" fill="#f4d2aa" d="M 515.5,302.5 C 514.972,303.847 514.805,305.181 515,306.5C 521.521,304.563 528.021,302.563 534.5,300.5C 529.034,307.788 521.701,312.121 512.5,313.5C 511.614,312.675 511.281,311.675 511.5,310.5C 512.434,307.344 513.101,304.011 513.5,300.5C 513.435,300.062 513.601,299.728 514,299.5C 514.232,300.737 514.732,301.737 515.5,302.5 Z"/></g>
<g><path style="opacity:1" fill="#ac4710" d="M 543.5,297.5 C 543.5,298.833 543.5,300.167 543.5,301.5C 545.38,301.229 546.713,301.896 547.5,303.5C 546.417,303.461 545.417,303.127 544.5,302.5C 541.125,303.706 538.125,305.54 535.5,308C 536.09,309.299 537.09,310.132 538.5,310.5C 543.672,309.754 548.672,308.587 553.5,307C 551.09,306.943 549.756,305.776 549.5,303.5C 552.567,305.413 555.901,306.747 559.5,307.5C 562.233,309.254 565.067,310.92 568,312.5C 568.812,316.689 568.645,320.689 567.5,324.5C 567.665,320.818 567.499,317.152 567,313.5C 566.5,313 566,312.5 565.5,312C 547.141,311.391 528.808,312.558 510.5,315.5C 509.571,314.311 509.238,312.978 509.5,311.5C 509.5,311.167 509.5,310.833 509.5,310.5C 510.167,310.5 510.833,310.5 511.5,310.5C 511.281,311.675 511.614,312.675 512.5,313.5C 521.701,312.121 529.034,307.788 534.5,300.5C 536.896,298.049 539.896,297.049 543.5,297.5 Z"/></g>
<g><path style="opacity:1" fill="#d35006" d="M 547.5,303.5 C 548.167,303.5 548.833,303.5 549.5,303.5C 549.756,305.776 551.09,306.943 553.5,307C 548.672,308.587 543.672,309.754 538.5,310.5C 537.09,310.132 536.09,309.299 535.5,308C 538.125,305.54 541.125,303.706 544.5,302.5C 545.417,303.127 546.417,303.461 547.5,303.5 Z"/></g>
<g><path style="opacity:1" fill="#f0f5fb" d="M 742.5,291.5 C 745.187,291.336 747.854,291.503 750.5,292C 752.754,294.419 755.421,296.252 758.5,297.5C 762.175,312.319 756.509,318.819 741.5,317C 739.552,316.017 737.718,314.85 736,313.5C 732.212,306.515 732.712,300.015 737.5,294C 739.315,293.243 740.981,292.41 742.5,291.5 Z"/></g>
<g><path style="opacity:1" fill="#ba602d" d="M 441.5,297.5 C 441.5,297.833 441.5,298.167 441.5,298.5C 440.686,306.868 440.353,315.202 440.5,323.5C 438.864,319.79 438.198,315.79 438.5,311.5C 438.656,306.529 439.656,301.862 441.5,297.5 Z"/></g>
<g><path style="opacity:1" fill="#d96521" d="M 495.5,300.5 C 496.728,301.306 497.728,302.306 498.5,303.5C 498.5,305.167 498.5,306.833 498.5,308.5C 502.327,307.733 505.994,306.733 509.5,305.5C 510.497,305.47 511.164,305.97 511.5,307C 511.022,308.303 510.355,309.469 509.5,310.5C 509.5,310.833 509.5,311.167 509.5,311.5C 507.833,311.5 506.167,311.5 504.5,311.5C 504.5,312.5 504.5,313.5 504.5,314.5C 498.541,313.862 497.541,315.362 501.5,319C 499.559,319.743 497.726,319.576 496,318.5C 496.283,322.801 494.783,326.134 491.5,328.5C 492.326,329.451 492.492,330.451 492,331.5C 490.4,332.866 488.567,333.866 486.5,334.5C 487.246,335.736 487.579,337.07 487.5,338.5C 486.272,337.694 485.272,336.694 484.5,335.5C 484.768,333.901 484.434,332.568 483.5,331.5C 480.375,330.521 477.042,330.187 473.5,330.5C 474.502,328.989 475.169,327.322 475.5,325.5C 477.924,325.808 480.257,325.474 482.5,324.5C 478.597,322.717 478.93,321.55 483.5,321C 484.887,316.793 487.887,314.793 492.5,315C 490.893,313.951 490.227,312.451 490.5,310.5C 489.5,310.5 488.5,310.5 487.5,310.5C 487.5,309.167 487.5,307.833 487.5,306.5C 488.5,306.5 489.5,306.5 490.5,306.5C 490.176,303.306 491.342,302.306 494,303.5C 494.513,302.473 495.013,301.473 495.5,300.5 Z"/></g>
<g><path style="opacity:1" fill="#cf4f06" d="M 478.5,299.5 C 484,297.535 489.666,296.868 495.5,297.5C 495.5,298.5 495.5,299.5 495.5,300.5C 495.013,301.473 494.513,302.473 494,303.5C 491.342,302.306 490.176,303.306 490.5,306.5C 489.5,306.5 488.5,306.5 487.5,306.5C 487.5,307.833 487.5,309.167 487.5,310.5C 488.5,310.5 489.5,310.5 490.5,310.5C 490.227,312.451 490.893,313.951 492.5,315C 487.887,314.793 484.887,316.793 483.5,321C 478.93,321.55 478.597,322.717 482.5,324.5C 480.257,325.474 477.924,325.808 475.5,325.5C 475.169,327.322 474.502,328.989 473.5,330.5C 464.843,329.723 456.177,329.056 447.5,328.5C 446.07,327.463 444.403,326.796 442.5,326.5C 441.833,325.5 441.167,324.5 440.5,323.5C 440.353,315.202 440.686,306.868 441.5,298.5C 442.268,297.737 442.768,296.737 443,295.5C 443.483,296.448 443.649,297.448 443.5,298.5C 444.822,298.67 445.989,298.337 447,297.5C 446.836,302.155 446.836,306.821 447,311.5C 447.958,306.877 448.625,302.21 449,297.5C 449.414,297.043 449.914,296.709 450.5,296.5C 452.523,298.173 454.856,298.84 457.5,298.5C 457.5,301.833 457.5,305.167 457.5,308.5C 459.92,308.292 462.253,308.626 464.5,309.5C 465.23,308.066 466.23,306.9 467.5,306C 470.817,305.502 474.15,305.335 477.5,305.5C 477.833,303.5 478.167,301.5 478.5,299.5 Z"/></g>
<g><path style="opacity:1" fill="#daa48b" d="M 459.5,298.5 C 459.194,301.385 459.527,304.052 460.5,306.5C 460.44,307.043 460.107,307.376 459.5,307.5C 458.197,304.355 458.197,301.355 459.5,298.5 Z"/></g>
<g><path style="opacity:1" fill="#badaf8" d="M 450.5,271.5 C 448.385,275.112 447.385,279.112 447.5,283.5C 445.856,283.286 444.356,283.62 443,284.5C 442.39,287.827 441.89,291.161 441.5,294.5C 441.5,295.5 441.5,296.5 441.5,297.5C 439.656,301.862 438.656,306.529 438.5,311.5C 437.353,315.646 437.186,319.98 438,324.5C 439.33,325.582 440.83,326.249 442.5,326.5C 444.403,326.796 446.07,327.463 447.5,328.5C 447.5,328.833 447.5,329.167 447.5,329.5C 452.568,331.178 457.902,331.844 463.5,331.5C 469.319,332.328 475.319,332.828 481.5,333C 482.078,334.417 483.078,335.25 484.5,335.5C 484.227,337.451 484.893,338.951 486.5,340C 480.697,349.464 472.363,355.464 461.5,358C 462.416,358.278 463.082,358.778 463.5,359.5C 450.886,360.273 439.886,356.606 430.5,348.5C 422.204,339.444 418.37,328.778 419,316.5C 423.714,296.651 433.881,280.317 449.5,267.5C 450.429,268.689 450.762,270.022 450.5,271.5 Z"/></g>
<g><path style="opacity:1" fill="#d2bcb1" d="M 438.5,311.5 C 438.198,315.79 438.864,319.79 440.5,323.5C 441.167,324.5 441.833,325.5 442.5,326.5C 440.83,326.249 439.33,325.582 438,324.5C 437.186,319.98 437.353,315.646 438.5,311.5 Z"/></g>
<g><path style="opacity:1" fill="#ebf4fd" d="M 269.5,327.5 C 280.091,326.289 286.757,330.789 289.5,341C 295.588,341.715 299.922,344.882 302.5,350.5C 306.429,350.634 309.429,352.301 311.5,355.5C 313.813,356.273 316.146,356.94 318.5,357.5C 319.487,360.768 319.82,364.102 319.5,367.5C 314.414,367.941 309.414,368.774 304.5,370C 307.75,371.641 311.083,373.141 314.5,374.5C 316.278,379.003 316.778,383.669 316,388.5C 315.101,392.57 312.601,394.57 308.5,394.5C 308.5,395.5 308.5,396.5 308.5,397.5C 294.879,398.966 288.712,392.966 290,379.5C 292.149,375.686 294.983,372.519 298.5,370C 263.833,369.333 229.167,369.333 194.5,370C 191.928,371.908 189.428,371.741 187,369.5C 180.645,370.628 173.978,370.628 167,369.5C 166.5,369 166,368.5 165.5,368C 178.026,367.513 190.026,364.846 201.5,360C 200.5,359.667 199.5,359.333 198.5,359C 203.076,356.296 208.076,354.962 213.5,355C 216.081,352.012 219.414,350.846 223.5,351.5C 223.148,347.164 225.148,344.664 229.5,344C 236.011,342.968 242.344,343.468 248.5,345.5C 251.015,342.052 254.181,339.386 258,337.5C 260.591,332.386 264.425,329.053 269.5,327.5 Z"/></g>
<g><path style="opacity:1" fill="#d0cccc" d="M 447.5,329.5 C 453.021,329.782 458.354,330.449 463.5,331.5C 457.902,331.844 452.568,331.178 447.5,329.5 Z"/></g>
<g><path style="opacity:1" fill="#b9643c" d="M 447.5,329.5 C 447.5,329.167 447.5,328.833 447.5,328.5C 456.177,329.056 464.843,329.723 473.5,330.5C 477.042,330.187 480.375,330.521 483.5,331.5C 476.833,331.5 470.167,331.5 463.5,331.5C 458.354,330.449 453.021,329.782 447.5,329.5 Z"/></g>
<g><path style="opacity:1" fill="#d6cac0" d="M 463.5,331.5 C 470.167,331.5 476.833,331.5 483.5,331.5C 484.434,332.568 484.768,333.901 484.5,335.5C 483.078,335.25 482.078,334.417 481.5,333C 475.319,332.828 469.319,332.328 463.5,331.5 Z"/></g>
<g><path style="opacity:1" fill="#ca9674" d="M 563.5,335.5 C 562.597,338.391 562.264,341.391 562.5,344.5C 562.167,344.5 561.833,344.5 561.5,344.5C 561.5,343.833 561.5,343.167 561.5,342.5C 560.99,339.612 561.656,337.279 563.5,335.5 Z"/></g>
<g><path style="opacity:1" fill="#a84005" d="M 561.5,342.5 C 561.5,343.167 561.5,343.833 561.5,344.5C 561.5,346.833 561.5,349.167 561.5,351.5C 560.105,355.591 559.438,359.924 559.5,364.5C 555.999,365.868 554.665,368.535 555.5,372.5C 556.019,375.615 556.019,378.615 555.5,381.5C 556.32,383.111 557.654,383.778 559.5,383.5C 559.5,385.5 559.5,387.5 559.5,389.5C 557.515,387.576 555.515,385.576 553.5,383.5C 552.668,374.518 552.168,365.518 552,356.5C 551.5,356 551,355.5 550.5,355C 534.759,351.979 519.092,348.813 503.5,345.5C 504.333,345.167 505.167,344.833 506,344.5C 518.447,346.289 530.947,346.789 543.5,346C 549.342,343.906 555.342,342.739 561.5,342.5 Z"/></g>
<g><path style="opacity:1" fill="#d75102" d="M 509.5,311.5 C 509.238,312.978 509.571,314.311 510.5,315.5C 528.808,312.558 547.141,311.391 565.5,312C 566,312.5 566.5,313 567,313.5C 567.499,317.152 567.665,320.818 567.5,324.5C 566.975,328.533 565.642,332.2 563.5,335.5C 561.656,337.279 560.99,339.612 561.5,342.5C 555.342,342.739 549.342,343.906 543.5,346C 530.947,346.789 518.447,346.289 506,344.5C 505.167,344.833 504.333,345.167 503.5,345.5C 519.092,348.813 534.759,351.979 550.5,355C 551,355.5 551.5,356 552,356.5C 552.168,365.518 552.668,374.518 553.5,383.5C 555.515,385.576 557.515,387.576 559.5,389.5C 561.032,388.63 562.532,388.964 564,390.5C 565.355,395.594 566.855,400.594 568.5,405.5C 566.246,406.124 564.579,407.457 563.5,409.5C 556.508,412.148 549.841,415.148 543.5,418.5C 541.708,418.366 540.042,418.699 538.5,419.5C 534.901,420.344 531.234,420.677 527.5,420.5C 520.62,417.538 515.454,412.538 512,405.5C 509.676,394.281 507.509,382.947 505.5,371.5C 496.788,362.633 492.121,351.966 491.5,339.5C 490.5,339.5 489.5,339.5 488.5,339.5C 488.5,338.833 488.167,338.5 487.5,338.5C 487.579,337.07 487.246,335.736 486.5,334.5C 488.567,333.866 490.4,332.866 492,331.5C 492.492,330.451 492.326,329.451 491.5,328.5C 494.783,326.134 496.283,322.801 496,318.5C 497.726,319.576 499.559,319.743 501.5,319C 497.541,315.362 498.541,313.862 504.5,314.5C 504.5,313.5 504.5,312.5 504.5,311.5C 506.167,311.5 507.833,311.5 509.5,311.5 Z"/></g>
<g><path style="opacity:1" fill="#fcfdfd" d="M 430.5,348.5 C 439.886,356.606 450.886,360.273 463.5,359.5C 463.833,359.5 464.167,359.5 464.5,359.5C 467.823,365.173 472.823,367.84 479.5,367.5C 479.337,369.857 479.503,372.19 480,374.5C 488.164,375.995 490.33,380.495 486.5,388C 457.5,388.667 428.5,388.667 399.5,388C 386.133,387.892 375.466,387.392 367.5,386.5C 367.5,385.5 367.5,384.5 367.5,383.5C 371.226,383.823 374.893,383.489 378.5,382.5C 382.291,380.542 385.958,378.375 389.5,376C 391.9,375.814 394.234,375.314 396.5,374.5C 402.27,369.776 408.603,365.776 415.5,362.5C 417.813,361.727 420.146,361.06 422.5,360.5C 424.667,356.166 427.333,352.166 430.5,348.5 Z"/></g>
<g><path style="opacity:1" fill="#9a491e" d="M 487.5,338.5 C 488.167,338.5 488.5,338.833 488.5,339.5C 489.391,340.261 490.058,341.261 490.5,342.5C 489.698,345.449 489.364,348.449 489.5,351.5C 490.5,351.5 491.5,351.5 492.5,351.5C 492.717,356.033 493.717,360.366 495.5,364.5C 494.272,363.694 493.272,362.694 492.5,361.5C 491.483,357.947 489.983,354.614 488,351.5C 487.501,347.179 487.334,342.846 487.5,338.5 Z"/></g>
<g><path style="opacity:1" fill="#a4c0d6" d="M 484.5,335.5 C 485.272,336.694 486.272,337.694 487.5,338.5C 487.334,342.846 487.501,347.179 488,351.5C 489.983,354.614 491.483,357.947 492.5,361.5C 483.105,361.585 473.772,360.918 464.5,359.5C 464.167,359.5 463.833,359.5 463.5,359.5C 463.082,358.778 462.416,358.278 461.5,358C 472.363,355.464 480.697,349.464 486.5,340C 484.893,338.951 484.227,337.451 484.5,335.5 Z"/></g>
<g><path style="opacity:1" fill="#a16c50" d="M 561.5,351.5 C 561.638,356.414 560.972,361.081 559.5,365.5C 559.5,365.167 559.5,364.833 559.5,364.5C 559.438,359.924 560.105,355.591 561.5,351.5 Z"/></g>
<g><path style="opacity:1" fill="#a14514" d="M 559.5,364.5 C 559.5,364.833 559.5,365.167 559.5,365.5C 558.965,375.052 561.299,383.718 566.5,391.5C 567.632,395.562 568.965,399.562 570.5,403.5C 570.5,404.833 569.833,405.5 568.5,405.5C 566.855,400.594 565.355,395.594 564,390.5C 562.532,388.964 561.032,388.63 559.5,389.5C 559.5,387.5 559.5,385.5 559.5,383.5C 557.654,383.778 556.32,383.111 555.5,381.5C 556.019,378.615 556.019,375.615 555.5,372.5C 554.665,368.535 555.999,365.868 559.5,364.5 Z"/></g>
<g><path style="opacity:1" fill="#f5e8dd" d="M 561.5,344.5 C 561.833,344.5 562.167,344.5 562.5,344.5C 562,355.836 561.833,367.169 562,378.5C 564.053,382.613 565.553,386.947 566.5,391.5C 561.299,383.718 558.965,375.052 559.5,365.5C 560.972,361.081 561.638,356.414 561.5,351.5C 561.5,349.167 561.5,346.833 561.5,344.5 Z"/></g>
<g><path style="opacity:1" fill="#8f4e29" d="M 496.5,367.5 C 498.284,368.574 499.451,370.24 500,372.5C 500.167,385.18 500.667,397.846 501.5,410.5C 503.611,411.605 504.945,413.271 505.5,415.5C 503.871,414.375 502.371,413.041 501,411.5C 500.617,412.056 500.117,412.389 499.5,412.5C 499.667,399.496 499.5,386.496 499,373.5C 497.878,371.593 497.045,369.593 496.5,367.5 Z"/></g>
<g><path style="opacity:1" fill="#a54108" d="M 488.5,339.5 C 489.5,339.5 490.5,339.5 491.5,339.5C 492.121,351.966 496.788,362.633 505.5,371.5C 507.509,382.947 509.676,394.281 512,405.5C 515.454,412.538 520.62,417.538 527.5,420.5C 522.296,419.355 516.963,418.689 511.5,418.5C 510.313,416.025 508.313,415.025 505.5,415.5C 504.945,413.271 503.611,411.605 501.5,410.5C 500.667,397.846 500.167,385.18 500,372.5C 499.451,370.24 498.284,368.574 496.5,367.5C 495.596,366.791 495.263,365.791 495.5,364.5C 493.717,360.366 492.717,356.033 492.5,351.5C 491.5,351.5 490.5,351.5 489.5,351.5C 489.364,348.449 489.698,345.449 490.5,342.5C 490.058,341.261 489.391,340.261 488.5,339.5 Z"/></g>
<g><path style="opacity:1" fill="#d3bfc2" d="M 563.5,409.5 C 563.586,410.496 563.252,411.329 562.5,412C 558.658,412.721 555.324,414.387 552.5,417C 549.607,418.149 546.607,418.649 543.5,418.5C 549.841,415.148 556.508,412.148 563.5,409.5 Z"/></g>
<g><path style="opacity:1" fill="#7f421d" d="M 511.5,418.5 C 516.963,418.689 522.296,419.355 527.5,420.5C 531.234,420.677 534.901,420.344 538.5,419.5C 538.167,420.167 537.833,420.833 537.5,421.5C 536.833,421.5 536.167,421.5 535.5,421.5C 527.111,422.214 519.111,421.214 511.5,418.5 Z"/></g>
<g><path style="opacity:1" fill="#c6a09a" d="M 543.5,418.5 C 541.544,419.492 539.544,420.492 537.5,421.5C 537.833,420.833 538.167,420.167 538.5,419.5C 540.042,418.699 541.708,418.366 543.5,418.5 Z"/></g>
<g><path style="opacity:1" fill="#081b32" d="M 505.5,415.5 C 508.313,415.025 510.313,416.025 511.5,418.5C 519.111,421.214 527.111,422.214 535.5,421.5C 519.148,429.85 504.815,440.85 492.5,454.5C 495.048,440.548 497.381,426.548 499.5,412.5C 500.117,412.389 500.617,412.056 501,411.5C 502.371,413.041 503.871,414.375 505.5,415.5 Z"/></g>
<g><path style="opacity:1" fill="#b8dafc" d="M 495.5,563.5 C 507.989,567.092 517.156,574.759 523,586.5C 529.065,604.173 525.899,620.006 513.5,634C 506.117,640.576 497.45,644.243 487.5,645C 489.058,645.21 490.391,645.71 491.5,646.5C 479.773,646.059 468.773,643.392 458.5,638.5C 458.938,638.565 459.272,638.399 459.5,638C 448.153,629.8 442.153,618.633 441.5,604.5C 442.189,584.258 451.856,570.425 470.5,563C 478.975,560.888 487.308,561.054 495.5,563.5 Z"/></g>
<g><path style="opacity:1" fill="#a1c0db" d="M 495.5,563.5 C 508.929,564.179 522.262,565.679 535.5,568C 540.389,569.443 545.055,571.443 549.5,574C 555.614,578.699 560.447,584.532 564,591.5C 569.344,607.997 566.844,622.997 556.5,636.5C 551.955,642.28 545.955,645.78 538.5,647C 522.823,647.629 507.156,647.463 491.5,646.5C 490.391,645.71 489.058,645.21 487.5,645C 497.45,644.243 506.117,640.576 513.5,634C 525.899,620.006 529.065,604.173 523,586.5C 517.156,574.759 507.989,567.092 495.5,563.5 Z"/></g>
<g><path style="opacity:1" fill="#d9e3ec" d="M 556.5,636.5 C 637.194,637.87 718.194,639.87 799.5,642.5C 819.328,642.437 838.994,644.104 858.5,647.5C 857.624,648.251 856.624,648.751 855.5,649C 819.91,652.191 784.243,654.191 748.5,655C 603.166,656.977 457.833,656.977 312.5,655C 277.452,654.186 242.452,652.519 207.5,650C 204.81,649.229 202.144,648.396 199.5,647.5C 205.407,645.885 211.407,644.719 217.5,644C 249.14,642.105 280.807,640.938 312.5,640.5C 360.395,639.354 408.228,638.354 456,637.5C 456.671,638.252 457.504,638.586 458.5,638.5C 468.773,643.392 479.773,646.059 491.5,646.5C 507.156,647.463 522.823,647.629 538.5,647C 545.955,645.78 551.955,642.28 556.5,636.5 Z"/></g>
</svg>
